SplineFontDB: 3.0
FontName: ArvinRegular-@
FullName: Arvin Regular
FamilyName: Arvin Regular
Weight: Book
Copyright: Copyright (c) Typographer Yining Chen, 2017. All rights reserved.
Version: 1.00 January 25, 2017, initial release
ItalicAngle: 0
UnderlinePosition: -292
UnderlineWidth: 150
Ascent: 1638
Descent: 410
InvalidEm: 0
sfntRevision: 0x00010000
LayerCount: 3
Layer: 0 1 "Back" 1
Layer: 1 1 "Fore" 0
Layer: 2 0 "Back 2" 1
XUID: [1021 148 -864330828 1844]
StyleMap: 0x0040
FSType: 8
OS2Version: 2
OS2_WeightWidthSlopeOnly: 0
OS2_UseTypoMetrics: 0
CreationTime: 1483225680
ModificationTime: 1488995660
PfmFamily: 17
TTFWeight: 400
TTFWidth: 5
LineGap: 67
VLineGap: 0
Panose: 2 11 5 2 2 2 2 2 2 4
OS2TypoAscent: 1491
OS2TypoAOffset: 0
OS2TypoDescent: -431
OS2TypoDOffset: 0
OS2TypoLinegap: 307
OS2WinAscent: 1950
OS2WinAOffset: 0
OS2WinDescent: 431
OS2WinDOffset: 0
HheadAscent: 1854
HheadAOffset: 0
HheadDescent: -434
HheadDOffset: 0
OS2SubXSize: 1434
OS2SubYSize: 1331
OS2SubXOff: 0
OS2SubYOff: 283
OS2SupXSize: 1434
OS2SupYSize: 1331
OS2SupXOff: 0
OS2SupYOff: 977
OS2StrikeYSize: 102
OS2StrikeYPos: 530
OS2CapHeight: 1464
OS2XHeight: 950
OS2FamilyClass: 2052
OS2Vendor: 'HL  '
OS2CodePages: 20000111.41000000
OS2UnicodeRanges: 800000a7.5000004a.00000000.00000000
DEI: 91125
ShortTable: maxp 16
  1
  0
  236
  164
  5
  0
  0
  0
  0
  0
  0
  0
  0
  0
  0
  0
EndShort
LangName: 1033 "" "" "Regular" "Arvin Regular :Version 1.00" "" "Version 1.00 January 25, 2017, initial release" "" "" "" "" "This font was created using FontCreator 5.6 from High-Logic.com"
LangName: 1027 "" "" "Normal"
LangName: 1029 "" "" "oby+AQ0A-ejn+AOkA"
LangName: 1030 "" "" "normal"
LangName: 1031 "" "" "Standard"
LangName: 1032 "" "" "+A5oDsQO9A78DvQO5A7oDrAAA"
LangName: 1034 "" "" "Normal"
LangName: 1035 "" "" "Normaali"
LangName: 1036 "" "" "Normal"
LangName: 1038 "" "" "Norm+AOEA-l"
LangName: 1040 "" "" "Normale"
LangName: 1043 "" "" "Standaard"
LangName: 1044 "" "" "Normal"

StartChar: exclam
Encoding: 33 33 4
Width: 657
Flags: W
LayerCount: 3
Fore
SplineSet
365 200 m 2,0,-1
 367 200 l 2,1,2
 410 200 410 200 442 165 c 0,3,4
 466 135 466 135 466 104 c 2,5,-1
 466 98 l 2,6,7
 466 55 466 55 429 23 c 0,8,9
 401 0 401 0 365 0 c 0,10,11
 327 0 327 0 296 28 c 0,12,13
 266 60 266 60 266 96 c 2,14,-1
 266 104 l 2,15,16
 266 142 266 142 299 174 c 0,17,18
 328 200 328 200 365 200 c 2,0,-1
297 1464 m 1,19,-1
 435 1464 l 1,20,-1
 436 1463 l 1,21,-1
 436 325 l 1,22,-1
 296 325 l 1,23,-1
 296 1463 l 1,24,-1
 297 1464 l 1,19,-1
EndSplineSet
EndChar

StartChar: quotedbl
Encoding: 34 34 5
Width: 539
Flags: W
LayerCount: 3
Fore
SplineSet
356 1200 m 1,0,-1
 356 1463 l 1,1,-1
 496 1463 l 1,2,-1
 496 1200 l 1,3,-1
 356 1200 l 1,0,-1
96 1200 m 1,4,-1
 96 1463 l 1,5,-1
 236 1463 l 1,6,-1
 236 1200 l 1,7,-1
 96 1200 l 1,4,-1
EndSplineSet
EndChar

StartChar: numbersign
Encoding: 35 35 6
Width: 953
Flags: W
LayerCount: 3
Fore
SplineSet
375 830 m 1,0,-1
 335 591 l 1,1,-1
 564 591 l 1,2,-1
 604 830 l 1,3,-1
 375 830 l 1,0,-1
319 1339 m 1,4,-1
 456 1316 l 1,5,-1
 456 1315 l 1,6,-1
 399 970 l 1,7,-1
 628 970 l 1,8,-1
 688 1329 l 1,9,10
 824 1306 824 1306 826 1306 c 2,11,-1
 770 970 l 1,12,-1
 916 970 l 1,13,-1
 916 830 l 1,14,-1
 746 830 l 1,15,-1
 706 591 l 1,16,-1
 863 591 l 1,17,-1
 864 590 l 1,18,-1
 864 452 l 1,19,-1
 863 451 l 1,20,-1
 683 451 l 1,21,-1
 613 35 l 1,22,-1
 475 58 l 1,23,-1
 541 451 l 1,24,-1
 312 451 l 1,25,-1
 244 44 l 1,26,-1
 106 68 l 1,27,-1
 170 451 l 1,28,-1
 37 451 l 1,29,-1
 36 452 l 1,30,-1
 36 590 l 1,31,-1
 37 591 l 1,32,-1
 193 591 l 1,33,-1
 233 830 l 1,34,-1
 89 830 l 1,35,-1
 88 831 l 1,36,-1
 88 969 l 1,37,-1
 89 970 l 1,38,-1
 257 970 l 1,39,-1
 318 1339 l 1,40,-1
 319 1339 l 1,4,-1
EndSplineSet
EndChar

StartChar: dollar
Encoding: 36 36 7
Width: 981
Flags: W
LayerCount: 3
Fore
SplineSet
414 1463 m 1,0,-1
 553 1463 l 1,1,-1
 554 1462 l 1,2,-1
 554 1381 l 1,3,4
 561 1381 561 1381 603 1371 c 0,5,6
 635 1361 635 1361 663 1348 c 0,7,8
 692 1333 692 1333 725 1310 c 0,9,10
 745 1295 745 1295 777 1264 c 1,11,-1
 793 1245 l 2,12,13
 818 1213 818 1213 832 1189 c 0,14,15
 847 1164 847 1164 847 1162 c 2,16,-1
 719 1104 l 1,17,18
 707 1129 707 1129 685 1155 c 0,19,20
 608 1244 608 1244 499 1244 c 0,21,22
 399 1244 399 1244 331 1183 c 0,23,24
 303 1153 303 1153 295 1137 c 0,25,26
 264 1083 264 1083 264 1022 c 0,27,28
 264 944 264 944 317 904 c 0,29,30
 339 886 339 886 363 874 c 0,31,32
 440 833 440 833 614 792 c 0,33,34
 661 779 661 779 692 763 c 0,35,36
 729 744 729 744 766 712 c 0,37,38
 801 679 801 679 809 664 c 0,39,40
 829 639 829 639 843 608 c 0,41,42
 876 536 876 536 876 457 c 0,43,44
 876 339 876 339 808 236 c 0,45,46
 794 216 794 216 767 188 c 0,47,48
 731 154 731 154 704 139 c 0,49,50
 676 122 676 122 654 112 c 0,51,52
 629 101 629 101 586 90 c 2,53,-1
 554 83 l 1,54,-1
 554 1 l 1,55,-1
 553 0 l 1,56,-1
 414 0 l 1,57,-1
 413 1 l 1,58,-1
 413 86 l 2,59,60
 413 87 413 87 399 89 c 0,61,62
 350 102 350 102 317 117 c 0,63,64
 284 133 284 133 248 159 c 0,65,66
 191 204 191 204 159 250 c 0,67,68
 139 278 139 278 126 300 c 0,69,70
 107 335 107 335 97 361 c 1,71,-1
 226 415 l 1,72,73
 243 375 243 375 266 342 c 0,74,75
 276 325 276 325 307 293 c 0,76,77
 387 219 387 219 491 219 c 0,78,79
 571 219 571 219 640 264 c 0,80,81
 674 288 674 288 697 323 c 0,82,83
 735 386 735 386 735 454 c 2,84,-1
 735 460 l 2,85,86
 735 538 735 538 685 595 c 0,87,88
 662 618 662 618 646 628 c 0,89,90
 623 642 623 642 598 651 c 0,91,92
 581 657 581 657 506 675 c 0,93,94
 360 714 360 714 287 755 c 0,95,96
 257 772 257 772 221 800 c 1,97,98
 186 834 186 834 183 841 c 0,99,100
 124 913 124 913 124 1023 c 0,101,102
 124 1149 124 1149 204 1252 c 0,103,104
 239 1291 239 1291 259 1306 c 0,105,106
 289 1329 289 1329 315 1342 c 0,107,108
 341 1356 341 1356 378 1367 c 0,109,110
 391 1371 391 1371 413 1376 c 1,111,-1
 413 1462 l 1,112,-1
 414 1463 l 1,0,-1
EndSplineSet
EndChar

StartChar: percent
Encoding: 37 37 8
Width: 1228
Flags: W
LayerCount: 3
Fore
SplineSet
233 1129 m 2,0,-1
 233 1127 l 2,1,2
 233 1075 233 1075 278 1038 c 0,3,4
 310 1015 310 1015 346 1015 c 0,5,6
 400 1015 400 1015 437 1060 c 0,7,8
 460 1091 460 1091 460 1127 c 2,9,-1
 460 1131 l 2,10,11
 460 1174 460 1174 427 1209 c 0,12,13
 392 1242 392 1242 347 1242 c 256,14,15
 302 1242 302 1242 267 1210 c 0,16,17
 233 1175 233 1175 233 1129 c 2,0,-1
768 278 m 0,18,19
 768 219 768 219 822 181 c 0,20,21
 850 164 850 164 883 164 c 0,22,23
 937 164 937 164 975 211 c 0,24,25
 996 243 996 243 996 273 c 2,26,-1
 996 281 l 2,27,28
 996 328 996 328 954 366 c 0,29,30
 921 391 921 391 885 391 c 2,31,-1
 879 391 l 2,32,33
 831 391 831 391 794 350 c 0,34,35
 768 317 768 317 768 278 c 0,18,19
934 1395 m 1,36,-1
 1054 1324 l 1,37,-1
 1054 1323 l 1,38,-1
 796 885 l 1,39,-1
 584 524 l 1,40,-1
 357 138 l 1,41,-1
 280 8 l 1,42,-1
 160 78 l 1,43,-1
 160 79 l 1,44,-1
 410 504 l 1,45,-1
 599 826 l 1,46,-1
 824 1209 l 1,47,-1
 933 1395 l 1,48,-1
 934 1395 l 1,36,-1
882 532 m 0,49,50
 986 532 986 532 1066 454 c 1,51,-1
 1075 443 l 2,52,53
 1136 369 1136 369 1136 278 c 0,54,55
 1136 173 1136 173 1058 95 c 0,56,57
 1026 65 1026 65 1006 56 c 0,58,59
 948 24 948 24 885 24 c 2,60,-1
 878 24 l 2,61,62
 796 24 796 24 723 80 c 0,63,64
 696 103 696 103 681 122 c 0,65,66
 628 194 628 194 628 275 c 2,67,-1
 628 281 l 2,68,69
 628 369 628 369 690 444 c 0,70,71
 721 477 721 477 736 485 c 0,72,73
 803 532 803 532 882 532 c 0,49,50
344 1382 m 2,74,-1
 349 1382 l 2,75,76
 438 1382 438 1382 513 1321 c 0,77,78
 542 1293 542 1293 550 1281 c 0,79,80
 601 1211 601 1211 601 1129 c 0,81,82
 601 1026 601 1026 524 947 c 2,83,-1
 511 934 l 1,84,85
 437 875 437 875 346 875 c 0,86,87
 257 875 257 875 184 934 c 0,88,89
 161 954 161 954 150 968 c 0,90,91
 131 993 131 993 121 1012 c 0,92,93
 93 1069 93 1069 93 1122 c 2,94,-1
 93 1134 l 2,95,96
 93 1209 93 1209 142 1279 c 0,97,98
 151 1292 151 1292 177 1318 c 0,99,100
 253 1382 253 1382 344 1382 c 2,74,-1
EndSplineSet
EndChar

StartChar: ampersand
Encoding: 38 38 9
Width: 1195
Flags: W
LayerCount: 3
Fore
SplineSet
444 1152 m 2,0,-1
 444 1148 l 2,1,2
 444 1103 444 1103 464 1070 c 0,3,4
 503 1000 503 1000 563 903 c 2,5,-1
 566 898 l 1,6,7
 615 928 615 928 652 954 c 0,8,9
 689 979 689 979 733 1018 c 0,10,11
 769 1055 769 1055 778 1071 c 0,12,13
 795 1097 795 1097 798 1116 c 0,14,15
 800 1122 800 1122 800 1137 c 2,16,-1
 800 1147 l 2,17,18
 800 1215 800 1215 751 1256 c 0,19,20
 722 1281 722 1281 666 1294 c 0,21,22
 645 1300 645 1300 623 1300 c 0,23,24
 547 1300 547 1300 485 1246 c 0,25,26
 462 1221 462 1221 458 1211 c 0,27,28
 444 1190 444 1190 444 1152 c 2,0,-1
237 344 m 2,29,-1
 237 342 l 2,30,31
 237 215 237 215 341 159 c 0,32,33
 377 143 377 143 386 143 c 0,34,35
 408 137 408 137 449 137 c 2,36,-1
 451 137 l 2,37,38
 625 137 625 137 804 286 c 1,39,40
 716 414 716 414 609 576 c 2,41,-1
 522 711 l 1,42,-1
 521 711 l 1,43,44
 470 678 470 678 416 633 c 0,45,46
 391 613 391 613 355 579 c 0,47,48
 312 536 312 536 294 511 c 0,49,50
 250 449 250 449 244 410 c 0,51,52
 237 375 237 375 237 344 c 2,29,-1
623 1437 m 0,53,54
 715 1437 715 1437 804 1386 c 0,55,56
 886 1337 886 1337 920 1247 c 0,57,58
 937 1197 937 1197 937 1142 c 0,59,60
 937 1071 937 1071 906 1018 c 0,61,62
 893 994 893 994 872 967 c 0,63,64
 859 950 859 950 825 916 c 0,65,66
 764 862 764 862 727 839 c 0,67,68
 683 807 683 807 639 782 c 1,69,70
 758 598 758 598 907 380 c 1,71,72
 943 416 943 416 1008 486 c 1,73,-1
 1108 391 l 1,74,-1
 1078 360 l 2,75,76
 1044 322 1044 322 986 265 c 1,77,-1
 1084 122 l 1,78,-1
 972 43 l 1,79,80
 925 109 925 109 883 172 c 1,81,-1
 882 172 l 1,82,83
 816 119 816 119 761 87 c 0,84,85
 605 0 605 0 458 0 c 2,86,-1
 443 0 l 2,87,88
 320 0 320 0 231 67 c 0,89,90
 217 75 217 75 183 110 c 0,91,92
 127 171 127 171 107 266 c 0,93,94
 100 303 100 303 100 335 c 2,95,-1
 100 350 l 2,96,97
 100 421 100 421 123 486 c 0,98,99
 137 522 137 522 162 562 c 0,100,101
 183 593 183 593 217 633 c 0,102,103
 256 676 256 676 296 712 c 0,104,105
 343 752 343 752 377 778 c 0,106,107
 409 801 409 801 448 827 c 1,108,109
 399 906 399 906 351 990 c 0,110,111
 331 1024 331 1024 320 1055 c 0,112,113
 306 1102 306 1102 306 1151 c 0,114,115
 306 1243 306 1243 358 1308 c 0,116,117
 363 1319 363 1319 399 1353 c 0,118,119
 422 1373 422 1373 441 1385 c 0,120,121
 526 1437 526 1437 623 1437 c 0,53,54
EndSplineSet
EndChar

StartChar: quotesingle
Encoding: 39 39 10
Width: 279
Flags: W
LayerCount: 3
Fore
SplineSet
96 1200 m 1,0,-1
 96 1463 l 1,1,-1
 236 1463 l 1,2,-1
 236 1200 l 1,3,-1
 96 1200 l 1,0,-1
EndSplineSet
EndChar

StartChar: parenleft
Encoding: 40 40 11
Width: 661
Flags: W
LayerCount: 3
Fore
SplineSet
503 1514 m 2,0,-1
 509 1514 l 1,1,-1
 509 1375 l 1,2,-1
 508 1374 l 1,3,4
 395 1374 395 1374 330 1275 c 0,5,6
 273 1182 273 1182 273 1034 c 2,7,-1
 273 309 l 2,8,9
 273 125 273 125 359 32 c 0,10,11
 420 -30 420 -30 509 -30 c 1,12,-1
 509 -169 l 1,13,-1
 508 -170 l 1,14,-1
 505 -170 l 2,15,16
 396 -170 396 -170 304 -106 c 0,17,18
 284 -92 284 -92 256 -64 c 0,19,20
 222 -26 222 -26 206 2 c 0,21,22
 186 36 186 36 173 70 c 0,23,24
 133 177 133 177 133 301 c 2,25,-1
 133 1042 l 2,26,27
 133 1190 133 1190 189 1310 c 0,28,29
 205 1343 205 1343 230 1377 c 0,30,31
 242 1394 242 1394 273 1424 c 0,32,33
 323 1470 323 1470 376 1490 c 0,34,35
 439 1514 439 1514 503 1514 c 2,0,-1
EndSplineSet
EndChar

StartChar: parenright
Encoding: 41 41 12
Width: 661
Flags: W
LayerCount: 3
Fore
SplineSet
285 1490 m 0,1,2
 338 1470 338 1470 388 1424 c 0,3,4
 419 1394 419 1394 431 1377 c 0,5,6
 456 1343 456 1343 472 1310 c 0,7,8
 528 1190 528 1190 528 1042 c 2,9,-1
 528 301 l 2,10,11
 528 177 528 177 488 70 c 0,12,13
 475 36 475 36 455 2 c 0,14,15
 439 -26 439 -26 405 -64 c 0,16,17
 377 -92 377 -92 357 -106 c 0,18,19
 265 -170 265 -170 156 -170 c 2,20,-1
 153 -170 l 1,21,-1
 152 -169 l 1,22,-1
 152 -30 l 1,23,24
 241 -30 241 -30 302 32 c 0,25,26
 388 125 388 125 388 309 c 2,27,-1
 388 1034 l 2,28,29
 388 1182 388 1182 331 1275 c 0,30,31
 266 1374 266 1374 153 1374 c 1,32,-1
 152 1375 l 1,33,-1
 152 1514 l 1,34,-1
 158 1514 l 2,35,0
 222 1514 222 1514 285 1490 c 0,1,2
EndSplineSet
EndChar

StartChar: asterisk
Encoding: 42 42 13
Width: 878
Flags: W
LayerCount: 3
Fore
SplineSet
369 1504 m 1,0,-1
 502 1504 l 1,1,-1
 505 1501 l 1,2,-1
 505 1333 l 1,3,4
 658 1389 658 1389 666 1389 c 2,5,-1
 668 1389 l 1,6,-1
 713 1258 l 1,7,-1
 551 1201 l 1,8,-1
 650 1064 l 1,9,-1
 538 981 l 1,10,-1
 435 1117 l 1,11,-1
 334 981 l 1,12,-1
 333 981 l 1,13,14
 231 1054 231 1054 221 1064 c 1,15,-1
 320 1201 l 1,16,17
 158 1256 158 1256 158 1260 c 2,18,-1
 203 1389 l 1,19,-1
 205 1389 l 2,20,21
 213 1389 213 1389 366 1333 c 1,22,-1
 366 1501 l 1,23,-1
 369 1504 l 1,0,-1
EndSplineSet
EndChar

StartChar: plus
Encoding: 43 43 14
Width: 790
Flags: W
LayerCount: 3
Fore
SplineSet
355 680 m 1,0,-1
 355 965 l 1,1,-1
 495 965 l 1,2,-1
 495 680 l 1,3,-1
 780 680 l 1,4,-1
 780 540 l 1,5,-1
 495 540 l 1,6,-1
 495 255 l 1,7,-1
 355 255 l 1,8,-1
 355 540 l 1,9,-1
 70 540 l 1,10,-1
 70 680 l 1,11,-1
 355 680 l 1,0,-1
EndSplineSet
EndChar

StartChar: comma
Encoding: 44 44 15
Width: 445
Flags: W
LayerCount: 3
Fore
SplineSet
189 209 m 1,0,-1
 305 131 l 1,1,-1
 305 130 l 1,2,-1
 158 -86 l 1,3,-1
 157 -86 l 1,4,-1
 42 -8 l 1,5,-1
 42 -7 l 1,6,7
 185 204 185 204 189 209 c 1,0,-1
EndSplineSet
EndChar

StartChar: hyphen
Encoding: 45 45 16
AltUni2: 0000ad.ffffffff.0
Width: 867
Flags: W
LayerCount: 3
Fore
SplineSet
106 680 m 1,0,-1
 812 680 l 1,1,-1
 812 540 l 1,2,-1
 106 540 l 1,3,-1
 106 680 l 1,0,-1
EndSplineSet
EndChar

StartChar: period
Encoding: 46 46 17
Width: 502
Flags: W
LayerCount: 3
Fore
SplineSet
250 200 m 2,0,-1
 252 200 l 2,1,2
 295 200 295 200 327 165 c 0,3,4
 351 135 351 135 351 104 c 2,5,-1
 351 98 l 2,6,7
 351 55 351 55 314 23 c 0,8,9
 286 0 286 0 250 0 c 0,10,11
 212 0 212 0 181 28 c 0,12,13
 151 60 151 60 151 96 c 2,14,-1
 151 104 l 2,15,16
 151 142 151 142 184 174 c 0,17,18
 213 200 213 200 250 200 c 2,0,-1
EndSplineSet
EndChar

StartChar: slash
Encoding: 47 47 18
Width: 715
Flags: W
LayerCount: 3
Fore
SplineSet
-25 -51 m 1,0,-1
 552 1374 l 1,1,-1
 692 1374 l 1,2,-1
 115 -51 l 1,3,-1
 -25 -51 l 1,0,-1
EndSplineSet
EndChar

StartChar: zero
Encoding: 48 48 19
Width: 1103
Flags: W
LayerCount: 3
Fore
SplineSet
245 842 m 2,0,-1
 245 465 l 2,1,2
 245 353 245 353 288 258 c 1,3,-1
 289 258 l 1,4,-1
 477 646 l 1,5,-1
 688 1081 l 2,6,7
 728 1162 728 1162 728 1164 c 0,8,9
 699 1186 699 1186 677 1197 c 0,10,11
 653 1208 653 1208 630 1214 c 0,12,13
 606 1220 606 1220 570 1220 c 2,14,-1
 532 1220 l 2,15,16
 464 1220 464 1220 416 1191 c 0,17,18
 324 1141 324 1141 276 1019 c 0,19,20
 245 936 245 936 245 842 c 2,0,-1
821 1034 m 1,21,-1
 624 629 l 1,22,-1
 413 193 l 1,23,-1
 385 135 l 1,24,25
 450 87 450 87 524 87 c 2,26,-1
 579 87 l 2,27,28
 682 87 682 87 764 180 c 0,29,30
 789 210 789 210 808 244 c 0,31,32
 824 275 824 275 837 318 c 0,33,34
 846 346 846 346 853 389 c 0,35,36
 858 425 858 425 858 487 c 2,37,-1
 858 815 l 2,38,39
 858 912 858 912 844 961 c 0,40,41
 844 970 844 970 825 1025 c 1,42,-1
 821 1034 l 1,21,-1
525 1360 m 2,43,-1
 578 1360 l 2,44,45
 730 1360 730 1360 850 1242 c 0,46,47
 888 1201 888 1201 907 1170 c 0,48,49
 998 1029 998 1029 998 835 c 2,50,-1
 998 473 l 2,51,52
 998 259 998 259 890 112 c 0,53,54
 875 91 875 91 839 55 c 0,55,56
 795 15 795 15 763 -2 c 0,57,58
 676 -53 676 -53 585 -53 c 2,59,-1
 517 -53 l 2,60,61
 427 -53 427 -53 335 0 c 0,62,63
 219 72 219 72 158 207 c 0,64,65
 105 327 105 327 105 458 c 2,66,-1
 105 849 l 2,67,68
 105 990 105 990 165 1117 c 0,69,70
 184 1155 184 1155 215 1197 c 0,71,72
 228 1217 228 1217 266 1254 c 0,73,74
 381 1360 381 1360 525 1360 c 2,43,-1
EndSplineSet
EndChar

StartChar: one
Encoding: 49 49 20
Width: 646
Flags: W
LayerCount: 3
Fore
SplineSet
151 1349 m 1,0,-1
 428 1349 l 1,1,-1
 429 1348 l 1,2,-1
 429 -9 l 1,3,-1
 428 -10 l 1,4,-1
 291 -10 l 1,5,-1
 290 -9 l 1,6,-1
 290 1210 l 1,7,-1
 151 1210 l 1,8,-1
 150 1211 l 1,9,-1
 150 1348 l 1,10,-1
 151 1349 l 1,0,-1
EndSplineSet
EndChar

StartChar: two
Encoding: 50 50 21
Width: 997
Flags: W
LayerCount: 3
Fore
SplineSet
500 1382 m 0,0,1
 702 1382 702 1382 818 1217 c 0,2,3
 854 1166 854 1166 875 1098 c 0,4,5
 898 1030 898 1030 898 957 c 0,6,7
 898 851 898 851 849 766 c 1,8,-1
 601 480 l 1,9,-1
 337 176 l 1,10,-1
 293 124 l 1,11,-1
 857 124 l 1,12,-1
 857 -16 l 1,13,-1
 115 -16 l 1,14,-1
 114 -15 l 1,15,-1
 114 132 l 2,16,17
 114 134 114 134 124 144 c 2,18,-1
 375 434 l 1,19,-1
 614 709 l 1,20,-1
 734 849 l 1,21,22
 758 898 758 898 758 958 c 0,23,24
 758 1056 758 1056 699 1142 c 0,25,26
 627 1241 627 1241 504 1241 c 2,27,-1
 496 1241 l 2,28,29
 324 1241 324 1241 262 1079 c 0,30,31
 252 1051 252 1051 243 1003 c 0,32,33
 238 971 238 971 238 955 c 1,34,-1
 98 955 l 1,35,-1
 98 959 l 2,36,37
 98 1024 98 1024 126 1115 c 0,38,39
 146 1170 146 1170 172 1212 c 0,40,41
 188 1237 188 1237 215 1267 c 0,42,43
 324 1382 324 1382 500 1382 c 0,0,1
EndSplineSet
EndChar

StartChar: three
Encoding: 51 51 22
Width: 1052
Flags: W
LayerCount: 3
Fore
SplineSet
526 1382 m 0,0,1
 664 1382 664 1382 774 1289 c 0,2,3
 808 1258 808 1258 818 1243 c 0,4,5
 849 1203 849 1203 861 1177 c 0,6,7
 903 1094 903 1094 903 1005 c 2,8,-1
 903 1001 l 2,9,10
 903 867 903 867 814 757 c 0,11,12
 782 721 782 721 761 705 c 0,13,14
 749 696 749 696 747 695 c 1,15,16
 766 683 766 683 803 651 c 0,17,18
 834 620 834 620 850 600 c 0,19,20
 937 484 937 484 937 345 c 0,21,22
 937 199 937 199 842 79 c 0,23,24
 827 62 827 62 798 35 c 0,25,26
 759 1 759 1 732 -14 c 0,27,28
 629 -74 629 -74 520 -74 c 2,29,-1
 507 -74 l 2,30,31
 409 -74 409 -74 312 -24 c 0,32,33
 278 -5 278 -5 239 26 c 0,34,35
 200 62 200 62 184 82 c 0,36,37
 161 112 161 112 148 134 c 0,38,39
 133 159 133 159 116 201 c 0,40,41
 91 273 91 273 91 338 c 2,42,-1
 91 344 l 1,43,-1
 92 345 l 1,44,-1
 230 345 l 1,45,-1
 231 344 l 1,46,-1
 231 343 l 2,47,48
 231 248 231 248 295 168 c 0,49,50
 321 139 321 139 336 128 c 0,51,52
 416 66 416 66 513 66 c 2,53,-1
 514 66 l 2,54,55
 614 66 614 66 695 131 c 0,56,57
 727 159 727 159 738 175 c 0,58,59
 797 253 797 253 797 345 c 0,60,61
 797 441 797 441 734 520 c 0,62,63
 708 550 708 550 690 563 c 0,64,65
 664 582 664 582 644 593 c 0,66,67
 581 624 581 624 518 624 c 2,68,-1
 416 624 l 1,69,-1
 415 625 l 1,70,-1
 415 763 l 1,71,-1
 416 764 l 1,72,-1
 541 764 l 2,73,74
 576 767 576 767 602 776 c 0,75,76
 634 787 634 787 663 807 c 0,77,78
 678 817 678 817 702 841 c 0,79,80
 730 876 730 876 739 898 c 0,81,82
 763 947 763 947 763 1003 c 0,83,84
 763 1092 763 1092 702 1164 c 0,85,86
 673 1193 673 1193 663 1198 c 0,87,88
 601 1242 601 1242 528 1242 c 2,89,-1
 525 1242 l 2,90,91
 444 1242 444 1242 377 1187 c 0,92,93
 291 1112 291 1112 291 998 c 2,94,-1
 291 995 l 1,95,-1
 290 994 l 1,96,-1
 151 994 l 1,97,-1
 151 1005 l 2,98,99
 151 1125 151 1125 224 1229 c 0,100,101
 236 1246 236 1246 268 1279 c 0,102,103
 296 1304 296 1304 317 1318 c 0,104,105
 415 1382 415 1382 526 1382 c 0,0,1
EndSplineSet
EndChar

StartChar: four
Encoding: 52 52 23
Width: 1008
Flags: W
LayerCount: 3
Fore
SplineSet
673 1087 m 1,0,-1
 508 794 l 1,1,-1
 274 380 l 1,2,-1
 264 363 l 1,3,-1
 673 363 l 1,4,-1
 674 1087 l 1,5,-1
 673 1087 l 1,0,-1
813 1357 m 1,6,-1
 814 1356 l 1,7,-1
 814 363 l 1,8,-1
 922 363 l 1,9,-1
 922 224 l 1,10,-1
 921 223 l 1,11,-1
 813 223 l 1,12,-1
 813 -26 l 1,13,-1
 674 -26 l 1,14,-1
 673 -25 l 1,15,-1
 673 223 l 1,16,-1
 24 223 l 1,17,-1
 239 603 l 2,18,19
 451 980 451 980 455 986 c 2,20,-1
 627 1290 l 1,21,-1
 665 1357 l 1,22,-1
 813 1357 l 1,6,-1
EndSplineSet
EndChar

StartChar: five
Encoding: 53 53 24
Width: 1146
Flags: W
LayerCount: 3
Fore
SplineSet
915 1357 m 1,0,-1
 916 1356 l 1,1,-1
 916 1217 l 1,2,-1
 504 1217 l 1,3,-1
 493 1174 l 1,4,-1
 426 913 l 1,5,-1
 427 913 l 1,6,7
 482 925 482 925 538 925 c 0,8,9
 694 925 694 925 827 832 c 0,10,11
 851 816 851 816 890 779 c 0,12,13
 929 738 929 738 947 711 c 0,14,15
 1037 580 1037 580 1037 425 c 0,16,17
 1037 267 1037 267 943 133 c 0,18,19
 925 108 925 108 890 72 c 0,20,21
 848 32 848 32 821 14 c 0,22,23
 773 -18 773 -18 736 -33 c 0,24,25
 639 -74 639 -74 546 -74 c 2,26,-1
 527 -74 l 2,27,28
 440 -74 440 -74 345 -36 c 0,29,30
 304 -19 304 -19 262 8 c 0,31,32
 234 25 234 25 190 65 c 1,33,34
 148 109 148 109 136 128 c 0,35,36
 110 162 110 162 96 191 c 0,37,38
 83 214 83 214 81 222 c 1,39,-1
 208 279 l 1,40,41
 224 245 224 245 248 211 c 0,42,43
 262 193 262 193 289 166 c 0,44,45
 327 131 327 131 358 114 c 0,46,47
 443 66 443 66 534 66 c 2,48,-1
 541 66 l 2,49,50
 652 66 652 66 751 136 c 0,51,52
 768 148 768 148 799 179 c 2,53,-1
 819 202 l 2,54,55
 843 234 843 234 855 258 c 0,56,57
 897 339 897 339 897 424 c 0,58,59
 897 556 897 556 809 660 c 0,60,61
 786 686 786 686 769 700 c 0,62,63
 665 785 665 785 537 785 c 0,64,65
 435 785 435 785 342 728 c 2,66,-1
 216 656 l 1,67,-1
 317 1053 l 1,68,-1
 395 1356 l 1,69,-1
 395 1357 l 1,70,-1
 915 1357 l 1,0,-1
EndSplineSet
EndChar

StartChar: six
Encoding: 54 54 25
Width: 1155
Flags: W
LayerCount: 3
Fore
SplineSet
236 416 m 2,0,-1
 236 412 l 2,1,2
 236 300 236 300 306 204 c 0,3,4
 318 187 318 187 348 157 c 0,5,6
 451 66 451 66 579 66 c 0,7,8
 706 66 706 66 808 154 c 0,9,10
 843 189 843 189 850 200 c 0,11,12
 923 296 923 296 923 414 c 0,13,14
 923 554 923 554 823 660 c 0,15,16
 795 688 795 688 777 700 c 0,17,18
 687 763 687 763 580 763 c 0,19,20
 453 763 453 763 352 675 c 0,21,22
 321 646 321 646 312 633 c 0,23,24
 236 535 236 535 236 416 c 2,0,-1
580 1379 m 1,25,-1
 701 1309 l 1,26,-1
 456 887 l 1,27,28
 517 903 517 903 576 903 c 2,29,-1
 583 903 l 2,30,31
 724 903 724 903 850 820 c 0,32,33
 879 801 879 801 915 767 c 0,34,35
 949 733 949 733 967 708 c 0,36,37
 995 668 995 668 1009 640 c 0,38,39
 1063 531 1063 531 1063 421 c 2,40,-1
 1063 408 l 2,41,42
 1063 287 1063 287 1000 171 c 0,43,44
 982 139 982 139 951 101 c 0,45,46
 938 84 938 84 904 51 c 0,47,48
 836 -9 836 -9 758 -40 c 0,49,50
 672 -74 672 -74 579 -74 c 0,51,52
 422 -74 422 -74 289 23 c 0,53,54
 267 40 267 40 232 74 c 0,55,56
 190 121 190 121 171 152 c 0,57,58
 142 199 142 199 125 247 c 0,59,60
 96 329 96 329 96 407 c 2,61,-1
 96 422 l 2,62,63
 96 528 96 528 148 635 c 0,64,65
 161 660 161 660 245 804 c 2,66,-1
 503 1247 l 1,67,-1
 580 1379 l 1,25,-1
EndSplineSet
EndChar

StartChar: seven
Encoding: 55 55 26
Width: 939
Flags: W
LayerCount: 3
Fore
SplineSet
54 1357 m 1,0,-1
 886 1357 l 1,1,-1
 887 1356 l 1,2,-1
 887 1225 l 1,3,-1
 719 909 l 1,4,-1
 490 476 l 1,5,-1
 282 82 l 1,6,-1
 222 -32 l 1,7,-1
 221 -32 l 2,8,9
 217 -31 217 -31 98 33 c 1,10,-1
 348 507 l 1,11,-1
 536 862 l 2,12,13
 537 862 537 862 687 1147 c 0,14,15
 721 1210 721 1210 723 1217 c 1,16,-1
 54 1217 l 1,17,-1
 53 1218 l 1,18,-1
 53 1356 l 1,19,-1
 54 1357 l 1,0,-1
EndSplineSet
EndChar

StartChar: eight
Encoding: 56 56 27
Width: 1083
Flags: W
LayerCount: 3
Fore
SplineSet
239 360 m 2,0,-1
 239 359 l 2,1,2
 239 262 239 262 302 182 c 0,3,4
 328 151 328 151 350 134 c 0,5,6
 436 69 436 69 538 69 c 2,7,-1
 543 69 l 2,8,9
 654 69 654 69 744 144 c 0,10,11
 775 174 775 174 782 184 c 0,12,13
 843 264 843 264 843 360 c 0,14,15
 843 466 843 466 767 552 c 0,16,17
 735 585 735 585 718 595 c 0,18,19
 637 651 637 651 542 651 c 2,20,-1
 541 651 l 2,21,22
 428 651 428 651 338 575 c 0,23,24
 304 542 304 542 298 531 c 0,25,26
 277 506 277 506 263 474 c 0,27,28
 239 419 239 419 239 360 c 2,0,-1
314 1018 m 256,29,30
 314 927 314 927 381 857 c 1,31,32
 450 791 450 791 541 791 c 0,33,34
 637 791 637 791 707 863 c 1,35,36
 768 932 768 932 768 1015 c 2,37,-1
 768 1020 l 2,38,39
 768 1103 768 1103 707 1172 c 1,40,41
 636 1245 636 1245 541 1245 c 0,42,43
 451 1245 451 1245 381 1179 c 1,44,45
 314 1109 314 1109 314 1018 c 256,29,30
539 1385 m 2,46,-1
 544 1385 l 2,47,48
 654 1385 654 1385 751 1319 c 0,49,50
 771 1306 771 1306 804 1274 c 0,51,52
 842 1233 842 1233 855 1208 c 0,53,54
 908 1119 908 1119 908 1019 c 0,55,56
 908 889 908 889 824 783 c 0,57,58
 791 747 791 747 772 733 c 1,59,-1
 769 729 l 1,60,61
 792 717 792 717 828 688 c 0,62,63
 865 656 865 656 886 630 c 0,64,65
 983 509 983 509 983 360 c 0,66,67
 983 204 983 204 878 79 c 0,68,69
 841 40 841 40 829 32 c 0,70,71
 786 -2 786 -2 756 -18 c 0,72,73
 653 -72 653 -72 549 -72 c 2,74,-1
 533 -72 l 2,75,76
 437 -72 437 -72 339 -25 c 0,77,78
 304 -7 304 -7 265 22 c 0,79,80
 245 38 245 38 221 61 c 0,81,82
 175 112 175 112 154 152 c 0,83,84
 140 175 140 175 129 203 c 0,85,86
 99 280 99 280 99 352 c 2,87,-1
 99 367 l 2,88,89
 99 468 99 468 154 568 c 0,90,91
 213 671 213 671 314 729 c 1,92,93
 299 740 299 740 267 773 c 0,94,95
 240 806 240 806 225 831 c 0,96,97
 174 919 174 919 174 1018 c 0,98,99
 174 1149 174 1149 260 1255 c 0,100,101
 298 1296 298 1296 312 1305 c 0,102,103
 336 1324 336 1324 355 1334 c 0,104,105
 442 1385 442 1385 539 1385 c 2,46,-1
EndSplineSet
EndChar

StartChar: nine
Encoding: 57 57 28
Width: 1150
Flags: W
LayerCount: 3
Fore
SplineSet
232 897 m 2,0,-1
 232 893 l 2,1,2
 232 774 232 774 310 674 c 0,3,4
 337 642 337 642 366 619 c 0,5,6
 462 547 462 547 575 547 c 0,7,8
 698 547 698 547 798 630 c 0,9,10
 826 655 826 655 837 669 c 0,11,12
 919 770 919 770 919 895 c 2,13,-1
 919 896 l 2,14,15
 919 1022 919 1022 836 1123 c 0,16,17
 809 1154 809 1154 789 1169 c 0,18,19
 693 1244 693 1244 576 1244 c 2,20,-1
 574 1244 l 2,21,22
 453 1244 453 1244 353 1161 c 0,23,24
 320 1130 320 1130 311 1118 c 0,25,26
 232 1018 232 1018 232 897 c 2,0,-1
568 1384 m 2,27,-1
 583 1384 l 2,28,29
 693 1384 693 1384 801 1328 c 0,30,31
 837 1309 837 1309 877 1278 c 0,32,33
 923 1239 923 1239 952 1203 c 0,34,35
 988 1156 988 1156 1003 1125 c 0,36,37
 1022 1091 1022 1091 1038 1039 c 0,38,39
 1059 968 1059 968 1059 903 c 2,40,-1
 1059 889 l 2,41,42
 1059 763 1059 763 990 643 c 2,43,-1
 845 394 l 1,44,-1
 594 -38 l 1,45,-1
 584 -54 l 1,46,47
 467 14 467 14 464 17 c 1,48,-1
 685 397 l 1,49,-1
 700 422 l 1,50,-1
 700 423 l 1,51,-1
 699 423 l 1,52,53
 637 407 637 407 575 407 c 0,54,55
 418 407 418 407 285 505 c 0,56,57
 263 521 263 521 234 549 c 0,58,59
 188 598 188 598 170 629 c 0,60,61
 147 665 147 665 133 699 c 0,62,63
 92 794 92 794 92 887 c 2,64,-1
 92 904 l 2,65,66
 92 1010 92 1010 144 1118 c 0,67,68
 163 1155 163 1155 195 1197 c 0,69,70
 211 1218 211 1218 235 1242 c 0,71,72
 280 1285 280 1285 302 1298 c 0,73,74
 339 1324 339 1324 376 1341 c 0,75,76
 473 1384 473 1384 568 1384 c 2,27,-1
EndSplineSet
EndChar

StartChar: colon
Encoding: 58 58 29
Width: 538
Flags: W
LayerCount: 3
Fore
SplineSet
287 946 m 0,0,1
 330 946 330 946 362 912 c 0,2,3
 387 882 387 882 387 850 c 2,4,-1
 387 843 l 2,5,6
 387 804 387 804 354 772 c 0,7,8
 324 746 324 746 287 746 c 2,9,-1
 286 746 l 2,10,11
 235 746 235 746 202 792 c 0,12,13
 187 819 187 819 187 842 c 2,14,-1
 187 850 l 2,15,16
 187 889 187 889 220 921 c 0,17,18
 250 946 250 946 287 946 c 0,0,1
286 310 m 2,19,-1
 288 310 l 2,20,21
 331 310 331 310 363 275 c 0,22,23
 387 245 387 245 387 214 c 2,24,-1
 387 208 l 2,25,26
 387 165 387 165 350 133 c 0,27,28
 322 110 322 110 286 110 c 0,29,30
 248 110 248 110 217 138 c 0,31,32
 187 170 187 170 187 206 c 2,33,-1
 187 214 l 2,34,35
 187 252 187 252 220 284 c 0,36,37
 249 310 249 310 286 310 c 2,19,-1
EndSplineSet
EndChar

StartChar: semicolon
Encoding: 59 59 30
AltUni2: 00037e.ffffffff.0
Width: 533
Flags: W
LayerCount: 3
Fore
SplineSet
266 319 m 1,0,-1
 382 241 l 1,1,-1
 382 240 l 1,2,-1
 235 24 l 1,3,-1
 234 24 l 1,4,-1
 119 102 l 1,5,-1
 119 103 l 1,6,7
 262 314 262 314 266 319 c 1,0,-1
264 946 m 0,8,9
 307 946 307 946 339 912 c 0,10,11
 364 882 364 882 364 850 c 2,12,-1
 364 843 l 2,13,14
 364 804 364 804 331 772 c 0,15,16
 301 746 301 746 264 746 c 2,17,-1
 263 746 l 2,18,19
 212 746 212 746 179 792 c 0,20,21
 164 819 164 819 164 842 c 2,22,-1
 164 850 l 2,23,24
 164 889 164 889 197 921 c 0,25,26
 227 946 227 946 264 946 c 0,8,9
EndSplineSet
EndChar

StartChar: less
Encoding: 60 60 31
Width: 920
Flags: W
LayerCount: 3
Fore
SplineSet
638 1105 m 1,0,-1
 727 996 l 1,1,-1
 378 712 l 1,2,-1
 263 617 l 1,3,-1
 378 524 l 1,4,-1
 727 238 l 1,5,-1
 638 130 l 1,6,-1
 296 409 l 1,7,-1
 116 557 l 1,8,-1
 116 678 l 1,9,10
 121 683 121 683 361 878 c 2,11,-1
 638 1105 l 1,0,-1
EndSplineSet
EndChar

StartChar: equal
Encoding: 61 61 32
Width: 839
Flags: W
LayerCount: 3
Fore
SplineSet
94 845 m 1,0,-1
 744 845 l 1,1,-1
 744 705 l 1,2,-1
 94 705 l 1,3,-1
 94 845 l 1,0,-1
94 515 m 1,4,-1
 744 515 l 1,5,-1
 744 375 l 1,6,-1
 94 375 l 1,7,-1
 94 515 l 1,4,-1
EndSplineSet
EndChar

StartChar: greater
Encoding: 62 62 33
Width: 920
Flags: W
LayerCount: 3
Fore
SplineSet
559 878 m 2,0,1
 799 683 799 683 804 678 c 1,2,-1
 804 557 l 1,3,-1
 624 409 l 1,4,-1
 282 130 l 1,5,-1
 193 238 l 1,6,-1
 542 524 l 1,7,-1
 657 617 l 1,8,-1
 542 712 l 1,9,-1
 193 996 l 1,10,-1
 282 1105 l 1,11,-1
 559 878 l 2,0,1
EndSplineSet
EndChar

StartChar: question
Encoding: 63 63 34
Width: 1025
Flags: W
LayerCount: 3
Fore
SplineSet
522 200 m 2,0,-1
 523 200 l 2,1,2
 575 200 575 200 608 153 c 0,3,4
 623 127 623 127 623 102 c 2,5,-1
 623 98 l 2,6,7
 623 55 623 55 586 23 c 0,8,9
 558 0 558 0 522 0 c 0,10,11
 480 0 480 0 449 32 c 0,12,13
 423 62 423 62 423 100 c 0,14,15
 423 149 423 149 464 181 c 0,16,17
 491 200 491 200 522 200 c 2,0,-1
525 1503 m 2,18,-1
 539 1503 l 2,19,20
 638 1503 638 1503 734 1446 c 0,21,22
 760 1431 760 1431 799 1396 c 0,23,24
 842 1352 842 1352 854 1331 c 0,25,26
 879 1297 879 1297 897 1254 c 0,27,28
 931 1169 931 1169 931 1090 c 2,29,-1
 931 1077 l 2,30,31
 931 990 931 990 887 893 c 0,32,33
 869 856 869 856 840 817 c 0,34,35
 827 798 827 798 794 765 c 0,36,37
 756 729 756 729 708 696 c 0,38,39
 671 669 671 669 635 637 c 0,40,41
 592 598 592 598 592 553 c 2,42,-1
 593 427 l 1,43,-1
 593 308 l 1,44,-1
 592 307 l 1,45,-1
 453 307 l 1,46,-1
 452 465 l 1,47,-1
 452 550 l 2,48,49
 452 658 452 658 536 737 c 0,50,51
 579 776 579 776 630 812 c 0,52,53
 669 840 669 840 697 866 c 0,54,55
 732 902 732 902 739 917 c 0,56,57
 756 942 756 942 769 972 c 0,58,59
 791 1030 791 1030 791 1082 c 2,60,-1
 791 1083 l 2,61,62
 791 1190 791 1190 720 1275 c 0,63,64
 689 1308 689 1308 678 1314 c 0,65,66
 611 1363 611 1363 533 1363 c 2,67,-1
 531 1363 l 2,68,69
 440 1363 440 1363 364 1296 c 0,70,71
 333 1265 333 1265 324 1249 c 0,72,73
 273 1173 273 1173 273 1084 c 2,74,-1
 273 1048 l 1,75,-1
 272 1047 l 1,76,-1
 134 1047 l 1,77,-1
 133 1048 l 1,78,-1
 133 1090 l 2,79,80
 133 1191 133 1191 185 1292 c 0,81,82
 198 1315 198 1315 224 1350 c 0,83,84
 235 1366 235 1366 267 1397 c 0,85,86
 305 1431 305 1431 335 1448 c 0,87,88
 429 1503 429 1503 525 1503 c 2,18,-1
EndSplineSet
EndChar

StartChar: at
Encoding: 64 64 35
Width: 1759
Flags: W
LayerCount: 3
Fore
SplineSet
879 1411 m 0,0,1
 1097 1411 1097 1411 1282 1285 c 0,2,3
 1316 1262 1316 1262 1361 1220 c 0,4,5
 1408 1175 1408 1175 1418 1161 c 0,6,7
 1452 1120 1452 1120 1471 1090 c 0,8,9
 1584 912 1584 912 1584 706 c 0,10,11
 1584 505 1584 505 1476 330 c 0,12,13
 1452 291 1452 291 1410 242 c 0,14,15
 1366 194 1366 194 1337 170 c 0,16,17
 1292 133 1292 133 1260 112 c 0,18,19
 1082 1 1082 1 879 1 c 0,20,21
 674 1 674 1 495 115 c 0,22,23
 457 140 457 140 409 181 c 0,24,25
 359 229 359 229 348 243 c 0,26,27
 300 301 300 301 279 337 c 0,28,29
 252 380 252 380 231 429 c 0,30,31
 175 564 175 564 175 697 c 2,32,-1
 175 716 l 2,33,34
 175 849 175 849 232 986 c 0,35,36
 256 1040 256 1040 294 1100 c 0,37,38
 317 1133 317 1133 354 1176 c 0,39,40
 401 1226 401 1226 421 1241 c 0,41,42
 472 1284 472 1284 513 1308 c 0,43,44
 684 1411 684 1411 879 1411 c 0,0,1
315 707 m 2,45,-1
 315 704 l 2,46,47
 315 532 315 532 416 383 c 0,48,49
 435 356 435 356 466 322 c 0,50,51
 501 286 501 286 517 274 c 0,52,53
 555 242 555 242 592 220 c 0,54,55
 728 142 728 142 877 142 c 2,56,-1
 882 142 l 2,57,58
 1045 142 1045 142 1188 234 c 0,59,60
 1210 247 1210 247 1240 272 c 0,61,62
 1255 283 1255 283 1296 324 c 1,63,-1
 1313 345 l 2,64,65
 1347 386 1347 386 1367 422 c 0,66,67
 1444 556 1444 556 1444 706 c 0,68,69
 1444 884 1444 884 1338 1036 c 0,70,71
 1319 1063 1319 1063 1280 1104 c 0,72,73
 1232 1150 1232 1150 1201 1170 c 0,74,75
 1053 1271 1053 1271 879 1271 c 0,76,77
 703 1271 703 1271 553 1167 c 0,78,79
 528 1151 528 1151 482 1107 c 0,80,81
 440 1064 440 1064 424 1039 c 0,82,83
 401 1008 401 1008 384 976 c 0,84,85
 315 849 315 849 315 707 c 2,45,-1
651 703 m 2,86,-1
 651 698 l 2,87,88
 651 618 651 618 698 557 c 0,89,90
 722 531 722 531 731 527 c 0,91,92
 766 504 766 504 801 504 c 2,93,-1
 809 504 l 2,94,95
 862 504 862 504 916 552 c 0,96,97
 946 584 946 584 958 608 c 0,98,99
 991 671 991 671 991 736 c 2,100,-1
 991 741 l 2,101,102
 991 810 991 810 954 867 c 0,103,104
 906 936 906 936 836 936 c 0,105,106
 769 936 769 936 710 870 c 0,107,108
 688 842 688 842 679 821 c 0,109,110
 651 762 651 762 651 703 c 2,86,-1
836 1076 m 2,111,-1
 837 1076 l 2,112,113
 949 1076 949 1076 1034 991 c 0,114,115
 1067 956 1067 956 1083 926 c 0,116,117
 1089 914 1089 914 1091 912 c 2,118,-1
 1117 978 l 1,119,-1
 1118 978 l 1,120,121
 1244 928 1244 928 1248 925 c 1,122,123
 1085 524 1085 524 1079 508 c 1,124,-1
 1078 495 l 2,125,126
 1078 477 1078 477 1102 469 c 1,127,128
 1119 469 1119 469 1156 515 c 1,129,-1
 1157 517 l 1,130,-1
 1158 517 l 1,131,-1
 1265 428 l 1,132,133
 1190 328 1190 328 1103 328 c 0,134,135
 1041 328 1041 328 986 378 c 0,136,137
 966 400 966 400 961 410 c 1,138,139
 886 363 886 363 806 363 c 0,140,141
 696 363 696 363 611 444 c 0,142,143
 580 477 580 477 572 493 c 0,144,145
 510 585 510 585 510 701 c 0,146,147
 510 812 510 812 569 913 c 0,148,149
 584 939 584 939 611 969 c 0,150,151
 644 1004 644 1004 653 1009 c 0,152,153
 738 1076 738 1076 836 1076 c 2,111,-1
EndSplineSet
EndChar

StartChar: A
Encoding: 65 65 36
Width: 1033
Flags: W
LayerCount: 3
Fore
SplineSet
405 771 m 1,0,-1
 347 572 l 1,1,-1
 715 572 l 1,2,-1
 577 1046 l 1,3,-1
 531 1205 l 1,4,-1
 405 771 l 1,0,-1
601 1464 m 1,5,-1
 740 989 l 1,6,-1
 901 433 l 1,7,-1
 1027 0 l 1,8,-1
 881 0 l 1,9,-1
 869 40 l 1,10,-1
 755 432 l 1,11,-1
 306 432 l 1,12,-1
 181 0 l 1,13,-1
 36 0 l 1,14,-1
 35 1 l 1,15,-1
 197 559 l 1,16,-1
 324 997 l 1,17,-1
 460 1464 l 1,18,-1
 601 1464 l 1,5,-1
EndSplineSet
EndChar

StartChar: B
Encoding: 66 66 37
Width: 1128
Flags: W
LayerCount: 3
Fore
SplineSet
312 1324 m 1,0,-1
 312 835 l 1,1,-1
 629 835 l 2,2,3
 687 835 687 835 748 870 c 0,4,5
 821 914 821 914 851 994 c 0,6,7
 864 1033 864 1033 864 1071 c 2,8,-1
 864 1111 l 2,9,10
 864 1214 864 1214 776 1278 c 0,11,12
 708 1324 708 1324 625 1324 c 2,13,-1
 312 1324 l 1,0,-1
312 695 m 1,14,-1
 312 140 l 1,15,-1
 626 140 l 2,16,17
 741 140 741 140 815 206 c 0,18,19
 834 224 834 224 847 239 c 0,20,21
 899 308 899 308 899 394 c 2,22,-1
 899 463 l 2,23,24
 899 579 899 579 807 646 c 0,25,26
 779 664 779 664 758 673 c 0,27,28
 699 695 699 695 641 695 c 2,29,-1
 312 695 l 1,14,-1
173 1464 m 1,30,-1
 630 1464 l 2,31,32
 724 1464 724 1464 816 1419 c 0,33,34
 845 1404 845 1404 875 1379 c 0,35,36
 910 1352 910 1352 934 1320 c 0,37,38
 959 1286 959 1286 970 1262 c 0,39,40
 981 1240 981 1240 992 1204 c 0,41,42
 1004 1162 1004 1162 1004 1091 c 0,43,44
 1004 1018 1004 1018 992 975 c 0,45,46
 984 948 984 948 974 926 c 0,47,48
 962 895 962 895 939 862 c 0,49,50
 927 842 927 842 893 806 c 0,51,52
 879 792 879 792 861 778 c 1,53,54
 888 762 888 762 918 736 c 0,55,56
 945 714 945 714 963 690 c 0,57,58
 982 665 982 665 998 636 c 0,59,60
 1039 553 1039 553 1039 470 c 2,61,-1
 1039 388 l 2,62,63
 1039 297 1039 297 992 206 c 0,64,65
 974 174 974 174 948 141 c 0,66,67
 917 106 917 106 893 88 c 0,68,69
 778 0 778 0 635 0 c 2,70,-1
 173 0 l 1,71,-1
 172 1 l 1,72,-1
 172 1463 l 1,73,-1
 173 1464 l 1,30,-1
EndSplineSet
EndChar

StartChar: C
Encoding: 67 67 38
Width: 1041
Flags: W
LayerCount: 3
Fore
SplineSet
468 1484 m 2,0,-1
 604 1484 l 2,1,2
 686 1484 686 1484 767 1441 c 0,3,4
 877 1379 877 1379 932 1242 c 0,5,6
 975 1133 975 1133 975 989 c 1,7,-1
 836 989 l 2,8,9
 834 989 834 989 834 991 c 2,10,-1
 834 999 l 2,11,12
 834 1119 834 1119 793 1212 c 0,13,14
 780 1239 780 1239 758 1268 c 0,15,16
 694 1344 694 1344 597 1344 c 2,17,-1
 475 1344 l 2,18,19
 363 1344 363 1344 298 1246 c 0,20,21
 237 1150 237 1150 237 991 c 2,22,-1
 237 471 l 2,23,24
 237 322 237 322 292 227 c 0,25,26
 303 206 303 206 329 178 c 0,27,28
 361 150 361 150 377 143 c 0,29,30
 418 120 418 120 485 120 c 2,31,-1
 587 120 l 2,32,33
 660 120 660 120 706 150 c 0,34,35
 774 191 774 191 809 293 c 0,36,37
 834 373 834 373 834 464 c 2,38,-1
 834 472 l 2,39,40
 835 474 835 474 836 474 c 2,41,-1
 974 474 l 2,42,43
 975 474 975 474 975 473 c 0,44,45
 975 234 975 234 858 97 c 1,46,47
 752 -20 752 -20 595 -20 c 2,48,-1
 477 -20 l 2,49,50
 322 -20 322 -20 217 93 c 0,51,52
 186 129 186 129 173 152 c 0,53,54
 153 186 153 186 140 220 c 0,55,56
 97 332 97 332 97 462 c 2,57,-1
 97 999 l 2,58,59
 97 1169 97 1169 164 1296 c 0,60,61
 175 1317 175 1317 201 1351 c 0,62,63
 212 1367 212 1367 243 1397 c 0,64,65
 266 1417 266 1417 285 1430 c 0,66,67
 373 1484 373 1484 468 1484 c 2,0,-1
EndSplineSet
EndChar

StartChar: D
Encoding: 68 68 39
Width: 1156
Flags: W
LayerCount: 3
Fore
SplineSet
173 1464 m 1,0,-1
 708 1464 l 2,1,2
 795 1464 795 1464 876 1416 c 0,3,4
 977 1351 977 1351 1026 1221 c 0,5,6
 1039 1184 1039 1184 1050 1131 c 0,7,8
 1063 1060 1063 1060 1063 997 c 2,9,-1
 1063 465 l 2,10,11
 1063 355 1063 355 1029 250 c 0,12,13
 1011 203 1011 203 990 166 c 0,14,15
 974 140 974 140 949 110 c 0,16,17
 923 82 923 82 905 68 c 0,18,19
 856 33 856 33 820 21 c 0,20,21
 763 0 763 0 712 0 c 2,22,-1
 173 0 l 1,23,-1
 172 1 l 1,24,-1
 172 1463 l 1,25,-1
 173 1464 l 1,0,-1
312 1324 m 1,26,-1
 312 140 l 1,27,-1
 705 140 l 2,28,29
 785 140 785 140 841 200 c 0,30,31
 877 240 877 240 896 296 c 0,32,33
 923 376 923 376 923 472 c 2,34,-1
 923 990 l 2,35,36
 923 1128 923 1128 870 1222 c 0,37,38
 809 1324 809 1324 703 1324 c 2,39,-1
 312 1324 l 1,26,-1
EndSplineSet
EndChar

StartChar: E
Encoding: 69 69 40
Width: 989
Flags: W
LayerCount: 3
Fore
SplineSet
173 1464 m 1,0,-1
 880 1464 l 1,1,-1
 881 1463 l 1,2,-1
 881 1324 l 1,3,-1
 312 1324 l 1,4,-1
 312 802 l 1,5,-1
 773 802 l 1,6,-1
 774 801 l 1,7,-1
 774 663 l 1,8,-1
 773 662 l 1,9,-1
 312 662 l 1,10,-1
 312 140 l 1,11,-1
 880 140 l 1,12,-1
 881 139 l 1,13,-1
 881 1 l 1,14,-1
 880 0 l 1,15,-1
 173 0 l 1,16,-1
 172 1 l 1,17,-1
 172 1463 l 1,18,-1
 173 1464 l 1,0,-1
EndSplineSet
EndChar

StartChar: F
Encoding: 70 70 41
Width: 930
Flags: W
LayerCount: 3
Fore
SplineSet
173 1464 m 1,0,-1
 880 1464 l 1,1,-1
 881 1463 l 1,2,-1
 881 1325 l 1,3,-1
 880 1324 l 1,4,-1
 312 1324 l 1,5,-1
 312 802 l 1,6,-1
 773 802 l 1,7,-1
 774 801 l 1,8,-1
 774 663 l 1,9,-1
 773 662 l 1,10,-1
 312 662 l 1,11,-1
 312 1 l 1,12,-1
 311 0 l 1,13,-1
 173 0 l 1,14,-1
 172 1 l 1,15,-1
 172 1463 l 1,16,-1
 173 1464 l 1,0,-1
EndSplineSet
EndChar

StartChar: G
Encoding: 71 71 42
Width: 1117
Flags: W
LayerCount: 3
Fore
SplineSet
462 1484 m 2,0,-1
 597 1484 l 2,1,2
 694 1484 694 1484 782 1428 c 0,3,4
 874 1366 874 1366 923 1249 c 0,5,6
 969 1138 969 1138 969 989 c 1,7,-1
 830 989 l 1,8,-1
 828 990 l 1,9,-1
 828 999 l 2,10,11
 828 1125 828 1125 782 1221 c 1,12,13
 716 1344 716 1344 590 1344 c 2,14,-1
 469 1344 l 2,15,16
 347 1344 347 1344 281 1227 c 0,17,18
 231 1133 231 1133 231 991 c 2,19,-1
 231 471 l 2,20,21
 231 325 231 325 284 230 c 0,22,23
 296 208 296 208 321 181 c 0,24,25
 381 120 381 120 468 120 c 2,26,-1
 591 120 l 2,27,28
 700 120 700 120 765 214 c 0,29,30
 786 245 786 245 799 281 c 0,31,32
 807 301 807 301 816 340 c 0,33,34
 829 394 829 394 829 502 c 2,35,-1
 829 546 l 1,36,-1
 613 546 l 1,37,-1
 612 547 l 1,38,-1
 612 685 l 1,39,-1
 613 686 l 1,40,-1
 968 686 l 1,41,-1
 969 685 l 1,42,-1
 969 481 l 2,43,44
 969 170 969 170 791 41 c 0,45,46
 757 19 757 19 726 6 c 0,47,48
 660 -20 660 -20 598 -20 c 2,49,-1
 463 -20 l 2,50,51
 367 -20 367 -20 280 34 c 0,52,53
 176 102 176 102 126 240 c 0,54,55
 91 344 91 344 91 462 c 2,56,-1
 91 999 l 2,57,58
 91 1160 91 1160 153 1285 c 0,59,60
 168 1316 168 1316 194 1350 c 0,61,62
 204 1365 204 1365 236 1396 c 0,63,64
 272 1426 272 1426 295 1439 c 0,65,66
 348 1468 348 1468 391 1476 c 0,67,68
 428 1484 428 1484 462 1484 c 2,0,-1
EndSplineSet
EndChar

StartChar: H
Encoding: 72 72 43
Width: 1292
Flags: W
LayerCount: 3
Fore
SplineSet
173 1464 m 1,0,-1
 311 1464 l 1,1,-1
 312 1463 l 1,2,-1
 312 802 l 1,3,-1
 980 802 l 1,4,-1
 980 1463 l 1,5,-1
 980 1464 l 1,6,-1
 1119 1464 l 1,7,-1
 1120 1463 l 1,8,-1
 1120 1 l 1,9,-1
 1119 0 l 1,10,-1
 980 0 l 1,11,-1
 980 1 l 1,12,-1
 980 662 l 1,13,-1
 312 662 l 1,14,-1
 312 1 l 1,15,-1
 311 0 l 1,16,-1
 173 0 l 1,17,-1
 172 1 l 1,18,-1
 172 1463 l 1,19,-1
 173 1464 l 1,0,-1
EndSplineSet
EndChar

StartChar: I
Encoding: 73 73 44
Width: 484
Flags: W
LayerCount: 3
Fore
SplineSet
173 1464 m 1,0,-1
 311 1464 l 1,1,-1
 312 1463 l 1,2,-1
 312 1 l 1,3,-1
 311 0 l 1,4,-1
 173 0 l 1,5,-1
 172 1 l 1,6,-1
 172 1463 l 1,7,-1
 173 1464 l 1,0,-1
EndSplineSet
EndChar

StartChar: J
Encoding: 74 74 45
Width: 998
Flags: W
LayerCount: 3
Fore
SplineSet
690 1464 m 1,0,-1
 828 1464 l 1,1,-1
 829 1463 l 1,2,-1
 829 410 l 2,3,4
 829 258 829 258 738 131 c 0,5,6
 724 112 724 112 693 81 c 0,7,8
 655 45 655 45 630 31 c 0,9,10
 601 13 601 13 567 0 c 0,11,12
 512 -20 512 -20 465 -20 c 2,13,-1
 370 -20 l 2,14,15
 308 -20 308 -20 236 14 c 0,16,17
 111 78 111 78 47 220 c 0,18,19
 7 313 7 313 7 401 c 2,20,-1
 7 483 l 1,21,-1
 8 484 l 1,22,-1
 146 484 l 1,23,-1
 147 483 l 1,24,-1
 147 408 l 2,25,26
 147 302 147 302 214 210 c 1,27,28
 246 173 246 173 265 160 c 0,29,30
 321 120 321 120 376 120 c 2,31,-1
 459 120 l 2,32,33
 524 120 524 120 586 173 c 0,34,35
 616 201 616 201 624 214 c 0,36,37
 689 301 689 301 689 417 c 2,38,-1
 689 1463 l 1,39,-1
 690 1464 l 1,0,-1
EndSplineSet
EndChar

StartChar: K
Encoding: 75 75 46
Width: 1100
Flags: W
LayerCount: 3
Fore
SplineSet
173 1464 m 1,0,-1
 311 1464 l 1,1,-1
 312 1463 l 1,2,-1
 312 746 l 1,3,-1
 548 1070 l 2,4,5
 772 1377 772 1377 776 1384 c 2,6,-1
 834 1464 l 1,7,-1
 1008 1464 l 1,8,-1
 712 1056 l 1,9,-1
 562 851 l 1,10,-1
 788 459 l 1,11,-1
 1026 46 l 1,12,-1
 1052 0 l 1,13,-1
 891 0 l 2,14,15
 889 3 889 3 865 44 c 2,16,-1
 657 407 l 2,17,18
 644 427 644 427 472 727 c 1,19,20
 469 724 469 724 312 507 c 1,21,-1
 312 1 l 1,22,-1
 311 0 l 1,23,-1
 173 0 l 1,24,-1
 172 1 l 1,25,-1
 172 1463 l 1,26,-1
 173 1464 l 1,0,-1
EndSplineSet
EndChar

StartChar: L
Encoding: 76 76 47
Width: 938
Flags: W
LayerCount: 3
Fore
SplineSet
173 1464 m 1,0,-1
 311 1464 l 1,1,-1
 312 1463 l 1,2,-1
 312 140 l 1,3,-1
 919 140 l 1,4,-1
 920 139 l 1,5,-1
 920 1 l 1,6,-1
 919 0 l 1,7,-1
 173 0 l 1,8,-1
 172 1 l 1,9,-1
 172 1463 l 1,10,-1
 173 1464 l 1,0,-1
EndSplineSet
EndChar

StartChar: M
Encoding: 77 77 48
Width: 1433
Flags: W
LayerCount: 3
Fore
SplineSet
173 1464 m 1,0,-1
 334 1464 l 1,1,2
 340 1453 340 1453 533 1091 c 2,3,-1
 717 746 l 1,4,-1
 912 1113 l 1,5,-1
 1099 1464 l 1,6,-1
 1261 1464 l 1,7,-1
 1261 0 l 1,8,-1
 1122 0 l 1,9,-1
 1121 1 l 1,10,-1
 1121 1207 l 1,11,-1
 909 809 l 1,12,-1
 774 555 l 1,13,-1
 660 555 l 1,14,15
 657 559 657 559 522 813 c 2,16,-1
 312 1207 l 1,17,-1
 312 1 l 1,18,-1
 311 0 l 1,19,-1
 173 0 l 1,20,-1
 172 1 l 1,21,-1
 172 1463 l 1,22,-1
 173 1464 l 1,0,-1
EndSplineSet
EndChar

StartChar: N
Encoding: 78 78 49
Width: 1291
Flags: W
LayerCount: 3
Fore
SplineSet
173 1464 m 1,0,-1
 336 1464 l 2,1,2
 338 1462 338 1462 437 1276 c 2,3,-1
 674 828 l 1,4,-1
 903 396 l 2,5,6
 908 388 908 388 979 253 c 1,7,-1
 979 1463 l 1,8,-1
 980 1464 l 1,9,-1
 1119 1464 l 1,10,-1
 1119 0 l 1,11,-1
 955 0 l 2,12,13
 954 1 954 1 935 37 c 2,14,-1
 692 494 l 1,15,-1
 482 891 l 1,16,-1
 312 1211 l 1,17,-1
 312 1 l 1,18,-1
 311 0 l 1,19,-1
 173 0 l 1,20,-1
 172 1 l 1,21,-1
 172 1463 l 1,22,-1
 173 1464 l 1,0,-1
EndSplineSet
EndChar

StartChar: O
Encoding: 79 79 50
Width: 1066
Flags: W
LayerCount: 3
Fore
SplineSet
470 1483 m 2,0,-1
 604 1483 l 2,1,2
 691 1483 691 1483 773 1437 c 0,3,4
 882 1373 882 1373 935 1238 c 0,5,6
 976 1132 976 1132 976 980 c 2,7,-1
 976 481 l 2,8,9
 976 170 976 170 798 41 c 0,10,11
 765 19 765 19 734 6 c 0,12,13
 668 -20 668 -20 605 -20 c 2,14,-1
 471 -20 l 2,15,16
 374 -20 374 -20 287 34 c 0,17,18
 184 102 184 102 134 240 c 0,19,20
 99 344 99 344 99 462 c 2,21,-1
 99 998 l 2,22,23
 99 1160 99 1160 161 1284 c 0,24,25
 176 1315 176 1315 202 1349 c 0,26,27
 212 1364 212 1364 244 1395 c 0,28,29
 280 1425 280 1425 303 1438 c 0,30,31
 356 1467 356 1467 399 1475 c 0,32,33
 435 1483 435 1483 470 1483 c 2,0,-1
239 991 m 2,34,-1
 239 471 l 2,35,36
 239 325 239 325 292 230 c 0,37,38
 303 208 303 208 329 181 c 0,39,40
 389 120 389 120 476 120 c 2,41,-1
 599 120 l 2,42,43
 708 120 708 120 773 214 c 0,44,45
 794 245 794 245 807 281 c 0,46,47
 814 301 814 301 823 340 c 0,48,49
 836 395 836 395 836 501 c 2,50,-1
 836 950 l 2,51,52
 836 1055 836 1055 828 1097 c 0,53,54
 822 1131 822 1131 814 1157 c 0,55,56
 801 1201 801 1201 785 1228 c 0,57,58
 720 1343 720 1343 598 1343 c 2,59,-1
 476 1343 l 2,60,61
 355 1343 355 1343 289 1227 c 0,62,63
 239 1132 239 1132 239 991 c 2,34,-1
EndSplineSet
EndChar

StartChar: P
Encoding: 80 80 51
Width: 1056
Flags: W
LayerCount: 3
Fore
SplineSet
173 1464 m 1,0,-1
 579 1464 l 2,1,2
 680 1464 680 1464 780 1412 c 0,3,4
 810 1396 810 1396 845 1369 c 0,5,6
 886 1333 886 1333 906 1306 c 0,7,8
 930 1274 930 1274 945 1248 c 0,9,10
 995 1149 995 1149 995 1049 c 2,11,-1
 995 1005 l 2,12,13
 995 902 995 902 944 798 c 0,14,15
 928 766 928 766 903 732 c 0,16,17
 890 713 890 713 851 673 c 0,18,19
 727 562 727 562 568 562 c 2,20,-1
 312 562 l 1,21,-1
 312 1 l 1,22,-1
 311 0 l 1,23,-1
 173 0 l 1,24,-1
 172 1 l 1,25,-1
 172 1463 l 1,26,-1
 173 1464 l 1,0,-1
312 1324 m 1,27,-1
 312 702 l 1,28,-1
 558 702 l 2,29,30
 625 702 625 702 669 721 c 0,31,32
 711 737 711 737 754 776 c 0,33,34
 785 806 785 806 796 823 c 0,35,36
 855 909 855 909 855 1010 c 2,37,-1
 855 1042 l 2,38,39
 855 1146 855 1146 791 1225 c 0,40,41
 766 1253 766 1253 750 1264 c 0,42,43
 672 1324 672 1324 572 1324 c 2,44,-1
 312 1324 l 1,27,-1
EndSplineSet
EndChar

StartChar: Q
Encoding: 81 81 52
Width: 1206
Flags: W
LayerCount: 3
Fore
SplineSet
822 136 m 1,0,-1
 822 137 l 1,1,-1
 823 137 l 1,2,3
 875 159 875 159 913 214 c 0,4,5
 934 245 934 245 947 281 c 0,6,7
 954 301 954 301 963 340 c 0,8,9
 976 395 976 395 976 501 c 2,10,-1
 976 950 l 2,11,12
 976 1055 976 1055 968 1097 c 0,13,14
 962 1131 962 1131 954 1157 c 0,15,16
 941 1201 941 1201 925 1228 c 0,17,18
 860 1343 860 1343 738 1343 c 2,19,-1
 616 1343 l 2,20,21
 495 1343 495 1343 429 1227 c 0,22,23
 379 1132 379 1132 379 991 c 2,24,-1
 379 471 l 2,25,26
 379 325 379 325 432 230 c 0,27,28
 443 208 443 208 469 181 c 0,29,30
 529 120 529 120 616 120 c 2,31,-1
 739 120 l 2,32,33
 784 120 784 120 822 136 c 1,0,-1
939 42 m 1,34,35
 952 19 952 19 977 -9 c 0,36,37
 1012 -43 1012 -43 1025 -50 c 0,38,39
 1053 -70 1053 -70 1100 -83 c 1,40,-1
 1100 -226 l 1,41,-1
 1099 -227 l 1,42,43
 1073 -226 1073 -226 1016 -204 c 0,44,45
 978 -188 978 -188 937 -160 c 0,46,47
 916 -145 916 -145 884 -114 c 2,48,-1
 869 -98 l 2,49,50
 837 -60 837 -60 822 -34 c 2,51,-1
 811 -13 l 1,52,53
 778 -20 778 -20 745 -20 c 2,54,-1
 611 -20 l 2,55,56
 514 -20 514 -20 427 34 c 0,57,58
 324 102 324 102 274 240 c 0,59,60
 239 344 239 344 239 462 c 2,61,-1
 239 998 l 2,62,63
 239 1160 239 1160 301 1284 c 0,64,65
 316 1315 316 1315 342 1349 c 0,66,67
 352 1364 352 1364 384 1395 c 0,68,69
 420 1425 420 1425 443 1438 c 0,70,71
 496 1467 496 1467 539 1475 c 0,72,73
 575 1483 575 1483 610 1483 c 2,74,-1
 744 1483 l 2,75,76
 831 1483 831 1483 913 1437 c 0,77,78
 1022 1373 1022 1373 1075 1238 c 0,79,80
 1116 1132 1116 1132 1116 980 c 2,81,-1
 1116 481 l 2,82,83
 1116 171 1116 171 939 42 c 1,34,35
EndSplineSet
EndChar

StartChar: R
Encoding: 82 82 53
Width: 1080
Flags: W
LayerCount: 3
Fore
SplineSet
312 1324 m 1,0,-1
 312 702 l 1,1,-1
 558 702 l 2,2,3
 625 702 625 702 668 721 c 0,4,5
 711 737 711 737 754 776 c 0,6,7
 785 806 785 806 795 823 c 0,8,9
 855 909 855 909 855 1010 c 2,10,-1
 855 1042 l 2,11,12
 855 1146 855 1146 791 1225 c 0,13,14
 764 1255 764 1255 749 1265 c 0,15,16
 671 1324 671 1324 572 1324 c 2,17,-1
 312 1324 l 1,0,-1
173 1464 m 1,18,-1
 578 1464 l 2,19,20
 683 1464 683 1464 784 1410 c 0,21,22
 915 1335 915 1335 968 1195 c 0,23,24
 979 1169 979 1169 988 1123 c 0,25,26
 995 1085 995 1085 995 1027 c 0,27,28
 995 930 995 930 970 860 c 0,29,30
 957 822 957 822 940 791 c 0,31,32
 868 658 868 658 735 597 c 1,33,-1
 947 134 l 2,34,35
 1005 10 1005 10 1008 0 c 1,36,-1
 855 0 l 2,37,38
 853 3 853 3 723 286 c 2,39,-1
 596 563 l 1,40,41
 586 562 586 562 568 562 c 2,42,-1
 312 562 l 1,43,-1
 312 1 l 1,44,-1
 311 0 l 1,45,-1
 173 0 l 1,46,-1
 172 1 l 1,47,-1
 172 1463 l 1,48,-1
 173 1464 l 1,18,-1
EndSplineSet
EndChar

StartChar: S
Encoding: 83 83 54
Width: 1047
Flags: W
LayerCount: 3
Fore
SplineSet
530 1482 m 2,0,-1
 546 1482 l 2,1,2
 639 1482 639 1482 732 1438 c 0,3,4
 764 1422 764 1422 800 1397 c 0,5,6
 821 1381 821 1381 857 1346 c 0,7,8
 857 1345 857 1345 866 1337 c 0,9,10
 894 1305 894 1305 911 1280 c 0,11,12
 933 1246 933 1246 940 1229 c 1,13,-1
 813 1171 l 1,14,-1
 812 1171 l 1,15,16
 800 1198 800 1198 764 1241 c 0,17,18
 670 1342 670 1342 539 1342 c 2,19,-1
 536 1342 l 2,20,21
 428 1342 428 1342 349 1285 c 0,22,23
 336 1275 336 1275 313 1252 c 0,24,25
 286 1221 286 1221 275 1197 c 0,26,27
 244 1137 244 1137 244 1074 c 2,28,-1
 244 1067 l 2,29,30
 244 973 244 973 313 922 c 0,31,32
 344 898 344 898 385 879 c 0,33,34
 478 835 478 835 671 791 c 0,35,36
 721 777 721 777 755 760 c 0,37,38
 790 744 790 744 826 717 c 0,39,40
 842 705 842 705 873 675 c 1,41,-1
 894 649 l 1,42,43
 973 544 973 544 973 409 c 0,44,45
 973 297 973 297 916 193 c 0,46,47
 844 67 844 67 700 11 c 0,48,49
 615 -20 615 -20 537 -20 c 2,50,-1
 519 -20 l 2,51,52
 415 -20 415 -20 310 32 c 0,53,54
 277 49 277 49 239 78 c 0,55,56
 221 90 221 90 186 125 c 0,57,58
 149 165 149 165 132 191 c 0,59,60
 102 233 102 233 78 285 c 0,61,62
 71 300 71 300 71 302 c 2,63,-1
 200 357 l 1,64,65
 217 314 217 314 247 270 c 0,66,67
 263 248 263 248 290 219 c 0,68,69
 319 192 319 192 341 177 c 0,70,71
 427 120 427 120 525 120 c 2,72,-1
 530 120 l 2,73,74
 627 120 627 120 713 175 c 0,75,76
 777 219 777 219 808 291 c 0,77,78
 833 350 833 350 833 407 c 2,79,-1
 833 413 l 2,80,81
 833 512 833 512 766 584 c 0,82,83
 733 614 733 614 710 625 c 0,84,85
 689 638 689 638 651 651 c 0,86,87
 623 658 623 658 543 678 c 0,88,89
 388 719 388 719 301 764 c 0,90,91
 253 788 253 788 207 828 c 0,92,93
 104 920 104 920 104 1071 c 0,94,95
 104 1200 104 1200 180 1310 c 0,96,97
 196 1332 196 1332 217 1354 c 0,98,99
 253 1390 253 1390 271 1401 c 0,100,101
 299 1421 299 1421 319 1431 c 0,102,103
 348 1446 348 1446 392 1461 c 0,104,105
 464 1482 464 1482 530 1482 c 2,0,-1
EndSplineSet
EndChar

StartChar: T
Encoding: 84 84 55
Width: 881
Flags: W
LayerCount: 3
Fore
SplineSet
16 1464 m 1,0,-1
 866 1464 l 1,1,-1
 866 1324 l 1,2,-1
 511 1324 l 1,3,-1
 511 1 l 1,4,-1
 510 0 l 1,5,-1
 371 0 l 1,6,-1
 370 1 l 1,7,-1
 370 1324 l 1,8,-1
 16 1324 l 1,9,-1
 15 1325 l 1,10,-1
 15 1463 l 1,11,-1
 16 1464 l 1,0,-1
EndSplineSet
EndChar

StartChar: U
Encoding: 85 85 56
Width: 1216
Flags: W
LayerCount: 3
Fore
SplineSet
171 1464 m 1,0,-1
 309 1464 l 1,1,-1
 310 1463 l 1,2,-1
 310 471 l 2,3,4
 310 295 310 295 385 197 c 0,5,6
 448 120 448 120 548 120 c 2,7,-1
 669 120 l 2,8,9
 791 120 791 120 856 234 c 0,10,11
 870 258 870 258 882 294 c 0,12,13
 892 320 892 320 900 371 c 0,14,15
 907 410 907 410 907 511 c 2,16,-1
 907 1463 l 1,17,-1
 908 1464 l 1,18,-1
 1046 1464 l 1,19,-1
 1047 1463 l 1,20,-1
 1047 456 l 2,21,22
 1047 351 1047 351 1015 248 c 0,23,24
 998 200 998 200 978 164 c 0,25,26
 962 136 962 136 937 104 c 0,27,28
 907 70 907 70 884 52 c 0,29,30
 852 28 852 28 829 17 c 0,31,32
 754 -20 754 -20 675 -20 c 2,33,-1
 542 -20 l 2,34,35
 445 -20 445 -20 358 34 c 0,36,37
 255 102 255 102 205 240 c 0,38,39
 170 344 170 344 170 462 c 2,40,-1
 170 1463 l 1,41,-1
 171 1464 l 1,0,-1
EndSplineSet
EndChar

StartChar: V
Encoding: 86 86 57
Width: 1057
Flags: W
LayerCount: 3
Fore
SplineSet
179 1464 m 1,0,-1
 316 996 l 1,1,-1
 455 514 l 1,2,-1
 528 263 l 2,3,4
 530 265 530 265 537 292 c 2,5,-1
 663 725 l 1,6,-1
 797 1186 l 1,7,-1
 878 1464 l 1,8,-1
 1023 1464 l 1,9,-1
 1023 1463 l 1,10,-1
 892 1011 l 1,11,-1
 819 758 l 1,12,-1
 688 310 l 1,13,-1
 598 0 l 1,14,-1
 460 0 l 2,15,16
 458 0 458 0 450 30 c 0,17,18
 449 32 449 32 376 287 c 0,19,20
 352 367 352 367 245 737 c 0,21,22
 141 1092 141 1092 140 1100 c 2,23,-1
 34 1464 l 1,24,-1
 179 1464 l 1,0,-1
EndSplineSet
EndChar

StartChar: W
Encoding: 87 87 58
Width: 1424
Flags: W
LayerCount: 3
Fore
SplineSet
203 1464 m 2,0,1
 204 1464 204 1464 210 1428 c 2,2,-1
 311 870 l 1,3,-1
 393 419 l 2,4,5
 402 374 402 374 416 297 c 1,6,-1
 417 297 l 1,7,-1
 573 717 l 1,8,-1
 661 950 l 1,9,-1
 762 950 l 2,10,11
 763 949 763 949 781 899 c 2,12,-1
 893 600 l 2,13,14
 1004 306 1004 306 1006 297 c 0,15,16
 1008 297 1008 297 1012 327 c 2,17,-1
 1093 771 l 2,18,19
 1106 840 1106 840 1172 1202 c 2,20,-1
 1216 1448 l 1,21,-1
 1219 1464 l 1,22,-1
 1361 1464 l 1,23,-1
 1362 1463 l 1,24,-1
 1260 902 l 1,25,-1
 1170 411 l 1,26,-1
 1095 0 l 1,27,-1
 968 0 l 2,28,29
 967 0 967 0 952 42 c 2,30,-1
 781 499 l 1,31,-1
 712 685 l 1,32,-1
 711 685 l 1,33,-1
 545 240 l 2,34,35
 456 2 456 2 455 0 c 2,36,-1
 328 0 l 2,37,38
 327 0 327 0 319 46 c 2,39,-1
 230 533 l 1,40,-1
 145 1000 l 1,41,-1
 61 1464 l 1,42,-1
 203 1464 l 2,0,1
EndSplineSet
EndChar

StartChar: X
Encoding: 88 88 59
Width: 1010
Flags: W
LayerCount: 3
Fore
SplineSet
48 1464 m 2,0,-1
 206 1464 l 1,1,-1
 395 1098 l 1,2,-1
 504 886 l 1,3,-1
 505 886 l 2,4,5
 506 887 506 887 650 1168 c 2,6,-1
 727 1316 l 1,7,-1
 803 1464 l 1,8,-1
 961 1464 l 1,9,10
 956 1454 956 1454 847 1243 c 2,11,-1
 644 849 l 2,12,13
 586 737 586 737 584 732 c 1,14,-1
 816 283 l 1,15,-1
 961 0 l 1,16,-1
 961 0 l 1,17,-1
 804 0 l 1,18,19
 801 4 801 4 784 38 c 2,20,-1
 632 333 l 1,21,-1
 505 579 l 1,22,-1
 504 579 l 1,23,-1
 315 212 l 2,24,25
 211 10 211 10 205 0 c 1,26,-1
 49 0 l 1,27,-1
 48 1 l 1,28,-1
 265 421 l 1,29,-1
 426 733 l 1,30,-1
 331 915 l 1,31,-1
 111 1342 l 2,32,33
 48 1462 48 1462 48 1464 c 2,0,-1
EndSplineSet
EndChar

StartChar: Y
Encoding: 89 89 60
Width: 968
Flags: W
LayerCount: 3
Fore
SplineSet
187 1464 m 1,0,1
 192 1455 192 1455 377 1097 c 0,2,3
 481 896 481 896 486 885 c 1,4,-1
 659 1220 l 1,5,-1
 785 1464 l 1,6,-1
 941 1464 l 1,7,-1
 942 1463 l 1,8,-1
 719 1030 l 1,9,-1
 566 734 l 2,10,11
 556 716 556 716 556 714 c 2,12,-1
 556 1 l 1,13,-1
 555 0 l 1,14,-1
 417 0 l 1,15,-1
 416 1 l 1,16,-1
 416 714 l 1,17,18
 412 723 412 723 270 998 c 2,19,-1
 46 1431 l 1,20,-1
 30 1463 l 1,21,-1
 30 1464 l 1,22,-1
 187 1464 l 1,0,1
EndSplineSet
EndChar

StartChar: Z
Encoding: 90 90 61
Width: 932
Flags: W
LayerCount: 3
Fore
SplineSet
80 1464 m 1,0,-1
 888 1464 l 1,1,-1
 889 1463 l 1,2,-1
 662 972 l 1,3,-1
 473 561 l 1,4,-1
 287 161 l 1,5,-1
 278 140 l 1,6,-1
 868 140 l 1,7,-1
 869 139 l 1,8,-1
 869 1 l 1,9,-1
 868 0 l 1,10,-1
 60 0 l 1,11,-1
 59 1 l 1,12,-1
 269 456 l 1,13,-1
 457 863 l 1,14,-1
 657 1295 l 1,15,-1
 670 1324 l 1,16,-1
 80 1324 l 1,17,-1
 79 1325 l 1,18,-1
 79 1463 l 1,19,-1
 80 1464 l 1,0,-1
EndSplineSet
EndChar

StartChar: bracketleft
Encoding: 91 91 62
Width: 739
Flags: W
LayerCount: 3
Fore
SplineSet
191 1515 m 1,0,-1
 518 1515 l 1,1,-1
 519 1514 l 1,2,-1
 519 1375 l 1,3,-1
 518 1374 l 1,4,-1
 331 1374 l 1,5,-1
 331 -29 l 1,6,-1
 518 -29 l 1,7,-1
 519 -30 l 1,8,-1
 519 -169 l 1,9,-1
 518 -170 l 1,10,-1
 191 -170 l 1,11,-1
 190 -169 l 1,12,-1
 190 1514 l 1,13,-1
 191 1515 l 1,0,-1
EndSplineSet
EndChar

StartChar: backslash
Encoding: 92 92 63
Width: 741
Flags: W
LayerCount: 3
Fore
SplineSet
578 -51 m 1,0,-1
 1 1374 l 1,1,-1
 141 1374 l 1,2,-1
 718 -51 l 1,3,-1
 578 -51 l 1,0,-1
EndSplineSet
EndChar

StartChar: bracketright
Encoding: 93 93 64
Width: 739
Flags: W
LayerCount: 3
Fore
SplineSet
549 1514 m 1,0,-1
 549 -169 l 1,1,-1
 548 -170 l 1,2,-1
 221 -170 l 1,3,-1
 220 -169 l 1,4,-1
 220 -30 l 1,5,-1
 221 -29 l 1,6,-1
 408 -29 l 1,7,-1
 408 1374 l 1,8,-1
 221 1374 l 1,9,-1
 220 1375 l 1,10,-1
 220 1514 l 1,11,-1
 221 1515 l 1,12,-1
 548 1515 l 1,13,-1
 549 1514 l 1,0,-1
EndSplineSet
EndChar

StartChar: asciicircum
Encoding: 94 94 65
Width: 930
Flags: W
LayerCount: 3
Fore
SplineSet
525 1400 m 1,0,-1
 567 1334 l 1,1,-1
 779 989 l 1,2,-1
 862 854 l 1,3,-1
 862 852 l 1,4,-1
 744 780 l 1,5,-1
 743 780 l 1,6,7
 608 998 608 998 570 1061 c 0,8,9
 568 1063 568 1063 465 1231 c 1,10,-1
 246 875 l 1,11,-1
 187 779 l 1,12,-1
 68 853 l 1,13,-1
 68 854 l 1,14,-1
 316 1257 l 1,15,-1
 405 1400 l 1,16,-1
 525 1400 l 1,0,-1
EndSplineSet
EndChar

StartChar: underscore
Encoding: 95 95 66
Width: 1090
Flags: W
LayerCount: 3
Fore
SplineSet
70 -20 m 1,0,-1
 1020 -20 l 1,1,-1
 1020 -160 l 1,2,-1
 70 -160 l 1,3,-1
 70 -20 l 1,0,-1
EndSplineSet
EndChar

StartChar: grave
Encoding: 96 96 67
Width: 887
Flags: W
LayerCount: 3
Fore
SplineSet
315 1916 m 1,0,-1
 645 1713 l 1,1,-1
 571 1594 l 1,2,-1
 242 1798 l 1,3,-1
 315 1916 l 1,0,-1
EndSplineSet
EndChar

StartChar: a
Encoding: 97 97 68
Width: 973
Flags: W
LayerCount: 3
Fore
SplineSet
232 283 m 2,0,-1
 232 280 l 2,1,2
 232 183 232 183 324 150 c 0,3,4
 358 140 358 140 388 140 c 2,5,-1
 400 140 l 2,6,7
 479 140 479 140 576 190 c 0,8,9
 618 213 618 213 666 251 c 2,10,-1
 683 266 l 1,11,-1
 683 433 l 1,12,13
 655 435 655 435 614 435 c 0,14,15
 401 435 401 435 294 378 c 0,16,17
 278 370 278 370 257 351 c 0,18,19
 237 328 237 328 235 310 c 0,20,21
 232 301 232 301 232 283 c 2,0,-1
513 950 m 2,22,-1
 529 950 l 2,23,24
 630 950 630 950 708 901 c 0,25,26
 727 888 727 888 751 864 c 0,27,28
 786 826 786 826 802 784 c 0,29,30
 823 730 823 730 823 684 c 2,31,-1
 823 14 l 1,32,-1
 822 13 l 1,33,-1
 684 13 l 1,34,-1
 683 14 l 1,35,-1
 683 90 l 1,36,37
 623 53 623 53 559 30 c 0,38,39
 473 0 473 0 406 0 c 2,40,-1
 383 0 l 2,41,42
 311 0 311 0 238 34 c 0,43,44
 214 47 214 47 192 64 c 0,45,46
 161 90 161 90 147 110 c 0,47,48
 124 141 124 141 115 165 c 0,49,50
 92 219 92 219 92 275 c 2,51,-1
 92 287 l 2,52,53
 92 408 92 408 196 482 c 0,54,55
 220 499 220 499 240 508 c 0,56,57
 266 522 266 522 310 536 c 0,58,59
 436 575 436 575 603 575 c 2,60,-1
 625 575 l 2,61,62
 655 575 655 575 683 574 c 1,63,-1
 683 680 l 2,64,65
 683 724 683 724 654 763 c 0,66,67
 613 810 613 810 522 810 c 2,68,-1
 518 810 l 2,69,70
 436 810 436 810 318 771 c 0,71,72
 275 755 275 755 198 716 c 1,73,-1
 175 706 l 1,74,75
 116 831 116 831 116 833 c 0,76,77
 210 879 210 879 257 898 c 0,78,79
 299 916 299 916 386 935 c 0,80,81
 460 950 460 950 513 950 c 2,22,-1
EndSplineSet
EndChar

StartChar: b
Encoding: 98 98 69
Width: 1126
Flags: W
LayerCount: 3
Fore
SplineSet
293 476 m 2,0,-1
 293 472 l 2,1,2
 293 350 293 350 366 249 c 0,3,4
 378 233 378 233 406 206 c 0,5,6
 490 131 490 131 592 131 c 0,7,8
 696 131 696 131 782 209 c 0,9,10
 813 241 813 241 826 260 c 0,11,12
 891 357 891 357 891 474 c 2,13,-1
 891 475 l 2,14,15
 891 602 891 602 815 703 c 0,16,17
 803 719 803 719 775 745 c 0,18,19
 692 818 692 818 592 818 c 0,20,21
 489 818 489 818 403 740 c 0,22,23
 366 703 366 703 357 686 c 0,24,25
 337 657 337 657 324 626 c 0,26,27
 293 553 293 553 293 476 c 2,0,-1
154 1464 m 1,28,-1
 292 1464 l 1,29,-1
 293 1463 l 1,30,-1
 293 829 l 1,31,32
 335 869 335 869 358 883 c 0,33,34
 466 958 466 958 592 958 c 0,35,36
 736 958 736 958 856 861 c 0,37,38
 896 827 896 827 920 796 c 0,39,40
 942 768 942 768 956 746 c 0,41,42
 971 721 971 721 984 693 c 0,43,44
 1031 587 1031 587 1031 482 c 2,45,-1
 1031 467 l 2,46,47
 1031 351 1031 351 975 237 c 0,48,49
 953 192 953 192 910 140 c 0,50,51
 878 105 878 105 858 89 c 0,52,53
 737 -9 737 -9 594 -9 c 2,54,-1
 590 -9 l 2,55,56
 463 -9 463 -9 350 70 c 0,57,58
 329 85 329 85 293 120 c 1,59,-1
 293 14 l 1,60,-1
 153 14 l 1,61,-1
 153 1463 l 1,62,-1
 154 1464 l 1,28,-1
EndSplineSet
EndChar

StartChar: c
Encoding: 99 99 70
Width: 961
Flags: W
LayerCount: 3
Fore
SplineSet
529 958 m 0,0,1
 681 958 681 958 806 850 c 0,2,3
 841 816 841 816 855 798 c 0,4,5
 881 766 881 766 893 745 c 1,6,-1
 774 672 l 1,7,-1
 764 686 l 2,8,9
 751 707 751 707 724 734 c 0,10,11
 685 770 685 770 665 779 c 0,12,13
 601 818 601 818 529 818 c 0,14,15
 426 818 426 818 340 740 c 0,16,17
 303 703 303 703 294 686 c 0,18,19
 274 657 274 657 261 626 c 0,20,21
 230 553 230 553 230 476 c 2,22,-1
 230 472 l 2,23,24
 230 359 230 359 294 263 c 0,25,26
 305 245 305 245 329 219 c 0,27,28
 418 131 418 131 529 131 c 0,29,30
 643 131 643 131 733 223 c 0,31,32
 754 246 754 246 776 279 c 1,33,34
 894 208 894 208 895 207 c 0,35,36
 878 177 878 177 848 141 c 0,37,38
 808 98 808 98 795 89 c 0,39,40
 766 66 766 66 743 51 c 0,41,42
 641 -9 641 -9 531 -9 c 2,43,-1
 527 -9 l 2,44,45
 379 -9 379 -9 255 96 c 0,46,47
 212 137 212 137 205 148 c 0,48,49
 181 177 181 177 162 208 c 0,50,51
 138 249 138 249 124 288 c 0,52,53
 90 379 90 379 90 466 c 2,54,-1
 90 481 l 2,55,56
 90 598 90 598 146 711 c 0,57,58
 163 746 163 746 190 781 c 0,59,60
 201 799 201 799 238 837 c 0,61,62
 284 879 284 879 310 893 c 0,63,64
 412 958 412 958 529 958 c 0,0,1
EndSplineSet
EndChar

StartChar: d
Encoding: 100 100 71
Width: 1126
Flags: W
LayerCount: 3
Fore
SplineSet
236 476 m 2,0,-1
 236 472 l 2,1,2
 236 350 236 350 309 249 c 0,3,4
 321 233 321 233 349 206 c 0,5,6
 433 131 433 131 535 131 c 0,7,8
 639 131 639 131 725 209 c 0,9,10
 756 241 756 241 769 260 c 0,11,12
 834 357 834 357 834 474 c 2,13,-1
 834 475 l 2,14,15
 834 602 834 602 758 703 c 0,16,17
 746 719 746 719 719 745 c 0,18,19
 635 818 635 818 535 818 c 0,20,21
 432 818 432 818 346 740 c 0,22,23
 309 703 309 703 300 686 c 0,24,25
 280 657 280 657 267 626 c 0,26,27
 236 553 236 553 236 476 c 2,0,-1
835 1464 m 1,28,-1
 973 1464 l 1,29,-1
 974 1463 l 1,30,-1
 974 14 l 1,31,-1
 834 14 l 1,32,-1
 834 120 l 1,33,34
 790 78 790 78 768 65 c 0,35,36
 733 40 733 40 694 23 c 0,37,38
 617 -9 617 -9 537 -9 c 2,39,-1
 533 -9 l 2,40,41
 387 -9 387 -9 264 94 c 0,42,43
 231 123 231 123 212 146 c 0,44,45
 178 188 178 188 154 232 c 0,46,47
 135 269 135 269 116 327 c 0,48,49
 96 401 96 401 96 466 c 2,50,-1
 96 481 l 2,51,52
 96 598 96 598 152 711 c 0,53,54
 169 746 169 746 196 781 c 0,55,56
 207 799 207 799 244 837 c 0,57,58
 290 879 290 879 317 893 c 0,59,60
 418 958 418 958 535 958 c 0,61,62
 680 958 680 958 801 859 c 1,63,-1
 834 829 l 1,64,-1
 834 1463 l 1,65,-1
 835 1464 l 1,28,-1
EndSplineSet
EndChar

StartChar: e
Encoding: 101 101 72
Width: 1061
Flags: W
LayerCount: 3
Fore
SplineSet
233 476 m 2,0,-1
 233 472 l 1,1,-1
 234 447 l 1,2,-1
 649 615 l 1,3,-1
 779 668 l 1,4,5
 766 689 766 689 745 715 c 0,6,7
 720 742 720 742 705 754 c 0,8,9
 626 817 626 817 532 817 c 0,10,11
 439 817 439 817 360 754 c 0,12,13
 346 744 346 744 322 717 c 256,14,15
 298 690 298 690 288 671 c 0,16,17
 233 580 233 580 233 476 c 2,0,-1
527 957 m 2,18,-1
 536 957 l 2,19,20
 663 957 663 957 777 875 c 0,21,22
 798 861 798 861 832 827 c 0,23,24
 876 780 876 780 895 747 c 0,25,26
 917 712 917 712 932 675 c 2,27,-1
 948 633 l 1,28,-1
 963 591 l 1,29,-1
 530 415 l 1,30,-1
 270 309 l 1,31,32
 283 281 283 281 306 250 c 0,33,34
 318 233 318 233 345 205 c 0,35,36
 430 130 430 130 532 130 c 0,37,38
 645 130 645 130 735 221 c 1,39,-1
 747 235 l 1,40,-1
 757 248 l 1,41,-1
 768 264 l 1,42,-1
 777 277 l 1,43,-1
 817 253 l 1,44,-1
 896 203 l 1,45,46
 880 176 880 176 855 145 c 0,47,48
 822 108 822 108 798 89 c 0,49,50
 721 24 721 24 621 0 c 0,51,52
 576 -10 576 -10 534 -10 c 2,53,-1
 531 -10 l 2,54,55
 378 -10 378 -10 253 100 c 0,56,57
 214 138 214 138 205 151 c 0,58,59
 179 184 179 184 160 216 c 0,60,61
 144 245 144 245 129 281 c 0,62,63
 93 375 93 375 93 465 c 2,64,-1
 93 482 l 2,65,66
 93 594 93 594 147 707 c 0,67,68
 167 748 167 748 201 791 c 0,69,70
 211 806 211 806 247 842 c 0,71,72
 275 868 275 868 301 885 c 256,73,74
 327 902 327 902 347 913 c 0,75,76
 437 957 437 957 527 957 c 2,18,-1
EndSplineSet
EndChar

StartChar: f
Encoding: 102 102 73
Width: 562
Flags: W
LayerCount: 3
Fore
SplineSet
553 1464 m 2,0,-1
 582 1464 l 1,1,-1
 583 1463 l 1,2,-1
 583 1325 l 1,3,-1
 582 1324 l 1,4,-1
 560 1324 l 2,5,6
 435 1324 435 1324 371 1195 c 0,7,8
 328 1104 328 1104 328 957 c 2,9,-1
 328 950 l 1,10,-1
 582 950 l 1,11,-1
 583 949 l 1,12,-1
 583 811 l 1,13,-1
 582 810 l 1,14,-1
 328 810 l 1,15,-1
 328 1 l 1,16,-1
 327 0 l 1,17,-1
 189 0 l 1,18,-1
 188 1 l 1,19,-1
 188 810 l 1,20,-1
 38 810 l 1,21,-1
 37 811 l 1,22,-1
 37 949 l 1,23,-1
 38 950 l 1,24,-1
 188 950 l 1,25,-1
 188 969 l 2,26,27
 188 1191 188 1191 288 1328 c 0,28,29
 299 1344 299 1344 327 1371 c 0,30,31
 361 1403 361 1403 386 1417 c 0,32,33
 413 1433 413 1433 442 1443 c 0,34,35
 499 1464 499 1464 553 1464 c 2,0,-1
EndSplineSet
EndChar

StartChar: g
Encoding: 103 103 74
Width: 1081
Flags: W
LayerCount: 3
Fore
SplineSet
262 608 m 2,0,-1
 262 598 l 2,1,2
 262 535 262 535 308 476 c 0,3,4
 332 448 332 448 345 439 c 0,5,6
 412 389 412 389 496 389 c 0,7,8
 587 389 587 389 658 450 c 0,9,10
 729 516 729 516 729 603 c 0,11,12
 729 684 729 684 666 749 c 0,13,14
 632 781 632 781 595 797 c 0,15,16
 547 817 547 817 498 817 c 2,17,-1
 493 817 l 2,18,19
 426 817 426 817 365 781 c 0,20,21
 347 771 347 771 319 743 c 0,22,23
 290 711 290 711 279 683 c 0,24,25
 262 644 262 644 262 608 c 2,0,-1
236 -113 m 2,26,-1
 236 -115 l 2,27,28
 236 -179 236 -179 306 -232 c 1,29,30
 394 -291 394 -291 530 -291 c 0,31,32
 654 -291 654 -291 743 -233 c 0,33,34
 759 -223 759 -223 782 -199 c 0,35,36
 825 -151 825 -151 825 -104 c 2,37,-1
 825 -101 l 2,38,39
 825 -55 825 -55 786 -17 c 0,40,41
 756 10 756 10 707 25 c 0,42,43
 645 41 645 41 588 41 c 2,44,-1
 493 41 l 2,45,46
 435 41 435 41 384 46 c 1,47,48
 282 6 282 6 247 -67 c 0,49,50
 236 -91 236 -91 236 -113 c 2,26,-1
495 958 m 0,51,52
 616 958 616 958 717 888 c 1,53,54
 734 908 734 908 749 919 c 0,55,56
 772 935 772 935 795 943 c 0,57,58
 835 957 835 957 868 957 c 2,59,-1
 907 957 l 1,60,-1
 908 956 l 1,61,-1
 908 818 l 1,62,-1
 907 817 l 1,63,-1
 874 817 l 2,64,65
 832 816 832 816 820 790 c 1,66,-1
 818 782 l 1,67,68
 869 698 869 698 869 603 c 0,69,70
 869 468 869 468 770 363 c 0,71,72
 729 324 729 324 709 313 c 0,73,74
 680 293 680 293 643 277 c 0,75,76
 571 249 571 249 498 249 c 2,77,-1
 491 249 l 2,78,79
 408 249 408 249 325 287 c 1,80,81
 306 265 306 265 306 238 c 0,82,83
 306 214 306 214 321 208 c 0,84,85
 361 181 361 181 505 181 c 2,86,-1
 576 181 l 2,87,88
 770 181 770 181 877 90 c 0,89,90
 905 63 905 63 916 48 c 0,91,92
 965 -23 965 -23 965 -103 c 256,93,94
 965 -183 965 -183 913 -260 c 0,95,96
 901 -279 901 -279 868 -312 c 0,97,98
 831 -345 831 -345 809 -357 c 0,99,100
 775 -379 775 -379 730 -397 c 0,101,102
 697 -409 697 -409 656 -418 c 0,103,104
 594 -431 594 -431 547 -431 c 2,105,-1
 513 -431 l 2,106,107
 425 -431 425 -431 330 -400 c 0,108,109
 283 -383 283 -383 246 -360 c 0,110,111
 220 -344 220 -344 190 -318 c 0,112,113
 163 -291 163 -291 151 -275 c 0,114,115
 96 -198 96 -198 96 -119 c 2,116,-1
 96 -108 l 2,117,118
 96 -36 96 -36 147 40 c 0,119,120
 158 57 158 57 190 89 c 2,121,-1
 217 112 l 1,122,123
 166 161 166 161 166 237 c 2,124,-1
 166 240 l 2,125,126
 166 309 166 309 210 368 c 0,127,128
 213 370 213 370 213 372 c 0,129,130
 190 396 190 396 173 423 c 0,131,132
 122 508 122 508 122 603 c 0,133,134
 122 733 122 733 214 837 c 0,135,136
 248 871 248 871 259 878 c 0,137,138
 290 902 290 902 324 919 c 0,139,140
 407 958 407 958 495 958 c 0,51,52
EndSplineSet
EndChar

StartChar: h
Encoding: 104 104 75
Width: 1069
Flags: W
LayerCount: 3
Fore
SplineSet
156 1464 m 1,0,-1
 291 1464 l 1,1,-1
 294 1461 l 1,2,-1
 294 895 l 1,3,-1
 296 895 l 1,4,5
 385 951 385 951 518 951 c 2,6,-1
 553 951 l 2,7,8
 823 951 823 951 903 736 c 0,9,10
 921 679 921 679 921 623 c 2,11,-1
 921 3 l 1,12,-1
 917 0 l 1,13,-1
 783 0 l 1,14,-1
 779 3 l 1,15,-1
 779 625 l 2,16,17
 779 743 779 743 676 789 c 0,18,19
 628 810 628 810 565 810 c 2,20,-1
 505 810 l 2,21,22
 346 810 346 810 303 684 c 0,23,24
 294 654 294 654 294 621 c 2,25,-1
 294 3 l 1,26,-1
 291 0 l 1,27,-1
 156 0 l 1,28,-1
 153 3 l 1,29,-1
 153 1461 l 1,30,-1
 156 1464 l 1,0,-1
EndSplineSet
EndChar

StartChar: i
Encoding: 105 105 76
Width: 466
Flags: W
LayerCount: 3
Fore
SplineSet
164 950 m 1,0,-1
 302 950 l 1,1,-1
 303 949 l 1,2,-1
 303 1 l 1,3,-1
 302 0 l 1,4,-1
 164 0 l 1,5,-1
 163 1 l 1,6,-1
 163 949 l 1,7,-1
 164 950 l 1,0,-1
229 1464 m 2,8,-1
 237 1464 l 2,9,10
 274 1464 274 1464 307 1432 c 1,11,12
 333 1401 333 1401 333 1367 c 2,13,-1
 333 1362 l 2,14,15
 333 1319 333 1319 297 1287 c 0,16,17
 268 1264 268 1264 236 1264 c 2,18,-1
 230 1264 l 2,19,20
 186 1264 186 1264 154 1303 c 0,21,22
 133 1331 133 1331 133 1360 c 2,23,-1
 133 1368 l 2,24,25
 133 1406 133 1406 165 1438 c 0,26,27
 196 1464 196 1464 229 1464 c 2,8,-1
EndSplineSet
EndChar

StartChar: j
Encoding: 106 106 77
Width: 493
Flags: W
LayerCount: 3
Fore
SplineSet
189 950 m 1,0,-1
 328 950 l 1,1,-1
 329 949 l 1,2,-1
 329 81 l 2,3,4
 329 -70 329 -70 294 -168 c 0,5,6
 276 -220 276 -220 255 -254 c 0,7,8
 240 -284 240 -284 204 -324 c 0,9,10
 176 -354 176 -354 165 -360 c 0,11,12
 75 -431 75 -431 -43 -431 c 1,13,-1
 -43 -293 l 1,14,-1
 -42 -292 l 1,15,16
 60 -292 60 -292 123 -204 c 0,17,18
 145 -170 145 -170 162 -123 c 0,19,20
 188 -39 188 -39 188 59 c 2,21,-1
 188 949 l 1,22,-1
 189 950 l 1,0,-1
255 1464 m 2,23,-1
 263 1464 l 2,24,25
 300 1464 300 1464 333 1432 c 1,26,27
 359 1401 359 1401 359 1367 c 2,28,-1
 359 1362 l 2,29,30
 359 1319 359 1319 323 1287 c 0,31,32
 294 1264 294 1264 262 1264 c 2,33,-1
 256 1264 l 2,34,35
 212 1264 212 1264 180 1303 c 0,36,37
 159 1331 159 1331 159 1360 c 2,38,-1
 159 1368 l 2,39,40
 159 1406 159 1406 191 1438 c 0,41,42
 222 1464 222 1464 255 1464 c 2,23,-1
EndSplineSet
EndChar

StartChar: k
Encoding: 107 107 78
Width: 915
Flags: W
LayerCount: 3
Fore
SplineSet
154 1464 m 1,0,-1
 292 1464 l 1,1,-1
 293 1463 l 1,2,-1
 293 1 l 1,3,-1
 292 0 l 1,4,-1
 154 0 l 1,5,-1
 153 1 l 1,6,-1
 153 1463 l 1,7,-1
 154 1464 l 1,0,-1
686 951 m 2,8,-1
 861 951 l 1,9,-1
 862 950 l 1,10,11
 856 943 856 943 648 669 c 2,12,-1
 524 506 l 1,13,-1
 790 123 l 1,14,-1
 876 0 l 1,15,-1
 705 0 l 1,16,17
 702 4 702 4 517 270 c 2,18,-1
 351 509 l 1,19,-1
 351 510 l 1,20,-1
 666 925 l 2,21,22
 685 950 685 950 686 951 c 2,8,-1
EndSplineSet
EndChar

StartChar: l
Encoding: 108 108 79
Width: 445
Flags: W
LayerCount: 3
Fore
SplineSet
154 1464 m 1,0,-1
 292 1464 l 1,1,-1
 293 1463 l 1,2,-1
 293 1 l 1,3,-1
 292 0 l 1,4,-1
 154 0 l 1,5,-1
 153 1 l 1,6,-1
 153 1463 l 1,7,-1
 154 1464 l 1,0,-1
EndSplineSet
EndChar

StartChar: m
Encoding: 109 109 80
Width: 1695
Flags: W
LayerCount: 3
Fore
SplineSet
526 950 m 2,0,-1
 552 950 l 2,1,2
 749 950 749 950 852 831 c 1,3,4
 949 950 949 950 1150 950 c 2,5,-1
 1178 950 l 2,6,7
 1452 950 1452 950 1530 734 c 0,8,9
 1547 679 1547 679 1547 622 c 2,10,-1
 1547 3 l 1,11,-1
 1544 0 l 1,12,-1
 1410 0 l 1,13,-1
 1406 3 l 1,14,-1
 1406 628 l 2,15,16
 1406 760 1406 760 1269 800 c 0,17,18
 1230 809 1230 809 1190 809 c 2,19,-1
 1138 809 l 2,20,21
 979 809 979 809 932 692 c 1,22,23
 922 652 922 652 922 621 c 2,24,-1
 922 3 l 1,25,-1
 918 0 l 1,26,-1
 784 0 l 1,27,-1
 781 3 l 1,28,-1
 781 608 l 2,29,30
 781 762 781 762 648 798 c 0,31,32
 608 809 608 809 564 809 c 2,33,-1
 510 809 l 2,34,35
 355 809 355 809 308 697 c 0,36,37
 294 660 294 660 294 603 c 2,38,-1
 294 3 l 1,39,-1
 291 0 l 1,40,-1
 156 0 l 1,41,-1
 153 3 l 1,42,-1
 153 933 l 1,43,-1
 156 936 l 1,44,-1
 291 936 l 1,45,-1
 294 933 l 1,46,-1
 294 892 l 1,47,48
 381 950 381 950 526 950 c 2,0,-1
EndSplineSet
EndChar

StartChar: n
Encoding: 110 110 81
Width: 1068
Flags: W
LayerCount: 3
Fore
SplineSet
509 950 m 2,0,-1
 564 950 l 2,1,2
 804 950 804 950 896 755 c 1,3,4
 920 688 920 688 920 605 c 2,5,-1
 920 3 l 1,6,-1
 916 0 l 1,7,-1
 782 0 l 1,8,-1
 779 3 l 1,9,-1
 779 615 l 2,10,11
 779 766 779 766 636 802 c 0,12,13
 600 809 600 809 571 809 c 2,14,-1
 500 809 l 2,15,16
 356 809 356 809 306 697 c 0,17,18
 292 659 292 659 292 601 c 2,19,-1
 292 3 l 1,20,-1
 289 0 l 1,21,-1
 156 0 l 1,22,-1
 153 3 l 1,23,-1
 153 933 l 1,24,-1
 156 936 l 1,25,-1
 289 936 l 1,26,-1
 292 933 l 1,27,-1
 292 894 l 1,28,-1
 294 894 l 1,29,30
 385 950 385 950 509 950 c 2,0,-1
EndSplineSet
EndChar

StartChar: o
Encoding: 111 111 82
Width: 1058
Flags: W
LayerCount: 3
Fore
SplineSet
529 958 m 0,0,1
 673 958 673 958 793 861 c 0,2,3
 833 827 833 827 857 796 c 0,4,5
 879 768 879 768 893 746 c 0,6,7
 908 721 908 721 921 693 c 0,8,9
 968 587 968 587 968 482 c 2,10,-1
 968 468 l 2,11,12
 968 344 968 344 907 226 c 0,13,14
 886 189 886 189 850 144 c 0,15,16
 815 105 815 105 793 88 c 0,17,18
 673 -9 673 -9 531 -9 c 2,19,-1
 527 -9 l 2,20,21
 381 -9 381 -9 258 94 c 0,22,23
 222 127 222 127 207 146 c 0,24,25
 161 203 161 203 142 245 c 0,26,27
 129 270 129 270 113 319 c 0,28,29
 90 397 90 397 90 466 c 2,30,-1
 90 481 l 2,31,32
 90 598 90 598 146 711 c 0,33,34
 163 746 163 746 190 781 c 0,35,36
 201 799 201 799 238 837 c 0,37,38
 284 879 284 879 310 893 c 0,39,40
 412 958 412 958 529 958 c 0,0,1
230 476 m 2,41,-1
 230 472 l 2,42,43
 230 350 230 350 303 249 c 0,44,45
 315 233 315 233 343 206 c 0,46,47
 427 131 427 131 529 131 c 0,48,49
 633 131 633 131 719 209 c 0,50,51
 750 241 750 241 763 260 c 0,52,53
 828 357 828 357 828 474 c 2,54,-1
 828 475 l 2,55,56
 828 602 828 602 752 703 c 0,57,58
 740 719 740 719 712 745 c 0,59,60
 629 818 629 818 529 818 c 0,61,62
 426 818 426 818 340 740 c 0,63,64
 303 703 303 703 294 686 c 0,65,66
 274 657 274 657 261 626 c 0,67,68
 230 553 230 553 230 476 c 2,41,-1
EndSplineSet
EndChar

StartChar: p
Encoding: 112 112 83
Width: 1126
Flags: W
LayerCount: 3
Fore
SplineSet
593 958 m 0,0,1
 736 958 736 958 856 861 c 0,2,3
 898 824 898 824 920 797 c 0,4,5
 943 768 943 768 962 736 c 0,6,7
 982 701 982 701 1001 653 c 0,8,9
 1031 565 1031 565 1031 482 c 2,10,-1
 1031 468 l 2,11,12
 1031 346 1031 346 971 229 c 0,13,14
 954 197 954 197 926 159 c 0,15,16
 910 139 910 139 876 105 c 0,17,18
 749 -9 749 -9 592 -9 c 0,19,20
 447 -9 447 -9 326 89 c 0,21,22
 308 105 308 105 293 120 c 1,23,-1
 293 -430 l 1,24,-1
 292 -431 l 1,25,-1
 154 -431 l 1,26,-1
 153 -430 l 1,27,-1
 153 936 l 1,28,-1
 154 937 l 1,29,-1
 292 937 l 1,30,-1
 293 936 l 1,31,-1
 293 829 l 1,32,33
 337 871 337 871 359 884 c 0,34,35
 391 906 391 906 417 918 c 0,36,37
 500 958 500 958 593 958 c 0,0,1
293 476 m 2,38,-1
 293 472 l 2,39,40
 293 372 293 372 344 283 c 0,41,42
 358 259 358 259 381 231 c 0,43,44
 415 195 415 195 425 191 c 0,45,46
 448 172 448 172 467 163 c 0,47,48
 528 131 528 131 592 131 c 0,49,50
 695 131 695 131 780 208 c 0,51,52
 812 239 812 239 823 256 c 0,53,54
 891 354 891 354 891 474 c 2,55,-1
 891 475 l 2,56,57
 891 598 891 598 819 698 c 0,58,59
 808 713 808 713 779 742 c 0,60,61
 695 818 695 818 592 818 c 0,62,63
 488 818 488 818 403 740 c 0,64,65
 371 708 371 708 358 689 c 0,66,67
 293 592 293 592 293 476 c 2,38,-1
EndSplineSet
EndChar

StartChar: q
Encoding: 113 113 84
Width: 1126
Flags: W
LayerCount: 3
Fore
SplineSet
536 958 m 0,0,1
 684 958 684 958 806 855 c 1,2,-1
 834 829 l 1,3,-1
 834 936 l 1,4,-1
 835 937 l 1,5,-1
 973 937 l 1,6,-1
 974 936 l 1,7,-1
 974 -430 l 1,8,-1
 973 -431 l 1,9,-1
 835 -431 l 1,10,-1
 834 -430 l 1,11,-1
 834 120 l 1,12,13
 792 80 792 80 769 65 c 0,14,15
 661 -9 661 -9 535 -9 c 0,16,17
 387 -9 387 -9 264 94 c 0,18,19
 226 129 226 129 214 144 c 0,20,21
 185 180 185 180 166 211 c 0,22,23
 144 249 144 249 125 300 c 0,24,25
 96 386 96 386 96 467 c 2,26,-1
 96 482 l 2,27,28
 96 603 96 603 156 719 c 0,29,30
 172 749 172 749 199 786 c 0,31,32
 213 805 213 805 246 839 c 0,33,34
 286 875 286 875 314 893 c 0,35,36
 418 958 418 958 536 958 c 0,0,1
236 476 m 2,37,-1
 236 472 l 2,38,39
 236 372 236 372 287 283 c 0,40,41
 301 259 301 259 324 231 c 0,42,43
 358 195 358 195 368 191 c 0,44,45
 391 172 391 172 410 163 c 0,46,47
 471 131 471 131 535 131 c 0,48,49
 638 131 638 131 723 208 c 0,50,51
 755 239 755 239 766 256 c 0,52,53
 834 354 834 354 834 474 c 2,54,-1
 834 475 l 2,55,56
 834 598 834 598 762 698 c 0,57,58
 751 713 751 713 722 742 c 0,59,60
 638 818 638 818 535 818 c 0,61,62
 431 818 431 818 346 740 c 0,63,64
 314 708 314 708 301 689 c 0,65,66
 236 592 236 592 236 476 c 2,37,-1
EndSplineSet
EndChar

StartChar: r
Encoding: 114 114 85
Width: 781
Flags: W
LayerCount: 3
Fore
SplineSet
466 950 m 2,0,-1
 526 950 l 2,1,2
 601 950 601 950 674 904 c 0,3,4
 698 889 698 889 728 859 c 0,5,6
 746 839 746 839 746 838 c 2,7,-1
 634 748 l 1,8,-1
 633 748 l 1,9,10
 612 785 612 785 562 804 c 0,11,12
 540 810 540 810 521 810 c 2,13,-1
 471 810 l 2,14,15
 394 810 394 810 341 731 c 1,16,17
 293 652 293 652 293 531 c 2,18,-1
 293 1 l 1,19,-1
 292 0 l 1,20,-1
 154 0 l 1,21,-1
 153 1 l 1,22,-1
 153 936 l 1,23,-1
 154 937 l 1,24,-1
 292 937 l 1,25,-1
 293 936 l 1,26,-1
 293 886 l 1,27,28
 322 908 322 908 343 919 c 0,29,30
 406 950 406 950 466 950 c 2,0,-1
EndSplineSet
EndChar

StartChar: s
Encoding: 115 115 86
Width: 903
Flags: W
LayerCount: 3
Fore
SplineSet
453 965 m 2,0,-1
 467 965 l 2,1,2
 569 965 569 965 661 916 c 0,3,4
 691 901 691 901 725 873 c 0,5,6
 756 846 756 846 774 823 c 0,7,8
 789 803 789 803 789 800 c 0,9,10
 698 748 698 748 669 729 c 1,11,-1
 668 729 l 1,12,13
 650 756 650 756 614 781 c 0,14,15
 549 825 549 825 459 825 c 0,16,17
 354 825 354 825 288 773 c 0,18,19
 243 733 243 733 243 685 c 0,20,21
 243 649 243 649 272 630 c 0,22,23
 283 620 283 620 303 611 c 0,24,25
 347 588 347 588 453 563 c 0,26,27
 503 553 503 553 580 538 c 0,28,29
 629 526 629 526 662 510 c 0,30,31
 692 496 692 496 723 473 c 0,32,33
 732 467 732 467 760 438 c 0,34,35
 820 367 820 367 820 284 c 2,36,-1
 820 278 l 2,37,38
 820 189 820 189 755 110 c 0,39,40
 729 82 729 82 714 71 c 0,41,42
 682 48 682 48 656 35 c 0,43,44
 560 -10 560 -10 459 -10 c 2,45,-1
 446 -10 l 2,46,47
 335 -10 335 -10 233 44 c 0,48,49
 135 100 135 100 81 197 c 0,50,51
 82 199 82 199 139 230 c 2,52,-1
 203 265 l 1,53,54
 249 185 249 185 337 150 c 0,55,56
 392 130 392 130 453 130 c 0,57,58
 541 130 541 130 611 171 c 0,59,60
 625 178 625 178 647 199 c 0,61,62
 680 238 680 238 680 281 c 0,63,64
 680 347 680 347 597 386 c 0,65,66
 577 395 577 395 539 404 c 0,67,68
 379 432 379 432 288 465 c 0,69,70
 103 533 103 533 103 684 c 2,71,-1
 103 687 l 2,72,73
 103 778 103 778 172 855 c 0,74,75
 205 888 205 888 218 895 c 0,76,77
 262 927 262 927 322 945 c 0,78,79
 388 965 388 965 453 965 c 2,0,-1
EndSplineSet
EndChar

StartChar: t
Encoding: 116 116 87
Width: 681
Flags: W
LayerCount: 3
Fore
SplineSet
191 1464 m 1,0,-1
 330 1464 l 1,1,-1
 331 1463 l 1,2,-1
 331 950 l 1,3,-1
 589 950 l 1,4,-1
 590 949 l 1,5,-1
 590 810 l 1,6,-1
 589 809 l 1,7,-1
 331 809 l 1,8,-1
 331 260 l 2,9,10
 331 219 331 219 352 184 c 0,11,12
 373 156 373 156 409 145 c 0,13,14
 425 140 425 140 437 140 c 2,15,-1
 443 140 l 2,16,17
 480 140 480 140 547 166 c 1,18,-1
 559 172 l 1,19,20
 610 60 610 60 616 44 c 1,21,22
 602 36 602 36 559 21 c 0,23,24
 489 0 489 0 449 0 c 2,25,-1
 432 0 l 2,26,27
 379 0 379 0 320 31 c 0,28,29
 241 74 241 74 210 156 c 0,30,31
 191 208 191 208 191 269 c 2,32,-1
 191 809 l 1,33,-1
 34 809 l 1,34,-1
 33 810 l 1,35,-1
 33 949 l 1,36,-1
 34 950 l 1,37,-1
 191 950 l 1,38,-1
 191 1464 l 1,0,-1
EndSplineSet
EndChar

StartChar: u
Encoding: 117 117 88
Width: 1068
Flags: W
LayerCount: 3
Fore
SplineSet
151 937 m 1,0,-1
 286 937 l 1,1,-1
 289 934 l 1,2,-1
 289 321 l 2,3,4
 289 201 289 201 408 155 c 0,5,6
 453 141 453 141 492 141 c 2,7,-1
 569 141 l 2,8,9
 722 141 722 141 767 269 c 1,10,11
 774 306 774 306 774 330 c 2,12,-1
 774 934 l 1,13,-1
 778 937 l 1,14,-1
 912 937 l 1,15,-1
 916 934 l 1,16,-1
 916 17 l 1,17,-1
 912 14 l 1,18,-1
 778 14 l 1,19,-1
 774 17 l 1,20,-1
 774 56 l 1,21,22
 681 0 681 0 565 0 c 2,23,-1
 502 0 l 2,24,25
 281 0 281 0 185 169 c 0,26,27
 148 242 148 242 148 326 c 2,28,-1
 148 934 l 1,29,-1
 151 937 l 1,0,-1
EndSplineSet
EndChar

StartChar: v
Encoding: 118 118 89
Width: 959
Flags: W
LayerCount: 3
Fore
SplineSet
184 950 m 1,0,-1
 192 929 l 1,1,-1
 363 493 l 1,2,-1
 479 194 l 1,3,-1
 480 194 l 1,4,-1
 653 637 l 2,5,6
 662 660 662 660 756 901 c 2,7,-1
 775 950 l 1,8,-1
 924 950 l 1,9,-1
 925 949 l 1,10,-1
 763 534 l 1,11,-1
 581 65 l 1,12,-1
 555 0 l 1,13,-1
 405 0 l 1,14,15
 402 6 402 6 380 62 c 2,16,-1
 237 428 l 1,17,-1
 71 854 l 1,18,-1
 34 950 l 1,19,-1
 184 950 l 1,0,-1
EndSplineSet
EndChar

StartChar: w
Encoding: 119 119 90
Width: 1331
Flags: W
LayerCount: 3
Fore
SplineSet
198 950 m 2,0,1
 199 950 199 950 209 917 c 2,2,-1
 320 537 l 1,3,-1
 409 239 l 1,4,-1
 542 687 l 1,5,-1
 601 886 l 1,6,-1
 730 886 l 2,7,8
 731 885 731 885 743 844 c 0,9,10
 829 555 829 555 833 542 c 2,11,-1
 923 239 l 1,12,-1
 1058 695 l 1,13,-1
 1133 950 l 1,14,-1
 1279 950 l 1,15,-1
 1130 444 l 1,16,-1
 1003 14 l 2,17,18
 999 0 999 0 998 0 c 2,19,-1
 848 0 l 2,20,21
 846 3 846 3 839 31 c 2,22,-1
 721 427 l 1,23,-1
 666 612 l 1,24,-1
 578 315 l 2,25,26
 577 313 577 313 507 78 c 2,27,-1
 484 0 l 1,28,-1
 333 0 l 2,29,30
 332 1 332 1 320 44 c 2,31,-1
 201 446 l 1,32,-1
 62 918 l 1,33,-1
 53 950 l 1,34,-1
 198 950 l 2,0,1
EndSplineSet
EndChar

StartChar: x
Encoding: 120 120 91
Width: 923
Flags: W
LayerCount: 3
Fore
SplineSet
216 950 m 2,0,1
 219 947 219 947 305 823 c 2,2,-1
 460 601 l 1,3,-1
 670 902 l 1,4,-1
 704 950 l 1,5,-1
 874 950 l 1,6,-1
 874 949 l 1,7,8
 750 772 750 772 680 670 c 2,9,-1
 547 480 l 2,10,11
 546 480 546 480 546 478 c 2,12,-1
 765 163 l 1,13,-1
 879 1 l 1,14,-1
 879 0 l 1,15,-1
 708 0 l 2,16,17
 707 1 707 1 573 193 c 2,18,-1
 460 356 l 1,19,-1
 220 12 l 1,20,-1
 212 0 l 1,21,-1
 42 0 l 1,22,-1
 41 1 l 1,23,-1
 218 254 l 1,24,-1
 374 478 l 1,25,-1
 374 479 l 1,26,-1
 180 758 l 1,27,-1
 46 950 l 1,28,-1
 216 950 l 2,0,1
EndSplineSet
EndChar

StartChar: y
Encoding: 121 121 92
Width: 960
Flags: W
LayerCount: 3
Fore
SplineSet
184 950 m 2,0,1
 185 950 185 950 192 929 c 2,2,-1
 362 493 l 1,3,-1
 479 194 l 1,4,-1
 480 194 l 1,5,-1
 652 637 l 2,6,7
 658 649 658 649 756 901 c 2,8,-1
 775 950 l 1,9,-1
 924 950 l 1,10,-1
 925 949 l 1,11,-1
 757 520 l 1,12,-1
 571 42 l 1,13,-1
 398 -402 l 1,14,-1
 386 -431 l 1,15,-1
 237 -431 l 1,16,-1
 236 -430 l 1,17,18
 402 -7 402 -7 404 1 c 1,19,-1
 233 439 l 1,20,-1
 75 845 l 1,21,-1
 34 950 l 1,22,-1
 184 950 l 2,0,1
EndSplineSet
EndChar

StartChar: z
Encoding: 122 122 93
Width: 893
Flags: W
LayerCount: 3
Fore
SplineSet
144 950 m 1,0,-1
 811 950 l 1,1,-1
 595 584 l 1,2,-1
 367 197 l 1,3,-1
 334 140 l 1,4,-1
 781 140 l 1,5,-1
 782 139 l 1,6,-1
 782 1 l 1,7,-1
 781 0 l 1,8,-1
 90 0 l 1,9,-1
 89 1 l 1,10,-1
 316 385 l 1,11,-1
 520 732 l 1,12,-1
 566 810 l 1,13,-1
 144 810 l 1,14,-1
 144 950 l 1,0,-1
EndSplineSet
EndChar

StartChar: braceleft
Encoding: 123 123 94
Width: 674
Flags: W
LayerCount: 3
Fore
SplineSet
490 1510 m 1,0,-1
 490 1370 l 1,1,-1
 479 1370 l 2,2,3
 435 1370 435 1370 405 1339 c 0,4,5
 379 1307 379 1307 379 1254 c 2,6,-1
 379 790 l 2,7,8
 379 716 379 716 334 658 c 1,9,10
 379 601 379 601 379 527 c 2,11,-1
 379 64 l 2,12,13
 379 -18 379 -18 433 -43 c 0,14,15
 456 -53 456 -53 479 -53 c 2,16,-1
 490 -53 l 1,17,-1
 490 -193 l 1,18,-1
 475 -193 l 2,19,20
 409 -193 409 -193 345 -155 c 0,21,22
 330 -145 330 -145 306 -122 c 0,23,24
 279 -92 279 -92 266 -64 c 0,25,26
 239 -11 239 -11 239 77 c 2,27,-1
 239 534 l 2,28,29
 239 554 239 554 220 576 c 0,30,31
 210 587 210 587 175 604 c 0,32,33
 156 613 156 613 156 614 c 2,34,-1
 156 703 l 2,35,36
 156 704 156 704 199 725 c 0,37,38
 210 730 210 730 224 746 c 0,39,40
 239 766 239 766 239 783 c 2,41,-1
 239 1241 l 2,42,43
 239 1348 239 1348 284 1412 c 0,44,45
 307 1445 307 1445 343 1469 c 0,46,47
 406 1510 406 1510 476 1510 c 2,48,-1
 490 1510 l 1,0,-1
EndSplineSet
EndChar

StartChar: bar
Encoding: 124 124 95
Width: 340
Flags: W
LayerCount: 3
Fore
SplineSet
100 1 m 1,0,-1
 100 1400 l 1,1,-1
 240 1400 l 1,2,-1
 240 1 l 1,3,-1
 100 1 l 1,0,-1
EndSplineSet
EndChar

StartChar: braceright
Encoding: 125 125 96
Width: 674
Flags: W
LayerCount: 3
Fore
SplineSet
198 1510 m 2,0,1
 268 1510 268 1510 331 1469 c 0,2,3
 367 1445 367 1445 390 1412 c 0,4,5
 435 1348 435 1348 435 1241 c 2,6,-1
 435 783 l 2,7,8
 435 766 435 766 450 746 c 0,9,10
 464 730 464 730 475 725 c 0,11,12
 518 704 518 704 518 703 c 2,13,-1
 518 614 l 2,14,15
 518 613 518 613 499 604 c 0,16,17
 464 587 464 587 454 576 c 0,18,19
 435 554 435 554 435 534 c 2,20,-1
 435 77 l 2,21,22
 435 -11 435 -11 408 -64 c 0,23,24
 395 -92 395 -92 368 -122 c 0,25,26
 344 -145 344 -145 329 -155 c 0,27,28
 265 -193 265 -193 199 -193 c 2,29,-1
 184 -193 l 1,30,-1
 184 -53 l 1,31,-1
 195 -53 l 2,32,33
 218 -53 218 -53 241 -43 c 0,34,35
 295 -18 295 -18 295 64 c 2,36,-1
 295 527 l 2,37,38
 295 601 295 601 340 658 c 1,39,40
 295 716 295 716 295 790 c 2,41,-1
 295 1254 l 2,42,43
 295 1307 295 1307 269 1339 c 0,44,45
 239 1370 239 1370 195 1370 c 2,46,-1
 184 1370 l 1,47,-1
 184 1510 l 1,48,-1
 198 1510 l 2,0,1
EndSplineSet
EndChar

StartChar: asciitilde
Encoding: 126 126 97
Width: 705
Flags: W
LayerCount: 3
Fore
SplineSet
648 581 m 1,0,1
 617 547 617 547 587 530 c 0,2,3
 540 505 540 505 495 505 c 0,4,5
 447 505 447 505 353.5 553.5 c 128,-1,6
 260 602 260 602 212 602 c 0,7,8
 172 602 172 602 127 574 c 0,9,10
 97 555 97 555 61 512 c 1,11,-1
 61 666 l 1,12,13
 92 701 92 701 122 717 c 0,14,15
 169 743 169 743 212 743 c 0,16,17
 264 743 264 743 357.5 693.5 c 128,-1,18
 451 644 451 644 495 644 c 0,19,20
 536 644 536 644 581 672 c 0,21,22
 611 691 611 691 648 735 c 1,23,-1
 648 581 l 1,0,1
EndSplineSet
EndChar

StartChar: exclamdown
Encoding: 161 161 98
Width: 657
Flags: W
LayerCount: 3
Fore
SplineSet
292 1264 m 2,0,-1
 290 1264 l 2,1,2
 247 1264 247 1264 215 1299 c 0,3,4
 191 1329 191 1329 191 1360 c 2,5,-1
 191 1366 l 2,6,7
 191 1409 191 1409 228 1441 c 0,8,9
 256 1464 256 1464 292 1464 c 0,10,11
 330 1464 330 1464 361 1436 c 0,12,13
 391 1404 391 1404 391 1368 c 2,14,-1
 391 1360 l 2,15,16
 391 1322 391 1322 358 1290 c 0,17,18
 329 1264 329 1264 292 1264 c 2,0,-1
360 0 m 1,19,-1
 222 0 l 1,20,-1
 221 1 l 1,21,-1
 221 1139 l 1,22,-1
 361 1139 l 1,23,-1
 361 1 l 1,24,-1
 360 0 l 1,19,-1
EndSplineSet
EndChar

StartChar: cent
Encoding: 162 162 99
Width: 925
Flags: W
LayerCount: 3
Fore
SplineSet
230 700 m 2,0,-1
 230 697 l 2,1,2
 230 573 230 573 309 476 c 0,3,4
 332 450 332 450 345 440 c 0,5,6
 387 406 387 406 429 392 c 1,7,-1
 429 1005 l 1,8,9
 398 994 398 994 365 972 c 0,10,11
 350 962 350 962 324 937 c 0,12,13
 291 902 291 902 277 875 c 0,14,15
 230 793 230 793 230 700 c 2,0,-1
430 1270 m 1,16,-1
 569 1270 l 1,17,-1
 570 1269 l 1,18,-1
 570 1154 l 1,19,20
 602 1148 602 1148 625 1141 c 0,21,22
 701 1118 701 1118 771 1060 c 0,23,24
 809 1024 809 1024 821 1008 c 0,25,26
 845 979 845 979 859 956 c 1,27,-1
 859 955 l 1,28,-1
 740 882 l 1,29,30
 726 905 726 905 695 938 c 0,31,32
 660 972 660 972 638 983 c 0,33,34
 618 995 618 995 590 1005 c 0,35,36
 581 1008 581 1008 570 1011 c 1,37,-1
 570 386 l 1,38,39
 595 393 595 393 614 402 c 0,40,41
 637 411 637 411 672 437 c 0,42,43
 706 467 706 467 719 485 c 2,44,-1
 740 515 l 1,45,-1
 859 442 l 1,46,-1
 859 441 l 1,47,48
 843 414 843 414 814 380 c 0,49,50
 778 341 778 341 763 331 c 0,51,52
 718 295 718 295 689 282 c 0,53,54
 669 271 669 271 635 259 c 0,55,56
 613 251 613 251 573 244 c 1,57,-1
 570 243 l 1,58,-1
 570 128 l 1,59,-1
 569 127 l 1,60,-1
 430 127 l 1,61,-1
 429 128 l 1,62,-1
 429 247 l 1,63,64
 421 247 421 247 372 264 c 0,65,66
 237 317 237 317 157 447 c 0,67,68
 136 486 136 486 123 519 c 0,69,70
 90 606 90 606 90 691 c 2,71,-1
 90 706 l 2,72,73
 90 814 90 814 142 921 c 0,74,75
 160 956 160 956 189 996 c 0,76,77
 204 1016 204 1016 235 1047 c 0,78,79
 279 1086 279 1086 311 1104 c 0,80,81
 376 1140 376 1140 429 1150 c 1,82,-1
 429 1269 l 1,83,-1
 430 1270 l 1,16,-1
EndSplineSet
EndChar

StartChar: sterling
Encoding: 163 163 100
Width: 1215
Flags: W
LayerCount: 3
Fore
SplineSet
666 1436 m 0,0,1
 786 1436 786 1436 894 1367 c 0,2,3
 915 1353 915 1353 943 1327 c 2,4,-1
 946 1324 l 1,5,-1
 946 1323 l 1,6,-1
 847 1225 l 1,7,8
 808 1261 808 1261 766 1276 c 0,9,10
 715 1296 715 1296 667 1296 c 0,11,12
 570 1296 570 1296 484 1221 c 0,13,14
 432 1171 432 1171 432 1090 c 2,15,-1
 432 1088 l 2,16,17
 432 1006 432 1006 484 905 c 0,18,19
 507 857 507 857 520 826 c 1,20,-1
 848 826 l 1,21,-1
 849 825 l 1,22,-1
 849 687 l 1,23,-1
 848 686 l 1,24,-1
 555 686 l 1,25,-1
 556 685 l 1,26,-1
 556 667 l 2,27,28
 556 504 556 504 390 314 c 1,29,-1
 400 314 l 2,30,31
 536 314 536 314 630 221 c 1,32,33
 709 155 709 155 784 155 c 0,34,35
 889 155 889 155 1013 286 c 1,36,-1
 1014 286 l 1,37,-1
 1115 189 l 1,38,39
 952 15 952 15 782 15 c 0,40,41
 654 15 654 15 533 120 c 0,42,43
 498 152 498 152 477 159 c 0,44,45
 443 174 443 174 401 174 c 0,46,47
 301 174 301 174 167 93 c 1,48,-1
 140 75 l 1,49,-1
 53 184 l 1,50,51
 111 234 111 234 155 275 c 0,52,53
 239 354 239 354 267 387 c 0,54,55
 416 551 416 551 416 665 c 2,56,-1
 416 671 l 1,57,-1
 415 686 l 1,58,-1
 187 686 l 1,59,-1
 186 687 l 1,60,-1
 186 825 l 1,61,-1
 187 826 l 1,62,-1
 366 826 l 1,63,64
 338 882 338 882 323 922 c 0,65,66
 292 1009 292 1009 292 1082 c 2,67,-1
 292 1095 l 2,68,69
 292 1191 292 1191 344 1272 c 0,70,71
 355 1290 355 1290 387 1323 c 0,72,73
 515 1436 515 1436 666 1436 c 0,0,1
EndSplineSet
EndChar

StartChar: currency
Encoding: 164 164 101
Width: 1339
Flags: W
LayerCount: 3
Fore
SplineSet
208 746 m 2,0,-1
 208 735 l 2,1,2
 208 603 208 603 286 482 c 0,3,4
 304 456 304 456 331 425 c 0,5,6
 373 383 373 383 390 372 c 0,7,8
 434 338 434 338 480 318 c 0,9,10
 571 277 571 277 671 277 c 0,11,12
 835 277 835 277 968 384 c 0,13,14
 1012 424 1012 424 1029 447 c 0,15,16
 1051 474 1051 474 1065 496 c 0,17,18
 1134 611 1134 611 1134 735 c 2,19,-1
 1134 745 l 2,20,21
 1134 876 1134 876 1058 995 c 0,22,23
 1040 1023 1040 1023 1004 1062 c 0,24,25
 963 1102 963 1102 943 1115 c 0,26,27
 907 1142 907 1142 861 1163 c 0,28,29
 768 1204 768 1204 670 1204 c 0,30,31
 520 1204 520 1204 393 1111 c 0,32,33
 373 1097 373 1097 339 1063 c 0,34,35
 302 1024 302 1024 284 995 c 0,36,37
 266 967 266 967 255 945 c 0,38,39
 208 846 208 846 208 746 c 2,0,-1
671 1344 m 0,40,41
 866 1344 866 1344 1030 1226 c 1,42,-1
 1054 1207 l 1,43,-1
 1178 1335 l 1,44,-1
 1178 1336 l 1,45,-1
 1179 1336 l 1,46,-1
 1279 1239 l 1,47,-1
 1151 1106 l 1,48,49
 1192 1051 1192 1051 1215 1002 c 0,50,51
 1275 876 1275 876 1275 741 c 0,52,53
 1275 559 1275 559 1172 403 c 1,54,-1
 1158 384 l 1,55,56
 1189 352 1189 352 1279 258 c 1,57,-1
 1179 161 l 1,58,-1
 1062 281 l 1,59,60
 1002 231 1002 231 944 201 c 0,61,62
 812 137 812 137 678 137 c 2,63,-1
 663 137 l 2,64,65
 527 137 527 137 394 203 c 0,66,67
 359 222 359 222 316 252 c 2,68,-1
 279 281 l 1,69,-1
 164 161 l 1,70,-1
 63 258 l 1,71,-1
 184 384 l 1,72,73
 141 444 141 444 125 483 c 0,74,75
 67 605 67 605 67 741 c 0,76,77
 67 919 67 919 168 1074 c 1,78,-1
 190 1106 l 1,79,-1
 63 1239 l 1,80,81
 163 1336 163 1336 164 1336 c 2,82,-1
 288 1207 l 1,83,84
 326 1238 326 1238 354 1254 c 0,85,86
 502 1344 502 1344 671 1344 c 0,40,41
EndSplineSet
EndChar

StartChar: yen
Encoding: 165 165 102
Width: 1171
Flags: W
LayerCount: 3
Fore
SplineSet
169 1392 m 1,0,1
 177 1384 177 1384 400 1120 c 2,2,-1
 587 899 l 1,3,-1
 789 1138 l 1,4,-1
 1004 1392 l 1,5,-1
 1111 1301 l 1,6,-1
 825 963 l 1,7,-1
 657 765 l 1,8,-1
 657 699 l 1,9,-1
 995 699 l 1,10,-1
 995 560 l 1,11,-1
 994 559 l 1,12,-1
 657 559 l 1,13,-1
 657 490 l 1,14,-1
 994 490 l 1,15,-1
 995 489 l 1,16,-1
 995 351 l 1,17,-1
 994 350 l 1,18,-1
 657 350 l 1,19,-1
 657 42 l 1,20,-1
 517 42 l 1,21,-1
 517 350 l 1,22,-1
 180 350 l 1,23,-1
 179 351 l 1,24,-1
 179 489 l 1,25,-1
 180 490 l 1,26,-1
 517 490 l 1,27,-1
 517 559 l 1,28,-1
 180 559 l 1,29,-1
 179 560 l 1,30,-1
 179 699 l 1,31,-1
 517 699 l 1,32,-1
 517 764 l 1,33,-1
 214 1122 l 1,34,-1
 63 1301 l 1,35,-1
 169 1392 l 1,0,1
EndSplineSet
EndChar

StartChar: brokenbar
Encoding: 166 166 103
Width: 540
Flags: W
LayerCount: 3
Fore
SplineSet
200 -399 m 1,0,-1
 200 299 l 1,1,-1
 340 299 l 1,2,-1
 340 -399 l 1,3,-1
 200 -399 l 1,0,-1
200 801 m 1,4,-1
 200 1500 l 1,5,-1
 340 1500 l 1,6,-1
 340 801 l 1,7,-1
 200 801 l 1,4,-1
EndSplineSet
EndChar

StartChar: section
Encoding: 167 167 104
Width: 877
Flags: W
LayerCount: 3
Fore
SplineSet
258 730 m 2,0,-1
 258 728 l 2,1,2
 258 656 258 656 322 602 c 1,3,4
 377 562 377 562 439 562 c 2,5,-1
 444 562 l 2,6,7
 518 562 518 562 576 615 c 0,8,9
 626 665 626 665 626 728 c 2,10,-1
 626 730 l 2,11,12
 626 796 626 796 571 847 c 0,13,14
 515 896 515 896 441 896 c 256,15,16
 367 896 367 896 310 845 c 0,17,18
 258 794 258 794 258 730 c 2,0,-1
449 1462 m 0,19,20
 591 1462 591 1462 690 1356 c 0,21,22
 728 1312 728 1312 741 1281 c 1,23,24
 616 1220 616 1220 614 1220 c 0,25,26
 606 1239 606 1239 588 1259 c 0,27,28
 532 1322 532 1322 448 1322 c 0,29,30
 385 1322 385 1322 333 1292 c 1,31,32
 272 1251 272 1251 272 1186 c 2,33,-1
 272 1185 l 2,34,35
 272 1133 272 1133 316 1103 c 0,36,37
 342 1082 342 1082 405 1059 c 0,38,39
 460 1040 460 1040 533 1024 c 1,40,41
 631 995 631 995 694 923 c 0,42,43
 721 888 721 888 734 864 c 0,44,45
 766 797 766 797 766 736 c 2,46,-1
 766 722 l 2,47,48
 766 645 766 645 718 567 c 0,49,50
 682 514 682 514 633 481 c 1,51,52
 656 466 656 466 683 441 c 0,53,54
 752 371 752 371 752 278 c 2,55,-1
 752 267 l 2,56,57
 752 193 752 193 706 124 c 0,58,59
 696 108 696 108 668 80 c 0,60,61
 617 35 617 35 556 15 c 0,62,63
 495 -4 495 -4 444 -4 c 2,64,-1
 428 -4 l 2,65,66
 341 -4 341 -4 260 45 c 1,67,68
 180 99 180 99 142 178 c 1,69,-1
 269 238 l 1,70,71
 277 220 277 220 294 200 c 0,72,73
 350 137 350 137 433 137 c 2,74,-1
 438 137 l 2,75,76
 500 137 500 137 551 167 c 0,77,78
 612 207 612 207 612 272 c 2,79,-1
 612 273 l 2,80,81
 612 323 612 323 571 352 c 0,82,83
 556 364 556 364 542 371 c 0,84,85
 502 394 502 394 430 415 c 0,86,87
 398 424 398 424 354 433 c 0,88,89
 313 445 313 445 288 459 c 0,90,91
 259 472 259 472 216 509 c 0,92,93
 186 538 186 538 175 555 c 0,94,95
 118 636 118 636 118 723 c 2,96,-1
 118 736 l 2,97,98
 118 809 118 809 162 884 c 0,99,100
 175 906 175 906 200 934 c 0,101,102
 230 963 230 963 251 977 c 1,103,104
 131 1054 131 1054 131 1185 c 0,105,106
 131 1289 131 1289 206 1369 c 0,107,108
 247 1408 247 1408 279 1422 c 0,109,110
 356 1462 356 1462 449 1462 c 0,19,20
EndSplineSet
EndChar

StartChar: dieresis
Encoding: 168 168 105
Width: 1024
Flags: W
LayerCount: 3
Fore
SplineSet
342 1349 m 0,0,1
 385 1349 385 1349 417 1315 c 0,2,3
 442 1285 442 1285 442 1253 c 2,4,-1
 442 1246 l 2,5,6
 442 1207 442 1207 409 1175 c 0,7,8
 379 1149 379 1149 342 1149 c 2,9,-1
 341 1149 l 2,10,11
 290 1149 290 1149 257 1195 c 0,12,13
 242 1222 242 1222 242 1245 c 2,14,-1
 242 1253 l 2,15,16
 242 1292 242 1292 275 1324 c 0,17,18
 305 1349 305 1349 342 1349 c 0,0,1
682 1349 m 0,19,20
 725 1349 725 1349 757 1315 c 0,21,22
 782 1285 782 1285 782 1253 c 2,23,-1
 782 1246 l 2,24,25
 782 1207 782 1207 749 1175 c 0,26,27
 719 1149 719 1149 682 1149 c 2,28,-1
 681 1149 l 2,29,30
 630 1149 630 1149 597 1195 c 0,31,32
 582 1222 582 1222 582 1245 c 2,33,-1
 582 1253 l 2,34,35
 582 1292 582 1292 615 1324 c 0,36,37
 645 1349 645 1349 682 1349 c 0,19,20
EndSplineSet
EndChar

StartChar: copyright
Encoding: 169 169 106
Width: 1913
Flags: W
LayerCount: 3
Fore
SplineSet
956 1464 m 0,0,1
 1198 1464 1198 1464 1403 1324 c 0,2,3
 1441 1299 1441 1299 1491 1252 c 0,4,5
 1543 1202 1543 1202 1554 1187 c 0,6,7
 1592 1141 1592 1141 1613 1108 c 0,8,9
 1738 910 1738 910 1738 682 c 0,10,11
 1738 459 1738 459 1618 265 c 0,12,13
 1592 222 1592 222 1545 167 c 0,14,15
 1496 114 1496 114 1464 87 c 0,16,17
 1414 46 1414 46 1379 23 c 0,18,19
 1181 -100 1181 -100 956 -100 c 0,20,21
 729 -100 729 -100 530 26 c 0,22,23
 488 54 488 54 435 100 c 0,24,25
 379 153 379 153 367 168 c 0,26,27
 314 233 314 233 290 273 c 0,28,29
 260 320 260 320 237 375 c 0,30,31
 175 524 175 524 175 672 c 2,32,-1
 175 693 l 2,33,34
 175 841 175 841 238 993 c 0,35,36
 265 1052 265 1052 307 1119 c 0,37,38
 333 1156 333 1156 374 1203 c 0,39,40
 426 1259 426 1259 448 1275 c 0,41,42
 504 1323 504 1323 550 1350 c 0,43,44
 740 1464 740 1464 956 1464 c 0,0,1
313 683 m 2,45,-1
 313 679 l 2,46,47
 313 483 313 483 428 313 c 0,48,49
 450 282 450 282 486 243 c 0,50,51
 526 202 526 202 543 189 c 0,52,53
 587 153 587 153 629 127 c 0,54,55
 783 39 783 39 954 39 c 2,56,-1
 959 39 l 2,57,58
 1145 39 1145 39 1308 144 c 0,59,60
 1333 158 1333 158 1367 187 c 0,61,62
 1384 199 1384 199 1432 246 c 1,63,-1
 1450 270 l 2,64,65
 1489 316 1489 316 1512 357 c 0,66,67
 1600 510 1600 510 1600 681 c 0,68,69
 1600 884 1600 884 1479 1057 c 0,70,71
 1457 1088 1457 1088 1413 1135 c 0,72,73
 1359 1187 1359 1187 1323 1210 c 0,74,75
 1154 1325 1154 1325 956 1325 c 0,76,77
 756 1325 756 1325 584 1207 c 0,78,79
 556 1188 556 1188 504 1138 c 0,80,81
 456 1090 456 1090 437 1061 c 0,82,83
 412 1025 412 1025 392 989 c 0,84,85
 313 844 313 844 313 683 c 2,45,-1
993 1165 m 0,86,87
 1145 1165 1145 1165 1270 1057 c 0,88,89
 1305 1023 1305 1023 1319 1005 c 0,90,91
 1345 973 1345 973 1357 952 c 1,92,-1
 1238 879 l 1,93,-1
 1228 893 l 2,94,95
 1215 914 1215 914 1188 941 c 0,96,97
 1149 977 1149 977 1129 986 c 0,98,99
 1065 1025 1065 1025 993 1025 c 0,100,101
 890 1025 890 1025 804 947 c 0,102,103
 767 910 767 910 758 893 c 0,104,105
 738 864 738 864 725 833 c 0,106,107
 694 760 694 760 694 683 c 2,108,-1
 694 679 l 2,109,110
 694 566 694 566 758 470 c 0,111,112
 769 452 769 452 793 426 c 0,113,114
 882 338 882 338 993 338 c 0,115,116
 1107 338 1107 338 1197 430 c 0,117,118
 1218 453 1218 453 1240 486 c 1,119,120
 1358 415 1358 415 1359 414 c 0,121,122
 1342 384 1342 384 1312 348 c 0,123,124
 1272 305 1272 305 1259 296 c 0,125,126
 1230 273 1230 273 1207 258 c 0,127,128
 1105 198 1105 198 995 198 c 2,129,-1
 991 198 l 2,130,131
 843 198 843 198 719 303 c 0,132,133
 676 344 676 344 669 355 c 0,134,135
 645 384 645 384 626 415 c 0,136,137
 602 456 602 456 588 495 c 0,138,139
 554 586 554 586 554 673 c 2,140,-1
 554 688 l 2,141,142
 554 805 554 805 610 918 c 0,143,144
 627 953 627 953 654 988 c 0,145,146
 665 1006 665 1006 702 1044 c 0,147,148
 748 1086 748 1086 774 1100 c 0,149,150
 876 1165 876 1165 993 1165 c 0,86,87
EndSplineSet
EndChar

StartChar: guillemotleft
Encoding: 171 171 108
Width: 1207
Flags: W
LayerCount: 3
Fore
SplineSet
117 387 m 1,0,-1
 117 494 l 1,1,-1
 395 676 l 1,2,-1
 506 749 l 1,3,4
 583 634 583 634 583 632 c 2,5,-1
 291 440 l 1,6,7
 571 257 571 257 583 248 c 1,8,-1
 507 132 l 2,9,10
 505 132 505 132 463 160 c 2,11,-1
 240 306 l 1,12,-1
 117 387 l 1,0,-1
567 387 m 1,13,-1
 567 494 l 1,14,-1
 845 676 l 1,15,-1
 956 749 l 1,16,17
 1033 634 1033 634 1033 632 c 2,18,-1
 741 440 l 1,19,20
 1021 257 1021 257 1033 248 c 1,21,-1
 957 132 l 2,22,23
 955 132 955 132 913 160 c 2,24,-1
 690 306 l 1,25,-1
 567 387 l 1,13,-1
EndSplineSet
EndChar

StartChar: logicalnot
Encoding: 172 172 109
Width: 900
Flags: W
LayerCount: 3
Fore
SplineSet
660 670 m 1,0,-1
 100 670 l 1,1,-1
 100 810 l 1,2,-1
 800 810 l 1,3,-1
 800 350 l 1,4,-1
 660 350 l 1,5,-1
 660 670 l 1,0,-1
EndSplineSet
EndChar

StartChar: registered
Encoding: 174 174 110
Width: 1913
Flags: W
LayerCount: 3
Fore
SplineSet
810 1054 m 1,0,-1
 810 585 l 1,1,-1
 973 585 l 2,2,3
 1023 585 1023 585 1056 599 c 0,4,5
 1088 612 1088 612 1121 641 c 0,6,7
 1144 663 1144 663 1151 676 c 0,8,9
 1197 741 1197 741 1197 817 c 2,10,-1
 1197 842 l 2,11,12
 1197 920 1197 920 1148 980 c 0,13,14
 1128 1002 1128 1002 1116 1009 c 0,15,16
 1058 1054 1058 1054 984 1054 c 2,17,-1
 810 1054 l 1,0,-1
705 200 m 1,18,-1
 705 1158 l 1,19,-1
 706 1159 l 1,20,-1
 988 1159 l 2,21,22
 1067 1159 1067 1159 1143 1119 c 0,23,24
 1167 1106 1167 1106 1195 1083 c 0,25,26
 1223 1057 1223 1057 1230 1045 c 0,27,28
 1256 1014 1256 1014 1267 991 c 0,29,30
 1302 919 1302 919 1302 847 c 2,31,-1
 1302 813 l 2,32,33
 1302 731 1302 731 1259 649 c 0,34,35
 1208 557 1208 557 1117 512 c 1,36,-1
 1240 200 l 1,37,-1
 1127 200 l 1,38,-1
 1038 427 l 1,39,-1
 1016 482 l 1,40,41
 1000 480 1000 480 981 480 c 2,42,-1
 810 480 l 1,43,-1
 810 200 l 1,44,-1
 705 200 l 1,18,-1
956 1464 m 0,45,46
 1198 1464 1198 1464 1403 1324 c 0,47,48
 1441 1299 1441 1299 1491 1252 c 0,49,50
 1543 1202 1543 1202 1554 1187 c 0,51,52
 1592 1141 1592 1141 1613 1108 c 0,53,54
 1738 910 1738 910 1738 682 c 0,55,56
 1738 459 1738 459 1618 265 c 0,57,58
 1592 222 1592 222 1545 167 c 0,59,60
 1496 114 1496 114 1464 87 c 0,61,62
 1414 46 1414 46 1379 23 c 0,63,64
 1181 -100 1181 -100 956 -100 c 0,65,66
 729 -100 729 -100 530 26 c 0,67,68
 488 54 488 54 435 100 c 0,69,70
 379 153 379 153 367 168 c 0,71,72
 314 233 314 233 290 273 c 0,73,74
 260 320 260 320 237 375 c 0,75,76
 175 524 175 524 175 672 c 2,77,-1
 175 693 l 2,78,79
 175 841 175 841 238 993 c 0,80,81
 265 1052 265 1052 307 1119 c 0,82,83
 333 1156 333 1156 374 1203 c 0,84,85
 426 1259 426 1259 448 1275 c 0,86,87
 504 1323 504 1323 550 1350 c 0,88,89
 740 1464 740 1464 956 1464 c 0,45,46
313 683 m 2,90,-1
 313 679 l 2,91,92
 313 483 313 483 428 313 c 0,93,94
 450 282 450 282 486 243 c 0,95,96
 526 202 526 202 543 189 c 0,97,98
 587 153 587 153 629 127 c 0,99,100
 783 39 783 39 954 39 c 2,101,-1
 959 39 l 2,102,103
 1145 39 1145 39 1308 144 c 0,104,105
 1333 158 1333 158 1367 187 c 0,106,107
 1384 199 1384 199 1432 246 c 1,108,-1
 1450 270 l 2,109,110
 1489 316 1489 316 1512 357 c 0,111,112
 1600 510 1600 510 1600 681 c 0,113,114
 1600 884 1600 884 1479 1057 c 0,115,116
 1457 1088 1457 1088 1413 1135 c 0,117,118
 1359 1187 1359 1187 1323 1210 c 0,119,120
 1154 1325 1154 1325 956 1325 c 0,121,122
 756 1325 756 1325 584 1207 c 0,123,124
 556 1188 556 1188 504 1138 c 0,125,126
 456 1090 456 1090 437 1061 c 0,127,128
 412 1025 412 1025 392 989 c 0,129,130
 313 844 313 844 313 683 c 2,90,-1
EndSplineSet
EndChar

StartChar: degree
Encoding: 176 176 112
Width: 552
Flags: W
LayerCount: 3
Fore
SplineSet
101 1240 m 2,0,-1
 101 1239 l 2,1,2
 101 1211 101 1211 125 1191 c 0,3,4
 142 1178 142 1178 161 1178 c 0,5,6
 190 1178 190 1178 210 1202 c 0,7,8
 222 1220 222 1220 222 1239 c 2,9,-1
 222 1241 l 2,10,11
 222 1264 222 1264 205 1282 c 0,12,13
 186 1300 186 1300 161 1300 c 0,14,15
 137 1300 137 1300 119 1283 c 0,16,17
 101 1264 101 1264 101 1240 c 2,0,-1
160 1400 m 2,18,-1
 162 1400 l 2,19,20
 219 1400 219 1400 267 1361 c 0,21,22
 285 1343 285 1343 290 1336 c 0,23,24
 323 1291 323 1291 323 1239 c 0,25,26
 323 1174 323 1174 274 1124 c 2,27,-1
 266 1115 l 1,28,29
 219 1078 219 1078 161 1078 c 0,30,31
 104 1078 104 1078 57 1115 c 0,32,33
 43 1128 43 1128 37 1137 c 0,34,35
 24 1153 24 1153 17 1165 c 0,36,37
 0 1201 0 1201 0 1234 c 2,38,-1
 0 1243 l 2,39,40
 0 1290 0 1290 31 1334 c 0,41,42
 37 1343 37 1343 53 1359 c 0,43,44
 102 1400 102 1400 160 1400 c 2,18,-1
EndSplineSet
EndChar

StartChar: plusminus
Encoding: 177 177 113
Width: 802
Flags: W
LayerCount: 3
Fore
SplineSet
76 330 m 1,0,-1
 726 330 l 1,1,-1
 726 190 l 1,2,-1
 76 190 l 1,3,-1
 76 330 l 1,0,-1
331 840 m 1,4,-1
 331 1095 l 1,5,-1
 471 1095 l 1,6,-1
 471 840 l 1,7,-1
 726 840 l 1,8,-1
 726 700 l 1,9,-1
 471 700 l 1,10,-1
 471 445 l 1,11,-1
 331 445 l 1,12,-1
 331 700 l 1,13,-1
 76 700 l 1,14,-1
 76 840 l 1,15,-1
 331 840 l 1,4,-1
EndSplineSet
EndChar

StartChar: acute
Encoding: 180 180 116
Width: 887
Flags: W
LayerCount: 3
Fore
SplineSet
645 1798 m 1,0,-1
 316 1594 l 1,1,-1
 242 1713 l 1,2,-1
 572 1916 l 1,3,-1
 645 1798 l 1,0,-1
EndSplineSet
EndChar

StartChar: paragraph
Encoding: 182 182 118
Width: 1121
Flags: W
LayerCount: 3
Fore
SplineSet
734 100 m 1,0,-1
 734 1215 l 1,1,-1
 568 1215 l 1,2,-1
 568 100 l 1,3,-1
 428 100 l 1,4,-1
 428 663 l 1,5,6
 293 682 293 682 209 761 c 0,7,8
 107 855 107 855 107 1006 c 0,9,10
 107 1163 107 1163 214.5 1259 c 128,-1,11
 322 1355 322 1355 500 1355 c 2,12,-1
 943 1355 l 1,13,-1
 943 1215 l 1,14,-1
 874 1215 l 1,15,-1
 874 100 l 1,16,-1
 734 100 l 1,0,-1
EndSplineSet
EndChar

StartChar: periodcentered
Encoding: 183 183 119
AltUni2: 002219.ffffffff.0
Width: 684
Flags: W
LayerCount: 3
Fore
SplineSet
341 900 m 2,0,-1
 343 900 l 2,1,2
 386 900 386 900 418 865 c 0,3,4
 442 835 442 835 442 804 c 2,5,-1
 442 798 l 2,6,7
 442 755 442 755 405 723 c 0,8,9
 377 700 377 700 341 700 c 0,10,11
 303 700 303 700 272 728 c 0,12,13
 242 760 242 760 242 796 c 2,14,-1
 242 804 l 2,15,16
 242 842 242 842 275 874 c 0,17,18
 304 900 304 900 341 900 c 2,0,-1
EndSplineSet
EndChar

StartChar: cedilla
Encoding: 184 184 120
Width: 766
Flags: W
LayerCount: 3
Fore
SplineSet
422 0 m 1,0,-1
 409 -59 l 1,1,2
 425 -61 425 -61 439 -66 c 0,3,4
 481 -81 481 -81 503 -120 c 0,5,6
 521 -155 521 -155 521 -190 c 0,7,8
 521 -250 521 -250 473 -295 c 0,9,10
 428 -334 428 -334 373 -334 c 0,11,12
 303 -334 303 -334 253 -274 c 0,13,14
 245 -266 245 -266 245 -264 c 2,15,-1
 327 -204 l 1,16,-1
 328 -204 l 1,17,18
 349 -231 349 -231 373 -231 c 0,19,20
 394 -231 394 -231 409 -214 c 0,21,22
 418 -202 418 -202 418 -190 c 0,23,24
 418 -177 418 -177 411 -168.5 c 128,-1,25
 404 -160 404 -160 390 -156 c 0,26,27
 373 -155 373 -155 348 -163 c 2,28,-1
 279 -187 l 1,29,-1
 279 -186 l 1,30,-1
 316 0 l 1,31,-1
 422 0 l 1,0,-1
EndSplineSet
EndChar

StartChar: guillemotright
Encoding: 187 187 123
Width: 1207
Flags: W
LayerCount: 3
Fore
SplineSet
967 306 m 1,0,-1
 744 160 l 2,1,2
 702 132 702 132 700 132 c 2,3,-1
 624 248 l 1,4,5
 636 257 636 257 916 440 c 1,6,-1
 624 632 l 2,7,8
 624 634 624 634 701 749 c 1,9,-1
 812 676 l 1,10,-1
 1090 494 l 1,11,-1
 1090 387 l 1,12,-1
 967 306 l 1,0,-1
517 306 m 1,13,-1
 294 160 l 2,14,15
 252 132 252 132 250 132 c 2,16,-1
 174 248 l 1,17,18
 186 257 186 257 466 440 c 1,19,-1
 174 632 l 2,20,21
 174 634 174 634 251 749 c 1,22,-1
 362 676 l 1,23,-1
 640 494 l 1,24,-1
 640 387 l 1,25,-1
 517 306 l 1,13,-1
EndSplineSet
EndChar

StartChar: questiondown
Encoding: 191 191 127
Width: 1025
Flags: W
LayerCount: 3
Fore
SplineSet
503 1303 m 2,0,-1
 502 1303 l 2,1,2
 450 1303 450 1303 417 1350 c 0,3,4
 402 1376 402 1376 402 1401 c 2,5,-1
 402 1405 l 2,6,7
 402 1448 402 1448 439 1480 c 0,8,9
 467 1503 467 1503 503 1503 c 0,10,11
 545 1503 545 1503 576 1471 c 0,12,13
 602 1441 602 1441 602 1403 c 0,14,15
 602 1354 602 1354 561 1322 c 0,16,17
 534 1303 534 1303 503 1303 c 2,0,-1
500 0 m 2,18,-1
 486 0 l 2,19,20
 387 0 387 0 291 57 c 0,21,22
 265 72 265 72 226 107 c 0,23,24
 183 151 183 151 171 172 c 0,25,26
 146 206 146 206 128 249 c 0,27,28
 94 334 94 334 94 413 c 2,29,-1
 94 426 l 2,30,31
 94 513 94 513 138 610 c 0,32,33
 156 647 156 647 185 686 c 0,34,35
 198 705 198 705 231 738 c 0,36,37
 269 774 269 774 317 807 c 0,38,39
 354 834 354 834 390 866 c 0,40,41
 433 905 433 905 433 950 c 2,42,-1
 432 1076 l 1,43,-1
 432 1195 l 1,44,-1
 433 1196 l 1,45,-1
 572 1196 l 1,46,-1
 573 1038 l 1,47,-1
 573 953 l 2,48,49
 573 845 573 845 489 766 c 0,50,51
 446 727 446 727 395 691 c 0,52,53
 356 663 356 663 328 637 c 0,54,55
 293 601 293 601 286 586 c 0,56,57
 269 561 269 561 256 531 c 0,58,59
 234 473 234 473 234 421 c 2,60,-1
 234 420 l 2,61,62
 234 313 234 313 305 228 c 0,63,64
 336 195 336 195 347 189 c 0,65,66
 414 140 414 140 492 140 c 2,67,-1
 494 140 l 2,68,69
 585 140 585 140 661 207 c 0,70,71
 692 238 692 238 701 254 c 0,72,73
 752 330 752 330 752 419 c 2,74,-1
 752 455 l 1,75,-1
 753 456 l 1,76,-1
 891 456 l 1,77,-1
 892 455 l 1,78,-1
 892 413 l 2,79,80
 892 312 892 312 840 211 c 0,81,82
 827 188 827 188 801 153 c 0,83,84
 790 137 790 137 758 106 c 0,85,86
 720 72 720 72 690 55 c 0,87,88
 596 0 596 0 500 0 c 2,18,-1
EndSplineSet
EndChar

StartChar: Agrave
Encoding: 192 192 128
Width: 1033
Flags: W
LayerCount: 3
Fore
SplineSet
405 771 m 1,0,-1
 347 572 l 1,1,-1
 715 572 l 1,2,-1
 577 1046 l 1,3,-1
 531 1205 l 1,4,-1
 405 771 l 1,0,-1
601 1464 m 1,5,-1
 740 989 l 1,6,-1
 901 433 l 1,7,-1
 1027 0 l 1,8,-1
 881 0 l 1,9,-1
 869 40 l 1,10,-1
 755 432 l 1,11,-1
 306 432 l 1,12,-1
 181 0 l 1,13,-1
 36 0 l 1,14,-1
 35 1 l 1,15,-1
 197 559 l 1,16,-1
 324 997 l 1,17,-1
 460 1464 l 1,18,-1
 601 1464 l 1,5,-1
403 1916 m 1,19,-1
 733 1713 l 1,20,-1
 659 1594 l 1,21,-1
 330 1798 l 1,22,-1
 403 1916 l 1,19,-1
EndSplineSet
EndChar

StartChar: Aacute
Encoding: 193 193 129
Width: 1033
Flags: W
LayerCount: 3
Fore
SplineSet
405 771 m 1,0,-1
 347 572 l 1,1,-1
 715 572 l 1,2,-1
 577 1046 l 1,3,-1
 531 1205 l 1,4,-1
 405 771 l 1,0,-1
601 1464 m 1,5,-1
 740 989 l 1,6,-1
 901 433 l 1,7,-1
 1027 0 l 1,8,-1
 881 0 l 1,9,-1
 869 40 l 1,10,-1
 755 432 l 1,11,-1
 306 432 l 1,12,-1
 181 0 l 1,13,-1
 36 0 l 1,14,-1
 35 1 l 1,15,-1
 197 559 l 1,16,-1
 324 997 l 1,17,-1
 460 1464 l 1,18,-1
 601 1464 l 1,5,-1
733 1798 m 1,19,-1
 404 1594 l 1,20,-1
 330 1713 l 1,21,-1
 660 1916 l 1,22,-1
 733 1798 l 1,19,-1
EndSplineSet
EndChar

StartChar: Acircumflex
Encoding: 194 194 130
Width: 1033
Flags: W
LayerCount: 3
Fore
SplineSet
405 771 m 1,0,-1
 347 572 l 1,1,-1
 715 572 l 1,2,-1
 577 1046 l 1,3,-1
 531 1205 l 1,4,-1
 405 771 l 1,0,-1
601 1464 m 1,5,-1
 740 989 l 1,6,-1
 901 433 l 1,7,-1
 1027 0 l 1,8,-1
 881 0 l 1,9,-1
 869 40 l 1,10,-1
 755 432 l 1,11,-1
 306 432 l 1,12,-1
 181 0 l 1,13,-1
 36 0 l 1,14,-1
 35 1 l 1,15,-1
 197 559 l 1,16,-1
 324 997 l 1,17,-1
 460 1464 l 1,18,-1
 601 1464 l 1,5,-1
487 1916 m 1,19,-1
 576 1916 l 2,20,21
 579 1914 579 1914 679 1795 c 2,22,-1
 782 1672 l 1,23,-1
 676 1582 l 2,24,25
 673 1584 673 1584 627 1640 c 0,26,27
 534 1749 534 1749 532 1752 c 2,28,-1
 388 1582 l 1,29,-1
 387 1582 l 1,30,-1
 281 1672 l 1,31,-1
 281 1673 l 1,32,-1
 487 1916 l 1,19,-1
EndSplineSet
EndChar

StartChar: Atilde
Encoding: 195 195 131
Width: 1033
Flags: W
LayerCount: 3
Fore
SplineSet
405 771 m 1,0,-1
 347 572 l 1,1,-1
 715 572 l 1,2,-1
 577 1046 l 1,3,-1
 531 1205 l 1,4,-1
 405 771 l 1,0,-1
601 1464 m 1,5,-1
 740 989 l 1,6,-1
 901 433 l 1,7,-1
 1027 0 l 1,8,-1
 881 0 l 1,9,-1
 869 40 l 1,10,-1
 755 432 l 1,11,-1
 306 432 l 1,12,-1
 181 0 l 1,13,-1
 36 0 l 1,14,-1
 35 1 l 1,15,-1
 197 559 l 1,16,-1
 324 997 l 1,17,-1
 460 1464 l 1,18,-1
 601 1464 l 1,5,-1
825 1722 m 1,19,20
 794 1688 794 1688 764 1671 c 0,21,22
 717 1646 717 1646 672 1646 c 0,23,24
 623 1646 623 1646 530 1694.5 c 128,-1,25
 437 1743 437 1743 389 1743 c 0,26,27
 349 1743 349 1743 304 1715 c 0,28,29
 274 1696 274 1696 238 1653 c 1,30,-1
 238 1807 l 1,31,32
 269 1842 269 1842 299 1858 c 0,33,34
 346 1884 346 1884 389 1884 c 0,35,36
 441 1884 441 1884 534 1834.5 c 128,-1,37
 627 1785 627 1785 672 1785 c 0,38,39
 713 1785 713 1785 758 1813 c 0,40,41
 788 1832 788 1832 825 1876 c 1,42,-1
 825 1722 l 1,19,20
EndSplineSet
EndChar

StartChar: Adieresis
Encoding: 196 196 132
Width: 1033
Flags: W
LayerCount: 3
Fore
SplineSet
361 1855 m 0,0,1
 404 1855 404 1855 436 1821 c 0,2,3
 461 1791 461 1791 461 1759 c 2,4,-1
 461 1752 l 2,5,6
 461 1713 461 1713 428 1681 c 0,7,8
 398 1655 398 1655 361 1655 c 2,9,-1
 360 1655 l 2,10,11
 309 1655 309 1655 276 1701 c 0,12,13
 261 1728 261 1728 261 1751 c 2,14,-1
 261 1759 l 2,15,16
 261 1798 261 1798 294 1830 c 0,17,18
 324 1855 324 1855 361 1855 c 0,0,1
701 1855 m 0,19,20
 744 1855 744 1855 776 1821 c 0,21,22
 801 1791 801 1791 801 1759 c 2,23,-1
 801 1752 l 2,24,25
 801 1713 801 1713 768 1681 c 0,26,27
 738 1655 738 1655 701 1655 c 2,28,-1
 700 1655 l 2,29,30
 649 1655 649 1655 616 1701 c 0,31,32
 601 1728 601 1728 601 1751 c 2,33,-1
 601 1759 l 2,34,35
 601 1798 601 1798 634 1830 c 0,36,37
 664 1855 664 1855 701 1855 c 0,19,20
405 771 m 1,38,-1
 347 572 l 1,39,-1
 715 572 l 1,40,-1
 577 1046 l 1,41,-1
 531 1205 l 1,42,-1
 405 771 l 1,38,-1
601 1464 m 1,43,-1
 740 989 l 1,44,-1
 901 433 l 1,45,-1
 1027 0 l 1,46,-1
 881 0 l 1,47,-1
 869 40 l 1,48,-1
 755 432 l 1,49,-1
 306 432 l 1,50,-1
 181 0 l 1,51,-1
 36 0 l 1,52,-1
 35 1 l 1,53,-1
 197 559 l 1,54,-1
 324 997 l 1,55,-1
 460 1464 l 1,56,-1
 601 1464 l 1,43,-1
EndSplineSet
EndChar

StartChar: Aring
Encoding: 197 197 133
Width: 1033
Flags: W
LayerCount: 3
Fore
SplineSet
531 1634 m 0,0,1
 510 1634 510 1634 494.5 1618.5 c 128,-1,2
 479 1603 479 1603 479 1581 c 0,3,4
 479 1560 479 1560 494 1544.5 c 128,-1,5
 509 1529 509 1529 531 1529 c 256,6,7
 553 1529 553 1529 568 1544.5 c 128,-1,8
 583 1560 583 1560 583 1581 c 0,9,10
 583 1603 583 1603 568 1618.5 c 128,-1,11
 553 1634 553 1634 531 1634 c 0,0,1
405 771 m 1,12,-1
 347 572 l 1,13,-1
 715 572 l 1,14,-1
 577 1046 l 1,15,-1
 531 1205 l 1,16,-1
 405 771 l 1,12,-1
460 1463 m 1,17,18
 446 1472 446 1472 434 1484 c 0,19,20
 394 1524 394 1524 394 1582 c 0,21,22
 394 1638 394 1638 434 1678 c 128,-1,23
 474 1718 474 1718 532 1718 c 0,24,25
 587 1718 587 1718 627.5 1678 c 128,-1,26
 668 1638 668 1638 668 1582 c 0,27,28
 668 1525 668 1525 627 1485 c 0,29,30
 615 1472 615 1472 601 1464 c 1,31,-1
 740 989 l 1,32,-1
 901 433 l 1,33,-1
 1027 0 l 1,34,-1
 881 0 l 1,35,-1
 869 40 l 1,36,-1
 755 432 l 1,37,-1
 306 432 l 1,38,-1
 181 0 l 1,39,-1
 36 0 l 1,40,-1
 35 1 l 1,41,-1
 197 559 l 1,42,-1
 324 997 l 1,43,-1
 460 1463 l 1,17,18
EndSplineSet
EndChar

StartChar: AE
Encoding: 198 198 134
Width: 1698
Flags: W
LayerCount: 3
Fore
SplineSet
881 1205 m 1,0,-1
 706 904 l 1,1,-1
 513 572 l 1,2,-1
 881 572 l 1,3,-1
 881 1205 l 1,0,-1
885 1464 m 1,4,-1
 1590 1464 l 1,5,-1
 1590 1324 l 1,6,-1
 1027 1324 l 1,7,-1
 1027 802 l 1,8,-1
 1476 802 l 1,9,-1
 1477 801 l 1,10,-1
 1477 662 l 1,11,-1
 1027 662 l 1,12,-1
 1027 140 l 1,13,-1
 1590 140 l 1,14,-1
 1590 0 l 1,15,-1
 881 0 l 1,16,-1
 881 432 l 1,17,-1
 432 432 l 2,18,19
 430 429 430 429 407 389 c 2,20,-1
 193 22 l 1,21,-1
 180 0 l 1,22,-1
 35 0 l 1,23,-1
 266 399 l 1,24,-1
 481 768 l 1,25,-1
 734 1204 l 1,26,-1
 881 1457 l 1,27,-1
 885 1464 l 1,4,-1
EndSplineSet
EndChar

StartChar: Ccedilla
Encoding: 199 199 135
Width: 1031
Flags: W
LayerCount: 3
Fore
SplineSet
465 -20 m 1,0,1
 318 -16 318 -16 217 93 c 0,2,3
 186 129 186 129 173 152 c 0,4,5
 153 186 153 186 140 220 c 0,6,7
 97 332 97 332 97 462 c 2,8,-1
 97 999 l 2,9,10
 97 1169 97 1169 164 1296 c 0,11,12
 175 1317 175 1317 201 1351 c 0,13,14
 212 1367 212 1367 243 1397 c 0,15,16
 266 1417 266 1417 285 1430 c 0,17,18
 373 1484 373 1484 468 1484 c 2,19,-1
 604 1484 l 2,20,21
 686 1484 686 1484 767 1441 c 0,22,23
 877 1379 877 1379 932 1242 c 0,24,25
 975 1133 975 1133 975 989 c 1,26,-1
 836 989 l 2,27,28
 834 989 834 989 834 991 c 2,29,-1
 834 999 l 2,30,31
 834 1119 834 1119 793 1212 c 0,32,33
 780 1239 780 1239 758 1268 c 0,34,35
 694 1344 694 1344 597 1344 c 2,36,-1
 475 1344 l 2,37,38
 363 1344 363 1344 298 1246 c 0,39,40
 237 1150 237 1150 237 991 c 2,41,-1
 237 471 l 2,42,43
 237 322 237 322 292 227 c 0,44,45
 303 206 303 206 329 178 c 0,46,47
 361 150 361 150 377 143 c 0,48,49
 418 120 418 120 485 120 c 2,50,-1
 587 120 l 2,51,52
 660 120 660 120 706 150 c 0,53,54
 774 191 774 191 809 293 c 0,55,56
 834 373 834 373 834 464 c 2,57,-1
 834 472 l 2,58,59
 835 474 835 474 836 474 c 2,60,-1
 974 474 l 2,61,62
 975 474 975 474 975 473 c 0,63,64
 975 234 975 234 858 97 c 1,65,66
 752 -20 752 -20 595 -20 c 2,67,-1
 571 -20 l 1,68,-1
 562 -59 l 1,69,70
 578 -61 578 -61 592 -66 c 0,71,72
 634 -81 634 -81 656 -120 c 0,73,74
 674 -155 674 -155 674 -190 c 0,75,76
 674 -250 674 -250 626 -295 c 0,77,78
 581 -334 581 -334 526 -334 c 0,79,80
 456 -334 456 -334 406 -274 c 0,81,82
 398 -266 398 -266 398 -264 c 2,83,-1
 480 -204 l 1,84,-1
 481 -204 l 1,85,86
 502 -231 502 -231 526 -231 c 0,87,88
 547 -231 547 -231 562 -214 c 0,89,90
 571 -202 571 -202 571 -190 c 0,91,92
 571 -177 571 -177 564 -168.5 c 128,-1,93
 557 -160 557 -160 543 -156 c 0,94,95
 526 -155 526 -155 501 -163 c 2,96,-1
 432 -187 l 1,97,-1
 432 -186 l 1,98,-1
 465 -20 l 1,0,1
EndSplineSet
EndChar

StartChar: Egrave
Encoding: 200 200 136
Width: 989
Flags: W
LayerCount: 3
Fore
SplineSet
173 1464 m 1,0,-1
 880 1464 l 1,1,-1
 881 1463 l 1,2,-1
 881 1324 l 1,3,-1
 312 1324 l 1,4,-1
 312 802 l 1,5,-1
 773 802 l 1,6,-1
 774 801 l 1,7,-1
 774 663 l 1,8,-1
 773 662 l 1,9,-1
 312 662 l 1,10,-1
 312 140 l 1,11,-1
 880 140 l 1,12,-1
 881 139 l 1,13,-1
 881 1 l 1,14,-1
 880 0 l 1,15,-1
 173 0 l 1,16,-1
 172 1 l 1,17,-1
 172 1463 l 1,18,-1
 173 1464 l 1,0,-1
398 1916 m 1,19,-1
 728 1713 l 1,20,-1
 654 1594 l 1,21,-1
 325 1798 l 1,22,-1
 398 1916 l 1,19,-1
EndSplineSet
EndChar

StartChar: Eacute
Encoding: 201 201 137
Width: 989
Flags: W
LayerCount: 3
Fore
SplineSet
173 1464 m 1,0,-1
 880 1464 l 1,1,-1
 881 1463 l 1,2,-1
 881 1324 l 1,3,-1
 312 1324 l 1,4,-1
 312 802 l 1,5,-1
 773 802 l 1,6,-1
 774 801 l 1,7,-1
 774 663 l 1,8,-1
 773 662 l 1,9,-1
 312 662 l 1,10,-1
 312 140 l 1,11,-1
 880 140 l 1,12,-1
 881 139 l 1,13,-1
 881 1 l 1,14,-1
 880 0 l 1,15,-1
 173 0 l 1,16,-1
 172 1 l 1,17,-1
 172 1463 l 1,18,-1
 173 1464 l 1,0,-1
728 1798 m 1,19,-1
 399 1594 l 1,20,-1
 325 1713 l 1,21,-1
 655 1916 l 1,22,-1
 728 1798 l 1,19,-1
EndSplineSet
EndChar

StartChar: Ecircumflex
Encoding: 202 202 138
Width: 989
Flags: W
LayerCount: 3
Fore
SplineSet
173 1464 m 1,0,-1
 880 1464 l 1,1,-1
 881 1463 l 1,2,-1
 881 1324 l 1,3,-1
 312 1324 l 1,4,-1
 312 802 l 1,5,-1
 773 802 l 1,6,-1
 774 801 l 1,7,-1
 774 663 l 1,8,-1
 773 662 l 1,9,-1
 312 662 l 1,10,-1
 312 140 l 1,11,-1
 880 140 l 1,12,-1
 881 139 l 1,13,-1
 881 1 l 1,14,-1
 880 0 l 1,15,-1
 173 0 l 1,16,-1
 172 1 l 1,17,-1
 172 1463 l 1,18,-1
 173 1464 l 1,0,-1
482 1916 m 1,19,-1
 571 1916 l 2,20,21
 574 1914 574 1914 674 1795 c 2,22,-1
 777 1672 l 1,23,-1
 671 1582 l 2,24,25
 668 1584 668 1584 622 1640 c 0,26,27
 529 1749 529 1749 527 1752 c 2,28,-1
 383 1582 l 1,29,-1
 382 1582 l 1,30,-1
 276 1672 l 1,31,-1
 276 1673 l 1,32,-1
 482 1916 l 1,19,-1
EndSplineSet
EndChar

StartChar: Edieresis
Encoding: 203 203 139
Width: 989
Flags: W
LayerCount: 3
Fore
SplineSet
357 1855 m 0,0,1
 400 1855 400 1855 432 1821 c 0,2,3
 457 1791 457 1791 457 1759 c 2,4,-1
 457 1752 l 2,5,6
 457 1713 457 1713 424 1681 c 0,7,8
 394 1655 394 1655 357 1655 c 2,9,-1
 356 1655 l 2,10,11
 305 1655 305 1655 272 1701 c 0,12,13
 257 1728 257 1728 257 1751 c 2,14,-1
 257 1759 l 2,15,16
 257 1798 257 1798 290 1830 c 0,17,18
 320 1855 320 1855 357 1855 c 0,0,1
697 1855 m 0,19,20
 740 1855 740 1855 772 1821 c 0,21,22
 797 1791 797 1791 797 1759 c 2,23,-1
 797 1752 l 2,24,25
 797 1713 797 1713 764 1681 c 0,26,27
 734 1655 734 1655 697 1655 c 2,28,-1
 696 1655 l 2,29,30
 645 1655 645 1655 612 1701 c 0,31,32
 597 1728 597 1728 597 1751 c 2,33,-1
 597 1759 l 2,34,35
 597 1798 597 1798 630 1830 c 0,36,37
 660 1855 660 1855 697 1855 c 0,19,20
173 1464 m 1,38,-1
 880 1464 l 1,39,-1
 881 1463 l 1,40,-1
 881 1324 l 1,41,-1
 312 1324 l 1,42,-1
 312 802 l 1,43,-1
 773 802 l 1,44,-1
 774 801 l 1,45,-1
 774 663 l 1,46,-1
 773 662 l 1,47,-1
 312 662 l 1,48,-1
 312 140 l 1,49,-1
 880 140 l 1,50,-1
 881 139 l 1,51,-1
 881 1 l 1,52,-1
 880 0 l 1,53,-1
 173 0 l 1,54,-1
 172 1 l 1,55,-1
 172 1463 l 1,56,-1
 173 1464 l 1,38,-1
EndSplineSet
EndChar

StartChar: Igrave
Encoding: 204 204 140
Width: 484
Flags: W
LayerCount: 3
Fore
SplineSet
173 1464 m 1,0,-1
 311 1464 l 1,1,-1
 312 1463 l 1,2,-1
 312 1 l 1,3,-1
 311 0 l 1,4,-1
 173 0 l 1,5,-1
 172 1 l 1,6,-1
 172 1463 l 1,7,-1
 173 1464 l 1,0,-1
130 1916 m 1,8,-1
 427 1733 l 1,9,-1
 353 1614 l 1,10,-1
 57 1798 l 1,11,-1
 130 1916 l 1,8,-1
EndSplineSet
EndChar

StartChar: Iacute
Encoding: 205 205 141
Width: 484
Flags: W
LayerCount: 3
Fore
SplineSet
173 1464 m 1,0,-1
 311 1464 l 1,1,-1
 312 1463 l 1,2,-1
 312 1 l 1,3,-1
 311 0 l 1,4,-1
 173 0 l 1,5,-1
 172 1 l 1,6,-1
 172 1463 l 1,7,-1
 173 1464 l 1,0,-1
427 1798 m 1,8,-1
 131 1614 l 1,9,-1
 57 1733 l 1,10,-1
 354 1916 l 1,11,-1
 427 1798 l 1,8,-1
EndSplineSet
EndChar

StartChar: Icircumflex
Encoding: 206 206 142
Width: 484
Flags: W
LayerCount: 3
Fore
SplineSet
173 1464 m 1,0,-1
 311 1464 l 1,1,-1
 312 1463 l 1,2,-1
 312 1 l 1,3,-1
 311 0 l 1,4,-1
 173 0 l 1,5,-1
 172 1 l 1,6,-1
 172 1463 l 1,7,-1
 173 1464 l 1,0,-1
197 1916 m 1,8,-1
 286 1916 l 2,9,10
 289 1914 289 1914 389 1795 c 2,11,-1
 492 1672 l 1,12,-1
 386 1582 l 2,13,14
 383 1584 383 1584 337 1640 c 0,15,16
 244 1749 244 1749 242 1752 c 2,17,-1
 98 1582 l 1,18,-1
 97 1582 l 1,19,-1
 -9 1672 l 1,20,-1
 -9 1673 l 1,21,-1
 197 1916 l 1,8,-1
EndSplineSet
EndChar

StartChar: Idieresis
Encoding: 207 207 143
Width: 484
Flags: W
LayerCount: 3
Fore
SplineSet
173 1464 m 1,0,-1
 311 1464 l 1,1,-1
 312 1463 l 1,2,-1
 312 1 l 1,3,-1
 311 0 l 1,4,-1
 173 0 l 1,5,-1
 172 1 l 1,6,-1
 172 1463 l 1,7,-1
 173 1464 l 1,0,-1
72 1855 m 0,8,9
 115 1855 115 1855 147 1821 c 0,10,11
 172 1791 172 1791 172 1759 c 2,12,-1
 172 1752 l 2,13,14
 172 1713 172 1713 139 1681 c 0,15,16
 109 1655 109 1655 72 1655 c 2,17,-1
 71 1655 l 2,18,19
 20 1655 20 1655 -13 1701 c 0,20,21
 -28 1728 -28 1728 -28 1751 c 2,22,-1
 -28 1759 l 2,23,24
 -28 1798 -28 1798 5 1830 c 0,25,26
 35 1855 35 1855 72 1855 c 0,8,9
412 1855 m 0,27,28
 455 1855 455 1855 487 1821 c 0,29,30
 512 1791 512 1791 512 1759 c 2,31,-1
 512 1752 l 2,32,33
 512 1713 512 1713 479 1681 c 0,34,35
 449 1655 449 1655 412 1655 c 2,36,-1
 411 1655 l 2,37,38
 360 1655 360 1655 327 1701 c 0,39,40
 312 1728 312 1728 312 1751 c 2,41,-1
 312 1759 l 2,42,43
 312 1798 312 1798 345 1830 c 0,44,45
 375 1855 375 1855 412 1855 c 0,27,28
EndSplineSet
EndChar

StartChar: Eth
Encoding: 208 208 144
Width: 1156
Flags: W
LayerCount: 3
Fore
SplineSet
312 800 m 1,0,-1
 449 800 l 1,1,-1
 449 660 l 1,2,-1
 312 660 l 1,3,-1
 312 140 l 1,4,-1
 705 140 l 2,5,6
 785 140 785 140 841 200 c 0,7,8
 877 240 877 240 896 296 c 0,9,10
 923 376 923 376 923 472 c 2,11,-1
 923 990 l 2,12,13
 923 1128 923 1128 870 1222 c 0,14,15
 809 1324 809 1324 703 1324 c 2,16,-1
 312 1324 l 1,17,-1
 312 800 l 1,0,-1
172 660 m 1,18,-1
 35 660 l 1,19,-1
 35 800 l 1,20,-1
 172 800 l 1,21,-1
 172 1463 l 1,22,-1
 173 1464 l 1,23,-1
 708 1464 l 2,24,25
 795 1464 795 1464 876 1416 c 0,26,27
 977 1351 977 1351 1026 1221 c 0,28,29
 1039 1184 1039 1184 1050 1131 c 0,30,31
 1063 1060 1063 1060 1063 997 c 2,32,-1
 1063 465 l 2,33,34
 1063 355 1063 355 1029 250 c 0,35,36
 1011 203 1011 203 990 166 c 0,37,38
 974 140 974 140 949 110 c 0,39,40
 923 82 923 82 905 68 c 0,41,42
 856 33 856 33 820 21 c 0,43,44
 763 0 763 0 712 0 c 2,45,-1
 173 0 l 1,46,-1
 172 1 l 1,47,-1
 172 660 l 1,18,-1
EndSplineSet
EndChar

StartChar: Ntilde
Encoding: 209 209 145
Width: 1291
Flags: W
LayerCount: 3
Fore
SplineSet
173 1464 m 1,0,-1
 336 1464 l 2,1,2
 338 1462 338 1462 437 1276 c 2,3,-1
 674 828 l 1,4,-1
 903 396 l 2,5,6
 908 388 908 388 979 253 c 1,7,-1
 979 1463 l 1,8,-1
 980 1464 l 1,9,-1
 1119 1464 l 1,10,-1
 1119 0 l 1,11,-1
 955 0 l 2,12,13
 954 1 954 1 935 37 c 2,14,-1
 692 494 l 1,15,-1
 482 891 l 1,16,-1
 312 1211 l 1,17,-1
 312 1 l 1,18,-1
 311 0 l 1,19,-1
 173 0 l 1,20,-1
 172 1 l 1,21,-1
 172 1463 l 1,22,-1
 173 1464 l 1,0,-1
939 1722 m 1,23,24
 908 1688 908 1688 878 1671 c 0,25,26
 831 1646 831 1646 786 1646 c 0,27,28
 737 1646 737 1646 644 1694.5 c 128,-1,29
 551 1743 551 1743 503 1743 c 0,30,31
 463 1743 463 1743 418 1715 c 0,32,33
 388 1696 388 1696 352 1653 c 1,34,-1
 352 1807 l 1,35,36
 383 1842 383 1842 413 1858 c 0,37,38
 460 1884 460 1884 503 1884 c 0,39,40
 555 1884 555 1884 648 1834.5 c 128,-1,41
 741 1785 741 1785 786 1785 c 0,42,43
 827 1785 827 1785 872 1813 c 0,44,45
 902 1832 902 1832 939 1876 c 1,46,-1
 939 1722 l 1,23,24
EndSplineSet
EndChar

StartChar: Ograve
Encoding: 210 210 146
Width: 1066
Flags: W
LayerCount: 3
Fore
SplineSet
409 1916 m 1,0,-1
 739 1713 l 1,1,-1
 665 1594 l 1,2,-1
 336 1798 l 1,3,-1
 409 1916 l 1,0,-1
470 1483 m 2,4,-1
 604 1483 l 2,5,6
 691 1483 691 1483 773 1437 c 0,7,8
 882 1373 882 1373 935 1238 c 0,9,10
 976 1132 976 1132 976 980 c 2,11,-1
 976 481 l 2,12,13
 976 170 976 170 798 41 c 0,14,15
 765 19 765 19 734 6 c 0,16,17
 668 -20 668 -20 605 -20 c 2,18,-1
 471 -20 l 2,19,20
 374 -20 374 -20 287 34 c 0,21,22
 184 102 184 102 134 240 c 0,23,24
 99 344 99 344 99 462 c 2,25,-1
 99 998 l 2,26,27
 99 1160 99 1160 161 1284 c 0,28,29
 176 1315 176 1315 202 1349 c 0,30,31
 212 1364 212 1364 244 1395 c 0,32,33
 280 1425 280 1425 303 1438 c 0,34,35
 356 1467 356 1467 399 1475 c 0,36,37
 435 1483 435 1483 470 1483 c 2,4,-1
239 991 m 2,38,-1
 239 471 l 2,39,40
 239 325 239 325 292 230 c 0,41,42
 303 208 303 208 329 181 c 0,43,44
 389 120 389 120 476 120 c 2,45,-1
 599 120 l 2,46,47
 708 120 708 120 773 214 c 0,48,49
 794 245 794 245 807 281 c 0,50,51
 814 301 814 301 823 340 c 0,52,53
 836 395 836 395 836 501 c 2,54,-1
 836 950 l 2,55,56
 836 1055 836 1055 828 1097 c 0,57,58
 822 1131 822 1131 814 1157 c 0,59,60
 801 1201 801 1201 785 1228 c 0,61,62
 720 1343 720 1343 598 1343 c 2,63,-1
 476 1343 l 2,64,65
 355 1343 355 1343 289 1227 c 0,66,67
 239 1132 239 1132 239 991 c 2,38,-1
EndSplineSet
EndChar

StartChar: Oacute
Encoding: 211 211 147
Width: 1066
Flags: W
LayerCount: 3
Fore
SplineSet
739 1798 m 1,0,-1
 410 1594 l 1,1,-1
 336 1713 l 1,2,-1
 666 1916 l 1,3,-1
 739 1798 l 1,0,-1
470 1483 m 2,4,-1
 604 1483 l 2,5,6
 691 1483 691 1483 773 1437 c 0,7,8
 882 1373 882 1373 935 1238 c 0,9,10
 976 1132 976 1132 976 980 c 2,11,-1
 976 481 l 2,12,13
 976 170 976 170 798 41 c 0,14,15
 765 19 765 19 734 6 c 0,16,17
 668 -20 668 -20 605 -20 c 2,18,-1
 471 -20 l 2,19,20
 374 -20 374 -20 287 34 c 0,21,22
 184 102 184 102 134 240 c 0,23,24
 99 344 99 344 99 462 c 2,25,-1
 99 998 l 2,26,27
 99 1160 99 1160 161 1284 c 0,28,29
 176 1315 176 1315 202 1349 c 0,30,31
 212 1364 212 1364 244 1395 c 0,32,33
 280 1425 280 1425 303 1438 c 0,34,35
 356 1467 356 1467 399 1475 c 0,36,37
 435 1483 435 1483 470 1483 c 2,4,-1
239 991 m 2,38,-1
 239 471 l 2,39,40
 239 325 239 325 292 230 c 0,41,42
 303 208 303 208 329 181 c 0,43,44
 389 120 389 120 476 120 c 2,45,-1
 599 120 l 2,46,47
 708 120 708 120 773 214 c 0,48,49
 794 245 794 245 807 281 c 0,50,51
 814 301 814 301 823 340 c 0,52,53
 836 395 836 395 836 501 c 2,54,-1
 836 950 l 2,55,56
 836 1055 836 1055 828 1097 c 0,57,58
 822 1131 822 1131 814 1157 c 0,59,60
 801 1201 801 1201 785 1228 c 0,61,62
 720 1343 720 1343 598 1343 c 2,63,-1
 476 1343 l 2,64,65
 355 1343 355 1343 289 1227 c 0,66,67
 239 1132 239 1132 239 991 c 2,38,-1
EndSplineSet
EndChar

StartChar: Ocircumflex
Encoding: 212 212 148
Width: 1066
Flags: W
LayerCount: 3
Fore
SplineSet
493 1916 m 1,0,-1
 582 1916 l 2,1,2
 585 1914 585 1914 685 1795 c 2,3,-1
 788 1672 l 1,4,-1
 682 1582 l 2,5,6
 679 1584 679 1584 633 1640 c 0,7,8
 540 1749 540 1749 538 1752 c 2,9,-1
 394 1582 l 1,10,-1
 393 1582 l 1,11,-1
 287 1672 l 1,12,-1
 287 1673 l 1,13,-1
 493 1916 l 1,0,-1
470 1483 m 2,14,-1
 604 1483 l 2,15,16
 691 1483 691 1483 773 1437 c 0,17,18
 882 1373 882 1373 935 1238 c 0,19,20
 976 1132 976 1132 976 980 c 2,21,-1
 976 481 l 2,22,23
 976 170 976 170 798 41 c 0,24,25
 765 19 765 19 734 6 c 0,26,27
 668 -20 668 -20 605 -20 c 2,28,-1
 471 -20 l 2,29,30
 374 -20 374 -20 287 34 c 0,31,32
 184 102 184 102 134 240 c 0,33,34
 99 344 99 344 99 462 c 2,35,-1
 99 998 l 2,36,37
 99 1160 99 1160 161 1284 c 0,38,39
 176 1315 176 1315 202 1349 c 0,40,41
 212 1364 212 1364 244 1395 c 0,42,43
 280 1425 280 1425 303 1438 c 0,44,45
 356 1467 356 1467 399 1475 c 0,46,47
 435 1483 435 1483 470 1483 c 2,14,-1
239 991 m 2,48,-1
 239 471 l 2,49,50
 239 325 239 325 292 230 c 0,51,52
 303 208 303 208 329 181 c 0,53,54
 389 120 389 120 476 120 c 2,55,-1
 599 120 l 2,56,57
 708 120 708 120 773 214 c 0,58,59
 794 245 794 245 807 281 c 0,60,61
 814 301 814 301 823 340 c 0,62,63
 836 395 836 395 836 501 c 2,64,-1
 836 950 l 2,65,66
 836 1055 836 1055 828 1097 c 0,67,68
 822 1131 822 1131 814 1157 c 0,69,70
 801 1201 801 1201 785 1228 c 0,71,72
 720 1343 720 1343 598 1343 c 2,73,-1
 476 1343 l 2,74,75
 355 1343 355 1343 289 1227 c 0,76,77
 239 1132 239 1132 239 991 c 2,48,-1
EndSplineSet
EndChar

StartChar: Otilde
Encoding: 213 213 149
Width: 1066
Flags: W
LayerCount: 3
Fore
SplineSet
470 1483 m 2,0,-1
 604 1483 l 2,1,2
 691 1483 691 1483 773 1437 c 0,3,4
 882 1373 882 1373 935 1238 c 0,5,6
 976 1132 976 1132 976 980 c 2,7,-1
 976 481 l 2,8,9
 976 170 976 170 798 41 c 0,10,11
 765 19 765 19 734 6 c 0,12,13
 668 -20 668 -20 605 -20 c 2,14,-1
 471 -20 l 2,15,16
 374 -20 374 -20 287 34 c 0,17,18
 184 102 184 102 134 240 c 0,19,20
 99 344 99 344 99 462 c 2,21,-1
 99 998 l 2,22,23
 99 1160 99 1160 161 1284 c 0,24,25
 176 1315 176 1315 202 1349 c 0,26,27
 212 1364 212 1364 244 1395 c 0,28,29
 280 1425 280 1425 303 1438 c 0,30,31
 356 1467 356 1467 399 1475 c 0,32,33
 435 1483 435 1483 470 1483 c 2,0,-1
239 991 m 2,34,-1
 239 471 l 2,35,36
 239 325 239 325 292 230 c 0,37,38
 303 208 303 208 329 181 c 0,39,40
 389 120 389 120 476 120 c 2,41,-1
 599 120 l 2,42,43
 708 120 708 120 773 214 c 0,44,45
 794 245 794 245 807 281 c 0,46,47
 814 301 814 301 823 340 c 0,48,49
 836 395 836 395 836 501 c 2,50,-1
 836 950 l 2,51,52
 836 1055 836 1055 828 1097 c 0,53,54
 822 1131 822 1131 814 1157 c 0,55,56
 801 1201 801 1201 785 1228 c 0,57,58
 720 1343 720 1343 598 1343 c 2,59,-1
 476 1343 l 2,60,61
 355 1343 355 1343 289 1227 c 0,62,63
 239 1132 239 1132 239 991 c 2,34,-1
831 1722 m 1,64,65
 800 1688 800 1688 770 1671 c 0,66,67
 723 1646 723 1646 678 1646 c 0,68,69
 629 1646 629 1646 536 1694.5 c 128,-1,70
 443 1743 443 1743 395 1743 c 0,71,72
 355 1743 355 1743 310 1715 c 0,73,74
 280 1696 280 1696 244 1653 c 1,75,-1
 244 1807 l 1,76,77
 275 1842 275 1842 305 1858 c 0,78,79
 352 1884 352 1884 395 1884 c 0,80,81
 447 1884 447 1884 540 1834.5 c 128,-1,82
 633 1785 633 1785 678 1785 c 0,83,84
 719 1785 719 1785 764 1813 c 0,85,86
 794 1832 794 1832 831 1876 c 1,87,-1
 831 1722 l 1,64,65
EndSplineSet
EndChar

StartChar: Odieresis
Encoding: 214 214 150
Width: 1066
Flags: W
LayerCount: 3
Fore
SplineSet
470 1483 m 2,0,-1
 604 1483 l 2,1,2
 691 1483 691 1483 773 1437 c 0,3,4
 882 1373 882 1373 935 1238 c 0,5,6
 976 1132 976 1132 976 980 c 2,7,-1
 976 481 l 2,8,9
 976 170 976 170 798 41 c 0,10,11
 765 19 765 19 734 6 c 0,12,13
 668 -20 668 -20 605 -20 c 2,14,-1
 471 -20 l 2,15,16
 374 -20 374 -20 287 34 c 0,17,18
 184 102 184 102 134 240 c 0,19,20
 99 344 99 344 99 462 c 2,21,-1
 99 998 l 2,22,23
 99 1160 99 1160 161 1284 c 0,24,25
 176 1315 176 1315 202 1349 c 0,26,27
 212 1364 212 1364 244 1395 c 0,28,29
 280 1425 280 1425 303 1438 c 0,30,31
 356 1467 356 1467 399 1475 c 0,32,33
 435 1483 435 1483 470 1483 c 2,0,-1
239 991 m 2,34,-1
 239 471 l 2,35,36
 239 325 239 325 292 230 c 0,37,38
 303 208 303 208 329 181 c 0,39,40
 389 120 389 120 476 120 c 2,41,-1
 599 120 l 2,42,43
 708 120 708 120 773 214 c 0,44,45
 794 245 794 245 807 281 c 0,46,47
 814 301 814 301 823 340 c 0,48,49
 836 395 836 395 836 501 c 2,50,-1
 836 950 l 2,51,52
 836 1055 836 1055 828 1097 c 0,53,54
 822 1131 822 1131 814 1157 c 0,55,56
 801 1201 801 1201 785 1228 c 0,57,58
 720 1343 720 1343 598 1343 c 2,59,-1
 476 1343 l 2,60,61
 355 1343 355 1343 289 1227 c 0,62,63
 239 1132 239 1132 239 991 c 2,34,-1
368 1855 m 0,64,65
 411 1855 411 1855 443 1821 c 0,66,67
 468 1791 468 1791 468 1759 c 2,68,-1
 468 1752 l 2,69,70
 468 1713 468 1713 435 1681 c 0,71,72
 405 1655 405 1655 368 1655 c 2,73,-1
 367 1655 l 2,74,75
 316 1655 316 1655 283 1701 c 0,76,77
 268 1728 268 1728 268 1751 c 2,78,-1
 268 1759 l 2,79,80
 268 1798 268 1798 301 1830 c 0,81,82
 331 1855 331 1855 368 1855 c 0,64,65
708 1855 m 0,83,84
 751 1855 751 1855 783 1821 c 0,85,86
 808 1791 808 1791 808 1759 c 2,87,-1
 808 1752 l 2,88,89
 808 1713 808 1713 775 1681 c 0,90,91
 745 1655 745 1655 708 1655 c 2,92,-1
 707 1655 l 2,93,94
 656 1655 656 1655 623 1701 c 0,95,96
 608 1728 608 1728 608 1751 c 2,97,-1
 608 1759 l 2,98,99
 608 1798 608 1798 641 1830 c 0,100,101
 671 1855 671 1855 708 1855 c 0,83,84
EndSplineSet
EndChar

StartChar: multiply
Encoding: 215 215 151
Width: 751
Flags: W
LayerCount: 3
Fore
SplineSet
345 627 m 1,0,-1
 143 829 l 1,1,-1
 242 928 l 1,2,-1
 444 726 l 1,3,-1
 645 928 l 1,4,-1
 744 829 l 1,5,-1
 543 627 l 1,6,-1
 744 425 l 1,7,-1
 645 326 l 1,8,-1
 444 528 l 1,9,-1
 242 326 l 1,10,-1
 143 425 l 1,11,-1
 345 627 l 1,0,-1
EndSplineSet
EndChar

StartChar: Oslash
Encoding: 216 216 152
Width: 1066
Flags: W
LayerCount: 3
Fore
SplineSet
763 1261 m 1,0,1
 701 1343 701 1343 598 1343 c 2,2,-1
 476 1343 l 2,3,4
 355 1343 355 1343 289 1227 c 0,5,6
 239 1132 239 1132 239 991 c 2,7,-1
 239 471 l 2,8,9
 239 422 239 422 245 379 c 1,10,-1
 255 396 l 1,11,-1
 444 718 l 1,12,-1
 669 1101 l 1,13,-1
 763 1261 l 1,0,1
828 1095 m 1,14,-1
 641 777 l 1,15,-1
 429 416 l 1,16,-1
 306 207 l 1,17,18
 316 195 316 195 329 181 c 0,19,20
 389 120 389 120 476 120 c 2,21,-1
 599 120 l 2,22,23
 708 120 708 120 773 214 c 0,24,25
 794 245 794 245 807 281 c 0,26,27
 814 301 814 301 823 340 c 0,28,29
 836 395 836 395 836 501 c 2,30,-1
 836 950 l 2,31,32
 836 1053 836 1053 828 1095 c 1,14,-1
146 210 m 1,33,34
 140 225 140 225 134 240 c 0,35,36
 99 344 99 344 99 462 c 2,37,-1
 99 998 l 2,38,39
 99 1160 99 1160 161 1284 c 0,40,41
 176 1315 176 1315 202 1349 c 0,42,43
 212 1364 212 1364 244 1395 c 0,44,45
 280 1425 280 1425 303 1438 c 0,46,47
 356 1467 356 1467 399 1475 c 0,48,49
 435 1483 435 1483 470 1483 c 2,50,-1
 604 1483 l 2,51,52
 691 1483 691 1483 773 1437 c 0,53,54
 808 1416 808 1416 838 1388 c 1,55,-1
 923 1533 l 1,56,-1
 924 1533 l 1,57,-1
 1044 1462 l 1,58,-1
 1044 1461 l 1,59,-1
 926 1260 l 1,60,61
 931 1249 931 1249 935 1238 c 0,62,63
 976 1132 976 1132 976 980 c 2,64,-1
 976 481 l 2,65,66
 976 170 976 170 798 41 c 0,67,68
 765 19 765 19 734 6 c 0,69,70
 668 -20 668 -20 605 -20 c 2,71,-1
 471 -20 l 2,72,73
 374 -20 374 -20 287 34 c 0,74,75
 257 54 257 54 231 80 c 1,76,-1
 202 30 l 1,77,-1
 143 -70 l 1,78,-1
 23 0 l 1,79,-1
 23 1 l 1,80,-1
 146 210 l 1,33,34
EndSplineSet
EndChar

StartChar: Ugrave
Encoding: 217 217 153
Width: 1216
Flags: W
LayerCount: 3
Fore
SplineSet
171 1464 m 1,0,-1
 309 1464 l 1,1,-1
 310 1463 l 1,2,-1
 310 471 l 2,3,4
 310 295 310 295 385 197 c 0,5,6
 448 120 448 120 548 120 c 2,7,-1
 669 120 l 2,8,9
 791 120 791 120 856 234 c 0,10,11
 870 258 870 258 882 294 c 0,12,13
 892 320 892 320 900 371 c 0,14,15
 907 410 907 410 907 511 c 2,16,-1
 907 1463 l 1,17,-1
 908 1464 l 1,18,-1
 1046 1464 l 1,19,-1
 1047 1463 l 1,20,-1
 1047 456 l 2,21,22
 1047 351 1047 351 1015 248 c 0,23,24
 998 200 998 200 978 164 c 0,25,26
 962 136 962 136 937 104 c 0,27,28
 907 70 907 70 884 52 c 0,29,30
 852 28 852 28 829 17 c 0,31,32
 754 -20 754 -20 675 -20 c 2,33,-1
 542 -20 l 2,34,35
 445 -20 445 -20 358 34 c 0,36,37
 255 102 255 102 205 240 c 0,38,39
 170 344 170 344 170 462 c 2,40,-1
 170 1463 l 1,41,-1
 171 1464 l 1,0,-1
480 1916 m 1,42,-1
 810 1713 l 1,43,-1
 736 1594 l 1,44,-1
 407 1798 l 1,45,-1
 480 1916 l 1,42,-1
EndSplineSet
EndChar

StartChar: Uacute
Encoding: 218 218 154
Width: 1216
Flags: W
LayerCount: 3
Fore
SplineSet
171 1464 m 1,0,-1
 309 1464 l 1,1,-1
 310 1463 l 1,2,-1
 310 471 l 2,3,4
 310 295 310 295 385 197 c 0,5,6
 448 120 448 120 548 120 c 2,7,-1
 669 120 l 2,8,9
 791 120 791 120 856 234 c 0,10,11
 870 258 870 258 882 294 c 0,12,13
 892 320 892 320 900 371 c 0,14,15
 907 410 907 410 907 511 c 2,16,-1
 907 1463 l 1,17,-1
 908 1464 l 1,18,-1
 1046 1464 l 1,19,-1
 1047 1463 l 1,20,-1
 1047 456 l 2,21,22
 1047 351 1047 351 1015 248 c 0,23,24
 998 200 998 200 978 164 c 0,25,26
 962 136 962 136 937 104 c 0,27,28
 907 70 907 70 884 52 c 0,29,30
 852 28 852 28 829 17 c 0,31,32
 754 -20 754 -20 675 -20 c 2,33,-1
 542 -20 l 2,34,35
 445 -20 445 -20 358 34 c 0,36,37
 255 102 255 102 205 240 c 0,38,39
 170 344 170 344 170 462 c 2,40,-1
 170 1463 l 1,41,-1
 171 1464 l 1,0,-1
810 1798 m 1,42,-1
 481 1594 l 1,43,-1
 407 1713 l 1,44,-1
 737 1916 l 1,45,-1
 810 1798 l 1,42,-1
EndSplineSet
EndChar

StartChar: Ucircumflex
Encoding: 219 219 155
Width: 1216
Flags: W
LayerCount: 3
Fore
SplineSet
171 1464 m 1,0,-1
 309 1464 l 1,1,-1
 310 1463 l 1,2,-1
 310 471 l 2,3,4
 310 295 310 295 385 197 c 0,5,6
 448 120 448 120 548 120 c 2,7,-1
 669 120 l 2,8,9
 791 120 791 120 856 234 c 0,10,11
 870 258 870 258 882 294 c 0,12,13
 892 320 892 320 900 371 c 0,14,15
 907 410 907 410 907 511 c 2,16,-1
 907 1463 l 1,17,-1
 908 1464 l 1,18,-1
 1046 1464 l 1,19,-1
 1047 1463 l 1,20,-1
 1047 456 l 2,21,22
 1047 351 1047 351 1015 248 c 0,23,24
 998 200 998 200 978 164 c 0,25,26
 962 136 962 136 937 104 c 0,27,28
 907 70 907 70 884 52 c 0,29,30
 852 28 852 28 829 17 c 0,31,32
 754 -20 754 -20 675 -20 c 2,33,-1
 542 -20 l 2,34,35
 445 -20 445 -20 358 34 c 0,36,37
 255 102 255 102 205 240 c 0,38,39
 170 344 170 344 170 462 c 2,40,-1
 170 1463 l 1,41,-1
 171 1464 l 1,0,-1
564 1916 m 1,42,-1
 653 1916 l 2,43,44
 656 1914 656 1914 756 1795 c 2,45,-1
 859 1672 l 1,46,-1
 753 1582 l 2,47,48
 750 1584 750 1584 704 1640 c 0,49,50
 611 1749 611 1749 609 1752 c 2,51,-1
 465 1582 l 1,52,-1
 464 1582 l 1,53,-1
 358 1672 l 1,54,-1
 358 1673 l 1,55,-1
 564 1916 l 1,42,-1
EndSplineSet
EndChar

StartChar: Udieresis
Encoding: 220 220 156
Width: 1216
Flags: W
LayerCount: 3
Fore
SplineSet
171 1464 m 1,0,-1
 309 1464 l 1,1,-1
 310 1463 l 1,2,-1
 310 471 l 2,3,4
 310 295 310 295 385 197 c 0,5,6
 448 120 448 120 548 120 c 2,7,-1
 669 120 l 2,8,9
 791 120 791 120 856 234 c 0,10,11
 870 258 870 258 882 294 c 0,12,13
 892 320 892 320 900 371 c 0,14,15
 907 410 907 410 907 511 c 2,16,-1
 907 1463 l 1,17,-1
 908 1464 l 1,18,-1
 1046 1464 l 1,19,-1
 1047 1463 l 1,20,-1
 1047 456 l 2,21,22
 1047 351 1047 351 1015 248 c 0,23,24
 998 200 998 200 978 164 c 0,25,26
 962 136 962 136 937 104 c 0,27,28
 907 70 907 70 884 52 c 0,29,30
 852 28 852 28 829 17 c 0,31,32
 754 -20 754 -20 675 -20 c 2,33,-1
 542 -20 l 2,34,35
 445 -20 445 -20 358 34 c 0,36,37
 255 102 255 102 205 240 c 0,38,39
 170 344 170 344 170 462 c 2,40,-1
 170 1463 l 1,41,-1
 171 1464 l 1,0,-1
439 1855 m 0,42,43
 482 1855 482 1855 514 1821 c 0,44,45
 539 1791 539 1791 539 1759 c 2,46,-1
 539 1752 l 2,47,48
 539 1713 539 1713 506 1681 c 0,49,50
 476 1655 476 1655 439 1655 c 2,51,-1
 438 1655 l 2,52,53
 387 1655 387 1655 354 1701 c 0,54,55
 339 1728 339 1728 339 1751 c 2,56,-1
 339 1759 l 2,57,58
 339 1798 339 1798 372 1830 c 0,59,60
 402 1855 402 1855 439 1855 c 0,42,43
779 1855 m 0,61,62
 822 1855 822 1855 854 1821 c 0,63,64
 879 1791 879 1791 879 1759 c 2,65,-1
 879 1752 l 2,66,67
 879 1713 879 1713 846 1681 c 0,68,69
 816 1655 816 1655 779 1655 c 2,70,-1
 778 1655 l 2,71,72
 727 1655 727 1655 694 1701 c 0,73,74
 679 1728 679 1728 679 1751 c 2,75,-1
 679 1759 l 2,76,77
 679 1798 679 1798 712 1830 c 0,78,79
 742 1855 742 1855 779 1855 c 0,61,62
EndSplineSet
EndChar

StartChar: Yacute
Encoding: 221 221 157
Width: 968
Flags: W
LayerCount: 3
Fore
SplineSet
187 1464 m 1,0,1
 192 1455 192 1455 377 1097 c 0,2,3
 481 896 481 896 486 885 c 1,4,-1
 659 1220 l 1,5,-1
 785 1464 l 1,6,-1
 941 1464 l 1,7,-1
 942 1463 l 1,8,-1
 719 1030 l 1,9,-1
 566 734 l 2,10,11
 556 716 556 716 556 714 c 2,12,-1
 556 1 l 1,13,-1
 555 0 l 1,14,-1
 417 0 l 1,15,-1
 416 1 l 1,16,-1
 416 714 l 1,17,18
 412 723 412 723 270 998 c 2,19,-1
 46 1431 l 1,20,-1
 30 1463 l 1,21,-1
 30 1464 l 1,22,-1
 187 1464 l 1,0,1
688 1798 m 5,23,-1
 359 1594 l 5,24,-1
 285 1713 l 5,25,-1
 615 1916 l 5,26,-1
 688 1798 l 5,23,-1
EndSplineSet
EndChar

StartChar: agrave
Encoding: 224 224 160
Width: 973
Flags: W
LayerCount: 3
Fore
SplineSet
380 1410 m 1,0,-1
 710 1207 l 1,1,-1
 636 1088 l 1,2,-1
 307 1292 l 1,3,-1
 380 1410 l 1,0,-1
232 283 m 2,4,-1
 232 280 l 2,5,6
 232 183 232 183 324 150 c 0,7,8
 358 140 358 140 388 140 c 2,9,-1
 400 140 l 2,10,11
 479 140 479 140 576 190 c 0,12,13
 618 213 618 213 666 251 c 2,14,-1
 683 266 l 1,15,-1
 683 433 l 1,16,17
 655 435 655 435 614 435 c 0,18,19
 401 435 401 435 294 378 c 0,20,21
 278 370 278 370 257 351 c 0,22,23
 237 328 237 328 235 310 c 0,24,25
 232 301 232 301 232 283 c 2,4,-1
513 950 m 2,26,-1
 529 950 l 2,27,28
 630 950 630 950 708 901 c 0,29,30
 727 888 727 888 751 864 c 0,31,32
 786 826 786 826 802 784 c 0,33,34
 823 730 823 730 823 684 c 2,35,-1
 823 14 l 1,36,-1
 822 13 l 1,37,-1
 684 13 l 1,38,-1
 683 14 l 1,39,-1
 683 90 l 1,40,41
 623 53 623 53 559 30 c 0,42,43
 473 0 473 0 406 0 c 2,44,-1
 383 0 l 2,45,46
 311 0 311 0 238 34 c 0,47,48
 214 47 214 47 192 64 c 0,49,50
 161 90 161 90 147 110 c 0,51,52
 124 141 124 141 115 165 c 0,53,54
 92 219 92 219 92 275 c 2,55,-1
 92 287 l 2,56,57
 92 408 92 408 196 482 c 0,58,59
 220 499 220 499 240 508 c 0,60,61
 266 522 266 522 310 536 c 0,62,63
 436 575 436 575 603 575 c 2,64,-1
 625 575 l 2,65,66
 655 575 655 575 683 574 c 1,67,-1
 683 680 l 2,68,69
 683 724 683 724 654 763 c 0,70,71
 613 810 613 810 522 810 c 2,72,-1
 518 810 l 2,73,74
 436 810 436 810 318 771 c 0,75,76
 275 755 275 755 198 716 c 1,77,-1
 175 706 l 1,78,79
 116 831 116 831 116 833 c 0,80,81
 210 879 210 879 257 898 c 0,82,83
 299 916 299 916 386 935 c 0,84,85
 460 950 460 950 513 950 c 2,26,-1
EndSplineSet
EndChar

StartChar: aacute
Encoding: 225 225 161
Width: 973
Flags: W
LayerCount: 3
Fore
SplineSet
710 1292 m 5,0,-1
 381 1088 l 5,1,-1
 307 1207 l 5,2,-1
 637 1410 l 5,3,-1
 710 1292 l 5,0,-1
232 283 m 2,4,-1
 232 280 l 2,5,6
 232 183 232 183 324 150 c 0,7,8
 358 140 358 140 388 140 c 2,9,-1
 400 140 l 2,10,11
 479 140 479 140 576 190 c 0,12,13
 618 213 618 213 666 251 c 2,14,-1
 683 266 l 1,15,-1
 683 433 l 1,16,17
 655 435 655 435 614 435 c 0,18,19
 401 435 401 435 294 378 c 0,20,21
 278 370 278 370 257 351 c 0,22,23
 237 328 237 328 235 310 c 0,24,25
 232 301 232 301 232 283 c 2,4,-1
513 950 m 2,26,-1
 529 950 l 2,27,28
 630 950 630 950 708 901 c 0,29,30
 727 888 727 888 751 864 c 0,31,32
 786 826 786 826 802 784 c 0,33,34
 823 730 823 730 823 684 c 2,35,-1
 823 14 l 1,36,-1
 822 13 l 1,37,-1
 684 13 l 1,38,-1
 683 14 l 1,39,-1
 683 90 l 1,40,41
 623 53 623 53 559 30 c 0,42,43
 473 0 473 0 406 0 c 2,44,-1
 383 0 l 2,45,46
 311 0 311 0 238 34 c 0,47,48
 214 47 214 47 192 64 c 0,49,50
 161 90 161 90 147 110 c 0,51,52
 124 141 124 141 115 165 c 0,53,54
 92 219 92 219 92 275 c 2,55,-1
 92 287 l 2,56,57
 92 408 92 408 196 482 c 0,58,59
 220 499 220 499 240 508 c 0,60,61
 266 522 266 522 310 536 c 0,62,63
 436 575 436 575 603 575 c 2,64,-1
 625 575 l 2,65,66
 655 575 655 575 683 574 c 1,67,-1
 683 680 l 2,68,69
 683 724 683 724 654 763 c 0,70,71
 613 810 613 810 522 810 c 2,72,-1
 518 810 l 2,73,74
 436 810 436 810 318 771 c 0,75,76
 275 755 275 755 198 716 c 1,77,-1
 175 706 l 1,78,79
 116 831 116 831 116 833 c 0,80,81
 210 879 210 879 257 898 c 0,82,83
 299 916 299 916 386 935 c 0,84,85
 460 950 460 950 513 950 c 2,26,-1
EndSplineSet
EndChar

StartChar: acircumflex
Encoding: 226 226 162
Width: 973
Flags: W
LayerCount: 3
Fore
SplineSet
443 1422 m 5,0,-1
 532 1422 l 6,1,2
 535 1420 535 1420 635 1301 c 6,3,-1
 738 1178 l 5,4,-1
 632 1088 l 6,5,6
 629 1090 629 1090 583 1146 c 4,7,8
 490 1255 490 1255 488 1258 c 6,9,-1
 344 1088 l 5,10,-1
 343 1088 l 5,11,-1
 237 1178 l 5,12,-1
 237 1179 l 5,13,-1
 443 1422 l 5,0,-1
232 283 m 6,14,-1
 232 280 l 6,15,16
 232 183 232 183 324 150 c 4,17,18
 358 140 358 140 388 140 c 6,19,-1
 400 140 l 6,20,21
 479 140 479 140 576 190 c 4,22,23
 618 213 618 213 666 251 c 6,24,-1
 683 266 l 5,25,-1
 683 433 l 5,26,27
 655 435 655 435 614 435 c 4,28,29
 401 435 401 435 294 378 c 4,30,31
 278 370 278 370 257 351 c 4,32,33
 237 328 237 328 235 310 c 4,34,35
 232 301 232 301 232 283 c 6,14,-1
513 950 m 6,36,-1
 529 950 l 6,37,38
 630 950 630 950 708 901 c 4,39,40
 727 888 727 888 751 864 c 4,41,42
 786 826 786 826 802 784 c 4,43,44
 823 730 823 730 823 684 c 6,45,-1
 823 14 l 5,46,-1
 822 13 l 5,47,-1
 684 13 l 5,48,-1
 683 14 l 5,49,-1
 683 90 l 5,50,51
 623 53 623 53 559 30 c 4,52,53
 473 0 473 0 406 0 c 6,54,-1
 383 0 l 6,55,56
 311 0 311 0 238 34 c 4,57,58
 214 47 214 47 192 64 c 4,59,60
 161 90 161 90 147 110 c 4,61,62
 124 141 124 141 115 165 c 4,63,64
 92 219 92 219 92 275 c 6,65,-1
 92 287 l 6,66,67
 92 408 92 408 196 482 c 4,68,69
 220 499 220 499 240 508 c 4,70,71
 266 522 266 522 310 536 c 4,72,73
 436 575 436 575 603 575 c 6,74,-1
 625 575 l 6,75,76
 655 575 655 575 683 574 c 5,77,-1
 683 680 l 6,78,79
 683 724 683 724 654 763 c 4,80,81
 613 810 613 810 522 810 c 6,82,-1
 518 810 l 6,83,84
 436 810 436 810 318 771 c 4,85,86
 275 755 275 755 198 716 c 5,87,-1
 175 706 l 5,88,89
 116 831 116 831 116 833 c 4,90,91
 210 879 210 879 257 898 c 4,92,93
 299 916 299 916 386 935 c 4,94,95
 460 950 460 950 513 950 c 6,36,-1
EndSplineSet
EndChar

StartChar: atilde
Encoding: 227 227 163
Width: 973
Flags: W
LayerCount: 3
Fore
SplineSet
779 1206 m 1,0,1
 748 1172 748 1172 718 1155 c 0,2,3
 671 1130 671 1130 626 1130 c 0,4,5
 577 1130 577 1130 483.5 1178.5 c 128,-1,6
 390 1227 390 1227 342 1227 c 0,7,8
 302 1227 302 1227 257 1199 c 0,9,10
 227 1180 227 1180 191 1137 c 1,11,-1
 191 1291 l 1,12,13
 222 1326 222 1326 252 1342 c 0,14,15
 299 1368 299 1368 342 1368 c 0,16,17
 394 1368 394 1368 487.5 1318.5 c 128,-1,18
 581 1269 581 1269 626 1269 c 0,19,20
 667 1269 667 1269 712 1297 c 0,21,22
 742 1316 742 1316 779 1360 c 1,23,-1
 779 1206 l 1,0,1
232 283 m 2,24,-1
 232 280 l 2,25,26
 232 183 232 183 324 150 c 0,27,28
 358 140 358 140 388 140 c 2,29,-1
 400 140 l 2,30,31
 479 140 479 140 576 190 c 0,32,33
 618 213 618 213 666 251 c 2,34,-1
 683 266 l 1,35,-1
 683 433 l 1,36,37
 655 435 655 435 614 435 c 0,38,39
 401 435 401 435 294 378 c 0,40,41
 278 370 278 370 257 351 c 0,42,43
 237 328 237 328 235 310 c 0,44,45
 232 301 232 301 232 283 c 2,24,-1
513 950 m 2,46,-1
 529 950 l 2,47,48
 630 950 630 950 708 901 c 0,49,50
 727 888 727 888 751 864 c 0,51,52
 786 826 786 826 802 784 c 0,53,54
 823 730 823 730 823 684 c 2,55,-1
 823 14 l 1,56,-1
 822 13 l 1,57,-1
 684 13 l 1,58,-1
 683 14 l 1,59,-1
 683 90 l 1,60,61
 623 53 623 53 559 30 c 0,62,63
 473 0 473 0 406 0 c 2,64,-1
 383 0 l 2,65,66
 311 0 311 0 238 34 c 0,67,68
 214 47 214 47 192 64 c 0,69,70
 161 90 161 90 147 110 c 0,71,72
 124 141 124 141 115 165 c 0,73,74
 92 219 92 219 92 275 c 2,75,-1
 92 287 l 2,76,77
 92 408 92 408 196 482 c 0,78,79
 220 499 220 499 240 508 c 0,80,81
 266 522 266 522 310 536 c 0,82,83
 436 575 436 575 603 575 c 2,84,-1
 625 575 l 2,85,86
 655 575 655 575 683 574 c 1,87,-1
 683 680 l 2,88,89
 683 724 683 724 654 763 c 0,90,91
 613 810 613 810 522 810 c 2,92,-1
 518 810 l 2,93,94
 436 810 436 810 318 771 c 0,95,96
 275 755 275 755 198 716 c 1,97,-1
 175 706 l 1,98,99
 116 831 116 831 116 833 c 0,100,101
 210 879 210 879 257 898 c 0,102,103
 299 916 299 916 386 935 c 0,104,105
 460 950 460 950 513 950 c 2,46,-1
EndSplineSet
EndChar

StartChar: adieresis
Encoding: 228 228 164
Width: 973
Flags: W
LayerCount: 3
Fore
SplineSet
333 1349 m 0,0,1
 376 1349 376 1349 408 1315 c 0,2,3
 433 1285 433 1285 433 1253 c 2,4,-1
 433 1246 l 2,5,6
 433 1207 433 1207 400 1175 c 0,7,8
 370 1149 370 1149 333 1149 c 2,9,-1
 332 1149 l 2,10,11
 281 1149 281 1149 248 1195 c 0,12,13
 233 1222 233 1222 233 1245 c 2,14,-1
 233 1253 l 2,15,16
 233 1292 233 1292 266 1324 c 0,17,18
 296 1349 296 1349 333 1349 c 0,0,1
673 1349 m 0,19,20
 716 1349 716 1349 748 1315 c 0,21,22
 773 1285 773 1285 773 1253 c 2,23,-1
 773 1246 l 2,24,25
 773 1207 773 1207 740 1175 c 0,26,27
 710 1149 710 1149 673 1149 c 2,28,-1
 672 1149 l 2,29,30
 621 1149 621 1149 588 1195 c 0,31,32
 573 1222 573 1222 573 1245 c 2,33,-1
 573 1253 l 2,34,35
 573 1292 573 1292 606 1324 c 0,36,37
 636 1349 636 1349 673 1349 c 0,19,20
232 283 m 2,38,-1
 232 280 l 2,39,40
 232 183 232 183 324 150 c 0,41,42
 358 140 358 140 388 140 c 2,43,-1
 400 140 l 2,44,45
 479 140 479 140 576 190 c 0,46,47
 618 213 618 213 666 251 c 2,48,-1
 683 266 l 1,49,-1
 683 433 l 1,50,51
 655 435 655 435 614 435 c 0,52,53
 401 435 401 435 294 378 c 0,54,55
 278 370 278 370 257 351 c 0,56,57
 237 328 237 328 235 310 c 0,58,59
 232 301 232 301 232 283 c 2,38,-1
513 950 m 2,60,-1
 529 950 l 2,61,62
 630 950 630 950 708 901 c 0,63,64
 727 888 727 888 751 864 c 0,65,66
 786 826 786 826 802 784 c 0,67,68
 823 730 823 730 823 684 c 2,69,-1
 823 14 l 1,70,-1
 822 13 l 1,71,-1
 684 13 l 1,72,-1
 683 14 l 1,73,-1
 683 90 l 1,74,75
 623 53 623 53 559 30 c 0,76,77
 473 0 473 0 406 0 c 2,78,-1
 383 0 l 2,79,80
 311 0 311 0 238 34 c 0,81,82
 214 47 214 47 192 64 c 0,83,84
 161 90 161 90 147 110 c 0,85,86
 124 141 124 141 115 165 c 0,87,88
 92 219 92 219 92 275 c 2,89,-1
 92 287 l 2,90,91
 92 408 92 408 196 482 c 0,92,93
 220 499 220 499 240 508 c 0,94,95
 266 522 266 522 310 536 c 0,96,97
 436 575 436 575 603 575 c 2,98,-1
 625 575 l 2,99,100
 655 575 655 575 683 574 c 1,101,-1
 683 680 l 2,102,103
 683 724 683 724 654 763 c 0,104,105
 613 810 613 810 522 810 c 2,106,-1
 518 810 l 2,107,108
 436 810 436 810 318 771 c 0,109,110
 275 755 275 755 198 716 c 1,111,-1
 175 706 l 1,112,113
 116 831 116 831 116 833 c 0,114,115
 210 879 210 879 257 898 c 0,116,117
 299 916 299 916 386 935 c 0,118,119
 460 950 460 950 513 950 c 2,60,-1
EndSplineSet
EndChar

StartChar: aring
Encoding: 229 229 165
Width: 973
Flags: W
LayerCount: 3
Fore
SplineSet
462 1240 m 6,0,-1
 462 1239 l 6,1,2
 462 1214 462 1214 483 1197 c 4,3,4
 498 1185 498 1185 516 1185 c 4,5,6
 542 1185 542 1185 558 1206 c 4,7,8
 569 1222 569 1222 569 1239 c 6,9,-1
 569 1241 l 6,10,11
 569 1261 569 1261 554 1277 c 4,12,13
 537 1293 537 1293 516 1293 c 4,14,15
 494 1293 494 1293 478 1278 c 4,16,17
 462 1261 462 1261 462 1240 c 6,0,-1
514 1400 m 6,18,-1
 516 1400 l 6,19,20
 573 1400 573 1400 621 1361 c 4,21,22
 640 1343 640 1343 645 1336 c 4,23,24
 677 1291 677 1291 677 1239 c 4,25,26
 677 1174 677 1174 628 1124 c 6,27,-1
 620 1115 l 5,28,29
 573 1078 573 1078 515 1078 c 4,30,31
 458 1078 458 1078 411 1115 c 4,32,33
 397 1128 397 1128 391 1137 c 4,34,35
 378 1153 378 1153 372 1165 c 4,36,37
 354 1201 354 1201 354 1234 c 6,38,-1
 354 1243 l 6,39,40
 354 1290 354 1290 385 1334 c 4,41,42
 391 1343 391 1343 407 1359 c 4,43,44
 456 1400 456 1400 514 1400 c 6,18,-1
232 283 m 2,45,-1
 232 280 l 2,46,47
 232 183 232 183 324 150 c 0,48,49
 358 140 358 140 388 140 c 2,50,-1
 400 140 l 2,51,52
 479 140 479 140 576 190 c 0,53,54
 618 213 618 213 666 251 c 2,55,-1
 683 266 l 1,56,-1
 683 433 l 1,57,58
 655 435 655 435 614 435 c 0,59,60
 401 435 401 435 294 378 c 0,61,62
 278 370 278 370 257 351 c 0,63,64
 237 328 237 328 235 310 c 0,65,66
 232 301 232 301 232 283 c 2,45,-1
513 950 m 2,67,-1
 529 950 l 2,68,69
 630 950 630 950 708 901 c 0,70,71
 727 888 727 888 751 864 c 0,72,73
 786 826 786 826 802 784 c 0,74,75
 823 730 823 730 823 684 c 2,76,-1
 823 14 l 1,77,-1
 822 13 l 1,78,-1
 684 13 l 1,79,-1
 683 14 l 1,80,-1
 683 90 l 1,81,82
 623 53 623 53 559 30 c 0,83,84
 473 0 473 0 406 0 c 2,85,-1
 383 0 l 2,86,87
 311 0 311 0 238 34 c 0,88,89
 214 47 214 47 192 64 c 0,90,91
 161 90 161 90 147 110 c 0,92,93
 124 141 124 141 115 165 c 0,94,95
 92 219 92 219 92 275 c 2,96,-1
 92 287 l 2,97,98
 92 408 92 408 196 482 c 0,99,100
 220 499 220 499 240 508 c 0,101,102
 266 522 266 522 310 536 c 0,103,104
 436 575 436 575 603 575 c 2,105,-1
 625 575 l 2,106,107
 655 575 655 575 683 574 c 1,108,-1
 683 680 l 2,109,110
 683 724 683 724 654 763 c 0,111,112
 613 810 613 810 522 810 c 2,113,-1
 518 810 l 2,114,115
 436 810 436 810 318 771 c 0,116,117
 275 755 275 755 198 716 c 1,118,-1
 175 706 l 1,119,120
 116 831 116 831 116 833 c 0,121,122
 210 879 210 879 257 898 c 0,123,124
 299 916 299 916 386 935 c 0,125,126
 460 950 460 950 513 950 c 2,67,-1
EndSplineSet
EndChar

StartChar: ae
Encoding: 230 230 166
Width: 1770
Flags: W
LayerCount: 3
Fore
SplineSet
942 476 m 2,0,-1
 942 472 l 1,1,-1
 943 447 l 1,2,-1
 1358 615 l 1,3,-1
 1488 668 l 1,4,5
 1475 689 1475 689 1454 715 c 0,6,7
 1429 742 1429 742 1414 754 c 0,8,9
 1335 817 1335 817 1241 817 c 0,10,11
 1148 817 1148 817 1069 754 c 0,12,13
 1055 744 1055 744 1031 717 c 256,14,15
 1007 690 1007 690 997 671 c 0,16,17
 942 580 942 580 942 476 c 2,0,-1
232 283 m 2,18,-1
 232 280 l 2,19,20
 232 183 232 183 324 150 c 0,21,22
 358 140 358 140 388 140 c 2,23,-1
 400 140 l 2,24,25
 479 140 479 140 576 190 c 0,26,27
 618 213 618 213 666 251 c 2,28,-1
 683 266 l 1,29,-1
 683 433 l 1,30,31
 655 435 655 435 614 435 c 0,32,33
 401 435 401 435 294 378 c 0,34,35
 278 370 278 370 257 351 c 0,36,37
 237 328 237 328 235 310 c 0,38,39
 232 301 232 301 232 283 c 2,18,-1
823 622 m 1,40,41
 836 664 836 664 856 707 c 0,42,43
 876 748 876 748 910 791 c 0,44,45
 920 806 920 806 956 842 c 0,46,47
 984 868 984 868 1010 885 c 256,48,49
 1036 902 1036 902 1056 913 c 0,50,51
 1146 957 1146 957 1236 957 c 2,52,-1
 1245 957 l 2,53,54
 1372 957 1372 957 1486 875 c 0,55,56
 1507 861 1507 861 1541 827 c 0,57,58
 1585 780 1585 780 1604 747 c 0,59,60
 1626 712 1626 712 1641 675 c 2,61,-1
 1657 633 l 1,62,-1
 1672 591 l 1,63,-1
 1239 415 l 1,64,-1
 979 309 l 1,65,66
 992 281 992 281 1015 250 c 0,67,68
 1027 233 1027 233 1054 205 c 0,69,70
 1139 130 1139 130 1241 130 c 0,71,72
 1354 130 1354 130 1444 221 c 1,73,-1
 1456 235 l 1,74,-1
 1466 248 l 1,75,-1
 1477 264 l 1,76,-1
 1486 277 l 1,77,-1
 1526 253 l 1,78,-1
 1605 203 l 1,79,80
 1589 176 1589 176 1564 145 c 0,81,82
 1531 108 1531 108 1507 89 c 0,83,84
 1430 24 1430 24 1330 0 c 0,85,86
 1285 -10 1285 -10 1243 -10 c 2,87,-1
 1240 -10 l 2,88,89
 1087 -10 1087 -10 962 100 c 0,90,91
 923 138 923 138 914 151 c 0,92,93
 888 184 888 184 869 216 c 0,94,95
 853 245 853 245 838 281 c 0,96,97
 829 303 829 303 823 325 c 1,98,-1
 823 14 l 1,99,-1
 822 13 l 1,100,-1
 684 13 l 1,101,-1
 683 14 l 1,102,-1
 683 90 l 1,103,104
 623 53 623 53 559 30 c 0,105,106
 473 0 473 0 406 0 c 2,107,-1
 383 0 l 2,108,109
 311 0 311 0 238 34 c 0,110,111
 214 47 214 47 192 64 c 0,112,113
 161 90 161 90 147 110 c 0,114,115
 124 141 124 141 115 165 c 0,116,117
 92 219 92 219 92 275 c 2,118,-1
 92 287 l 2,119,120
 92 408 92 408 196 482 c 0,121,122
 220 499 220 499 240 508 c 0,123,124
 266 522 266 522 310 536 c 0,125,126
 436 575 436 575 603 575 c 2,127,-1
 625 575 l 2,128,129
 655 575 655 575 683 574 c 1,130,-1
 683 680 l 2,131,132
 683 724 683 724 654 763 c 0,133,134
 613 810 613 810 522 810 c 2,135,-1
 518 810 l 2,136,137
 436 810 436 810 318 771 c 0,138,139
 275 755 275 755 198 716 c 1,140,-1
 175 706 l 1,141,142
 116 831 116 831 116 833 c 0,143,144
 210 879 210 879 257 898 c 0,145,146
 299 916 299 916 386 935 c 0,147,148
 460 950 460 950 513 950 c 2,149,-1
 529 950 l 2,150,151
 630 950 630 950 708 901 c 0,152,153
 727 888 727 888 751 864 c 0,154,155
 786 826 786 826 802 784 c 0,156,157
 823 730 823 730 823 684 c 2,158,-1
 823 622 l 1,40,41
EndSplineSet
EndChar

StartChar: ccedilla
Encoding: 231 231 167
Width: 961
Flags: W
LayerCount: 3
Fore
SplineSet
530 -9 m 1,0,-1
 519 -59 l 1,1,2
 535 -61 535 -61 549 -66 c 0,3,4
 591 -81 591 -81 613 -120 c 0,5,6
 631 -155 631 -155 631 -190 c 0,7,8
 631 -250 631 -250 583 -295 c 0,9,10
 538 -334 538 -334 483 -334 c 0,11,12
 413 -334 413 -334 363 -274 c 0,13,14
 355 -266 355 -266 355 -264 c 2,15,-1
 437 -204 l 1,16,-1
 438 -204 l 1,17,18
 459 -231 459 -231 483 -231 c 0,19,20
 504 -231 504 -231 519 -214 c 0,21,22
 528 -202 528 -202 528 -190 c 0,23,24
 528 -177 528 -177 521 -168.5 c 128,-1,25
 514 -160 514 -160 500 -156 c 0,26,27
 483 -155 483 -155 458 -163 c 2,28,-1
 389 -187 l 1,29,-1
 389 -186 l 1,30,-1
 427 4 l 1,31,32
 336 28 336 28 255 96 c 0,33,34
 212 137 212 137 205 148 c 0,35,36
 181 177 181 177 162 208 c 0,37,38
 138 249 138 249 124 288 c 0,39,40
 90 379 90 379 90 466 c 2,41,-1
 90 481 l 2,42,43
 90 598 90 598 146 711 c 0,44,45
 163 746 163 746 190 781 c 0,46,47
 201 799 201 799 238 837 c 0,48,49
 284 879 284 879 310 893 c 0,50,51
 412 958 412 958 529 958 c 0,52,53
 681 958 681 958 806 850 c 0,54,55
 841 816 841 816 855 798 c 0,56,57
 881 766 881 766 893 745 c 1,58,-1
 774 672 l 1,59,-1
 764 686 l 2,60,61
 751 707 751 707 724 734 c 0,62,63
 685 770 685 770 665 779 c 0,64,65
 601 818 601 818 529 818 c 0,66,67
 426 818 426 818 340 740 c 0,68,69
 303 703 303 703 294 686 c 0,70,71
 274 657 274 657 261 626 c 0,72,73
 230 553 230 553 230 476 c 2,74,-1
 230 472 l 2,75,76
 230 359 230 359 294 263 c 0,77,78
 305 245 305 245 329 219 c 0,79,80
 418 131 418 131 529 131 c 0,81,82
 643 131 643 131 733 223 c 0,83,84
 754 246 754 246 776 279 c 1,85,86
 894 208 894 208 895 207 c 0,87,88
 878 177 878 177 848 141 c 0,89,90
 808 98 808 98 795 89 c 0,91,92
 766 66 766 66 743 51 c 0,93,94
 641 -9 641 -9 531 -9 c 2,95,-1
 530 -9 l 1,0,-1
EndSplineSet
EndChar

StartChar: egrave
Encoding: 232 232 168
Width: 1061
Flags: W
LayerCount: 3
Fore
SplineSet
400 1410 m 1,0,-1
 730 1207 l 1,1,-1
 656 1088 l 1,2,-1
 327 1292 l 1,3,-1
 400 1410 l 1,0,-1
233 476 m 2,4,-1
 233 472 l 1,5,-1
 234 447 l 1,6,-1
 649 615 l 1,7,-1
 779 668 l 1,8,9
 766 689 766 689 745 715 c 0,10,11
 720 742 720 742 705 754 c 0,12,13
 626 817 626 817 532 817 c 0,14,15
 439 817 439 817 360 754 c 0,16,17
 346 744 346 744 322 717 c 256,18,19
 298 690 298 690 288 671 c 0,20,21
 233 580 233 580 233 476 c 2,4,-1
527 957 m 2,22,-1
 536 957 l 2,23,24
 663 957 663 957 777 875 c 0,25,26
 798 861 798 861 832 827 c 0,27,28
 876 780 876 780 895 747 c 0,29,30
 917 712 917 712 932 675 c 2,31,-1
 948 633 l 1,32,-1
 963 591 l 1,33,-1
 530 415 l 1,34,-1
 270 309 l 1,35,36
 283 281 283 281 306 250 c 0,37,38
 318 233 318 233 345 205 c 0,39,40
 430 130 430 130 532 130 c 0,41,42
 645 130 645 130 735 221 c 1,43,-1
 747 235 l 1,44,-1
 757 248 l 1,45,-1
 768 264 l 1,46,-1
 777 277 l 1,47,-1
 817 253 l 1,48,-1
 896 203 l 1,49,50
 880 176 880 176 855 145 c 0,51,52
 822 108 822 108 798 89 c 0,53,54
 721 24 721 24 621 0 c 0,55,56
 576 -10 576 -10 534 -10 c 2,57,-1
 531 -10 l 2,58,59
 378 -10 378 -10 253 100 c 0,60,61
 214 138 214 138 205 151 c 0,62,63
 179 184 179 184 160 216 c 0,64,65
 144 245 144 245 129 281 c 0,66,67
 93 375 93 375 93 465 c 2,68,-1
 93 482 l 2,69,70
 93 594 93 594 147 707 c 0,71,72
 167 748 167 748 201 791 c 0,73,74
 211 806 211 806 247 842 c 0,75,76
 275 868 275 868 301 885 c 256,77,78
 327 902 327 902 347 913 c 0,79,80
 437 957 437 957 527 957 c 2,22,-1
EndSplineSet
EndChar

StartChar: eacute
Encoding: 233 233 169
Width: 1061
Flags: W
LayerCount: 3
Fore
SplineSet
730 1292 m 1,0,-1
 401 1088 l 1,1,-1
 327 1207 l 1,2,-1
 657 1410 l 1,3,-1
 730 1292 l 1,0,-1
233 476 m 2,4,-1
 233 472 l 1,5,-1
 234 447 l 1,6,-1
 649 615 l 1,7,-1
 779 668 l 1,8,9
 766 689 766 689 745 715 c 0,10,11
 720 742 720 742 705 754 c 0,12,13
 626 817 626 817 532 817 c 0,14,15
 439 817 439 817 360 754 c 0,16,17
 346 744 346 744 322 717 c 256,18,19
 298 690 298 690 288 671 c 0,20,21
 233 580 233 580 233 476 c 2,4,-1
527 957 m 2,22,-1
 536 957 l 2,23,24
 663 957 663 957 777 875 c 0,25,26
 798 861 798 861 832 827 c 0,27,28
 876 780 876 780 895 747 c 0,29,30
 917 712 917 712 932 675 c 2,31,-1
 948 633 l 1,32,-1
 963 591 l 1,33,-1
 530 415 l 1,34,-1
 270 309 l 1,35,36
 283 281 283 281 306 250 c 0,37,38
 318 233 318 233 345 205 c 0,39,40
 430 130 430 130 532 130 c 0,41,42
 645 130 645 130 735 221 c 1,43,-1
 747 235 l 1,44,-1
 757 248 l 1,45,-1
 768 264 l 1,46,-1
 777 277 l 1,47,-1
 817 253 l 1,48,-1
 896 203 l 1,49,50
 880 176 880 176 855 145 c 0,51,52
 822 108 822 108 798 89 c 0,53,54
 721 24 721 24 621 0 c 0,55,56
 576 -10 576 -10 534 -10 c 2,57,-1
 531 -10 l 2,58,59
 378 -10 378 -10 253 100 c 0,60,61
 214 138 214 138 205 151 c 0,62,63
 179 184 179 184 160 216 c 0,64,65
 144 245 144 245 129 281 c 0,66,67
 93 375 93 375 93 465 c 2,68,-1
 93 482 l 2,69,70
 93 594 93 594 147 707 c 0,71,72
 167 748 167 748 201 791 c 0,73,74
 211 806 211 806 247 842 c 0,75,76
 275 868 275 868 301 885 c 256,77,78
 327 902 327 902 347 913 c 0,79,80
 437 957 437 957 527 957 c 2,22,-1
EndSplineSet
EndChar

StartChar: ecircumflex
Encoding: 234 234 170
Width: 1061
Flags: W
LayerCount: 3
Fore
SplineSet
492 1422 m 1,0,-1
 581 1422 l 2,1,2
 584 1420 584 1420 684 1301 c 2,3,-1
 787 1178 l 1,4,-1
 681 1088 l 2,5,6
 678 1090 678 1090 632 1146 c 0,7,8
 539 1255 539 1255 537 1258 c 2,9,-1
 393 1088 l 1,10,-1
 392 1088 l 1,11,-1
 286 1178 l 1,12,-1
 286 1179 l 1,13,-1
 492 1422 l 1,0,-1
233 476 m 2,14,-1
 233 472 l 1,15,-1
 234 447 l 1,16,-1
 649 615 l 1,17,-1
 779 668 l 1,18,19
 766 689 766 689 745 715 c 0,20,21
 720 742 720 742 705 754 c 0,22,23
 626 817 626 817 532 817 c 0,24,25
 439 817 439 817 360 754 c 0,26,27
 346 744 346 744 322 717 c 256,28,29
 298 690 298 690 288 671 c 0,30,31
 233 580 233 580 233 476 c 2,14,-1
527 957 m 2,32,-1
 536 957 l 2,33,34
 663 957 663 957 777 875 c 0,35,36
 798 861 798 861 832 827 c 0,37,38
 876 780 876 780 895 747 c 0,39,40
 917 712 917 712 932 675 c 2,41,-1
 948 633 l 1,42,-1
 963 591 l 1,43,-1
 530 415 l 1,44,-1
 270 309 l 1,45,46
 283 281 283 281 306 250 c 0,47,48
 318 233 318 233 345 205 c 0,49,50
 430 130 430 130 532 130 c 0,51,52
 645 130 645 130 735 221 c 1,53,-1
 747 235 l 1,54,-1
 757 248 l 1,55,-1
 768 264 l 1,56,-1
 777 277 l 1,57,-1
 817 253 l 1,58,-1
 896 203 l 1,59,60
 880 176 880 176 855 145 c 0,61,62
 822 108 822 108 798 89 c 0,63,64
 721 24 721 24 621 0 c 0,65,66
 576 -10 576 -10 534 -10 c 2,67,-1
 531 -10 l 2,68,69
 378 -10 378 -10 253 100 c 0,70,71
 214 138 214 138 205 151 c 0,72,73
 179 184 179 184 160 216 c 0,74,75
 144 245 144 245 129 281 c 0,76,77
 93 375 93 375 93 465 c 2,78,-1
 93 482 l 2,79,80
 93 594 93 594 147 707 c 0,81,82
 167 748 167 748 201 791 c 0,83,84
 211 806 211 806 247 842 c 0,85,86
 275 868 275 868 301 885 c 256,87,88
 327 902 327 902 347 913 c 0,89,90
 437 957 437 957 527 957 c 2,32,-1
EndSplineSet
EndChar

StartChar: edieresis
Encoding: 235 235 171
Width: 1061
Flags: W
LayerCount: 3
Fore
SplineSet
356 1349 m 0,0,1
 399 1349 399 1349 431 1315 c 0,2,3
 456 1285 456 1285 456 1253 c 2,4,-1
 456 1246 l 2,5,6
 456 1207 456 1207 423 1175 c 0,7,8
 393 1149 393 1149 356 1149 c 2,9,-1
 355 1149 l 2,10,11
 304 1149 304 1149 271 1195 c 0,12,13
 256 1222 256 1222 256 1245 c 2,14,-1
 256 1253 l 2,15,16
 256 1292 256 1292 289 1324 c 0,17,18
 319 1349 319 1349 356 1349 c 0,0,1
696 1349 m 0,19,20
 739 1349 739 1349 771 1315 c 0,21,22
 796 1285 796 1285 796 1253 c 2,23,-1
 796 1246 l 2,24,25
 796 1207 796 1207 763 1175 c 0,26,27
 733 1149 733 1149 696 1149 c 2,28,-1
 695 1149 l 2,29,30
 644 1149 644 1149 611 1195 c 0,31,32
 596 1222 596 1222 596 1245 c 2,33,-1
 596 1253 l 2,34,35
 596 1292 596 1292 629 1324 c 0,36,37
 659 1349 659 1349 696 1349 c 0,19,20
233 476 m 2,38,-1
 233 472 l 1,39,-1
 234 447 l 1,40,-1
 649 615 l 1,41,-1
 779 668 l 1,42,43
 766 689 766 689 745 715 c 0,44,45
 720 742 720 742 705 754 c 0,46,47
 626 817 626 817 532 817 c 0,48,49
 439 817 439 817 360 754 c 0,50,51
 346 744 346 744 322 717 c 256,52,53
 298 690 298 690 288 671 c 0,54,55
 233 580 233 580 233 476 c 2,38,-1
527 957 m 2,56,-1
 536 957 l 2,57,58
 663 957 663 957 777 875 c 0,59,60
 798 861 798 861 832 827 c 0,61,62
 876 780 876 780 895 747 c 0,63,64
 917 712 917 712 932 675 c 2,65,-1
 948 633 l 1,66,-1
 963 591 l 1,67,-1
 530 415 l 1,68,-1
 270 309 l 1,69,70
 283 281 283 281 306 250 c 0,71,72
 318 233 318 233 345 205 c 0,73,74
 430 130 430 130 532 130 c 0,75,76
 645 130 645 130 735 221 c 1,77,-1
 747 235 l 1,78,-1
 757 248 l 1,79,-1
 768 264 l 1,80,-1
 777 277 l 1,81,-1
 817 253 l 1,82,-1
 896 203 l 1,83,84
 880 176 880 176 855 145 c 0,85,86
 822 108 822 108 798 89 c 0,87,88
 721 24 721 24 621 0 c 0,89,90
 576 -10 576 -10 534 -10 c 2,91,-1
 531 -10 l 2,92,93
 378 -10 378 -10 253 100 c 0,94,95
 214 138 214 138 205 151 c 0,96,97
 179 184 179 184 160 216 c 0,98,99
 144 245 144 245 129 281 c 0,100,101
 93 375 93 375 93 465 c 2,102,-1
 93 482 l 2,103,104
 93 594 93 594 147 707 c 0,105,106
 167 748 167 748 201 791 c 0,107,108
 211 806 211 806 247 842 c 0,109,110
 275 868 275 868 301 885 c 256,111,112
 327 902 327 902 347 913 c 0,113,114
 437 957 437 957 527 957 c 2,56,-1
EndSplineSet
EndChar

StartChar: igrave
Encoding: 236 236 172
Width: 466
Flags: W
LayerCount: 3
Fore
SplineSet
164 950 m 1,0,-1
 302 950 l 1,1,-1
 303 949 l 1,2,-1
 303 1 l 1,3,-1
 302 0 l 1,4,-1
 164 0 l 1,5,-1
 163 1 l 1,6,-1
 163 949 l 1,7,-1
 164 950 l 1,0,-1
104 1410 m 1,8,-1
 434 1207 l 1,9,-1
 360 1088 l 1,10,-1
 31 1292 l 1,11,-1
 104 1410 l 1,8,-1
EndSplineSet
EndChar

StartChar: iacute
Encoding: 237 237 173
Width: 466
Flags: W
LayerCount: 3
Fore
SplineSet
164 950 m 1,0,-1
 302 950 l 1,1,-1
 303 949 l 1,2,-1
 303 1 l 1,3,-1
 302 0 l 1,4,-1
 164 0 l 1,5,-1
 163 1 l 1,6,-1
 163 949 l 1,7,-1
 164 950 l 1,0,-1
434 1292 m 1,8,-1
 105 1088 l 1,9,-1
 31 1207 l 1,10,-1
 361 1410 l 1,11,-1
 434 1292 l 1,8,-1
EndSplineSet
EndChar

StartChar: icircumflex
Encoding: 238 238 174
Width: 466
Flags: W
LayerCount: 3
Fore
SplineSet
164 950 m 1,0,-1
 302 950 l 1,1,-1
 303 949 l 1,2,-1
 303 1 l 1,3,-1
 302 0 l 1,4,-1
 164 0 l 1,5,-1
 163 1 l 1,6,-1
 163 949 l 1,7,-1
 164 950 l 1,0,-1
188 1422 m 1,8,-1
 277 1422 l 2,9,10
 280 1420 280 1420 380 1301 c 2,11,-1
 483 1178 l 1,12,-1
 377 1088 l 2,13,14
 374 1090 374 1090 328 1146 c 0,15,16
 235 1255 235 1255 233 1258 c 2,17,-1
 89 1088 l 1,18,-1
 88 1088 l 1,19,-1
 -18 1178 l 1,20,-1
 -18 1179 l 1,21,-1
 188 1422 l 1,8,-1
EndSplineSet
EndChar

StartChar: idieresis
Encoding: 239 239 175
Width: 466
Flags: W
LayerCount: 3
Fore
SplineSet
164 950 m 1,0,-1
 302 950 l 1,1,-1
 303 949 l 1,2,-1
 303 1 l 1,3,-1
 302 0 l 1,4,-1
 164 0 l 1,5,-1
 163 1 l 1,6,-1
 163 949 l 1,7,-1
 164 950 l 1,0,-1
83 1349 m 0,8,9
 126 1349 126 1349 158 1315 c 0,10,11
 183 1285 183 1285 183 1253 c 2,12,-1
 183 1246 l 2,13,14
 183 1207 183 1207 150 1175 c 0,15,16
 120 1149 120 1149 83 1149 c 2,17,-1
 82 1149 l 2,18,19
 31 1149 31 1149 -2 1195 c 0,20,21
 -17 1222 -17 1222 -17 1245 c 2,22,-1
 -17 1253 l 2,23,24
 -17 1292 -17 1292 16 1324 c 0,25,26
 46 1349 46 1349 83 1349 c 0,8,9
383 1349 m 0,27,28
 426 1349 426 1349 458 1315 c 0,29,30
 483 1285 483 1285 483 1253 c 2,31,-1
 483 1246 l 2,32,33
 483 1207 483 1207 450 1175 c 0,34,35
 420 1149 420 1149 383 1149 c 2,36,-1
 382 1149 l 2,37,38
 331 1149 331 1149 298 1195 c 0,39,40
 283 1222 283 1222 283 1245 c 2,41,-1
 283 1253 l 2,42,43
 283 1292 283 1292 316 1324 c 0,44,45
 346 1349 346 1349 383 1349 c 0,27,28
EndSplineSet
EndChar

StartChar: ntilde
Encoding: 241 241 177
Width: 1068
Flags: W
LayerCount: 3
Fore
SplineSet
831 1206 m 1,0,1
 800 1172 800 1172 770 1155 c 0,2,3
 723 1130 723 1130 678 1130 c 0,4,5
 629 1130 629 1130 535.5 1178.5 c 128,-1,6
 442 1227 442 1227 394 1227 c 0,7,8
 354 1227 354 1227 309 1199 c 0,9,10
 279 1180 279 1180 243 1137 c 1,11,-1
 243 1291 l 1,12,13
 274 1326 274 1326 304 1342 c 0,14,15
 351 1368 351 1368 394 1368 c 0,16,17
 446 1368 446 1368 539.5 1318.5 c 128,-1,18
 633 1269 633 1269 678 1269 c 0,19,20
 719 1269 719 1269 764 1297 c 0,21,22
 794 1316 794 1316 831 1360 c 1,23,-1
 831 1206 l 1,0,1
509 950 m 2,24,-1
 564 950 l 2,25,26
 804 950 804 950 896 755 c 1,27,28
 920 688 920 688 920 605 c 2,29,-1
 920 3 l 1,30,-1
 916 0 l 1,31,-1
 782 0 l 1,32,-1
 779 3 l 1,33,-1
 779 615 l 2,34,35
 779 766 779 766 636 802 c 0,36,37
 600 809 600 809 571 809 c 2,38,-1
 500 809 l 2,39,40
 356 809 356 809 306 697 c 0,41,42
 292 659 292 659 292 601 c 2,43,-1
 292 3 l 1,44,-1
 289 0 l 1,45,-1
 156 0 l 1,46,-1
 153 3 l 1,47,-1
 153 933 l 1,48,-1
 156 936 l 1,49,-1
 289 936 l 1,50,-1
 292 933 l 1,51,-1
 292 894 l 1,52,-1
 294 894 l 1,53,54
 385 950 385 950 509 950 c 2,24,-1
EndSplineSet
EndChar

StartChar: ograve
Encoding: 242 242 178
Width: 1058
Flags: W
LayerCount: 3
Fore
SplineSet
401 1410 m 1,0,-1
 731 1207 l 1,1,-1
 657 1088 l 1,2,-1
 328 1292 l 1,3,-1
 401 1410 l 1,0,-1
529 958 m 0,4,5
 673 958 673 958 793 861 c 0,6,7
 833 827 833 827 857 796 c 0,8,9
 879 768 879 768 893 746 c 0,10,11
 908 721 908 721 921 693 c 0,12,13
 968 587 968 587 968 482 c 2,14,-1
 968 468 l 2,15,16
 968 344 968 344 907 226 c 0,17,18
 886 189 886 189 850 144 c 0,19,20
 815 105 815 105 793 88 c 0,21,22
 673 -9 673 -9 531 -9 c 2,23,-1
 527 -9 l 2,24,25
 381 -9 381 -9 258 94 c 0,26,27
 222 127 222 127 207 146 c 0,28,29
 161 203 161 203 142 245 c 0,30,31
 129 270 129 270 113 319 c 0,32,33
 90 397 90 397 90 466 c 2,34,-1
 90 481 l 2,35,36
 90 598 90 598 146 711 c 0,37,38
 163 746 163 746 190 781 c 0,39,40
 201 799 201 799 238 837 c 0,41,42
 284 879 284 879 310 893 c 0,43,44
 412 958 412 958 529 958 c 0,4,5
230 476 m 2,45,-1
 230 472 l 2,46,47
 230 350 230 350 303 249 c 0,48,49
 315 233 315 233 343 206 c 0,50,51
 427 131 427 131 529 131 c 0,52,53
 633 131 633 131 719 209 c 0,54,55
 750 241 750 241 763 260 c 0,56,57
 828 357 828 357 828 474 c 2,58,-1
 828 475 l 2,59,60
 828 602 828 602 752 703 c 0,61,62
 740 719 740 719 712 745 c 0,63,64
 629 818 629 818 529 818 c 0,65,66
 426 818 426 818 340 740 c 0,67,68
 303 703 303 703 294 686 c 0,69,70
 274 657 274 657 261 626 c 0,71,72
 230 553 230 553 230 476 c 2,45,-1
EndSplineSet
EndChar

StartChar: oacute
Encoding: 243 243 179
Width: 1058
Flags: W
LayerCount: 3
Fore
SplineSet
731 1292 m 5,0,-1
 402 1088 l 5,1,-1
 328 1207 l 5,2,-1
 658 1410 l 5,3,-1
 731 1292 l 5,0,-1
529 958 m 0,4,5
 673 958 673 958 793 861 c 0,6,7
 833 827 833 827 857 796 c 0,8,9
 879 768 879 768 893 746 c 0,10,11
 908 721 908 721 921 693 c 0,12,13
 968 587 968 587 968 482 c 2,14,-1
 968 468 l 2,15,16
 968 344 968 344 907 226 c 0,17,18
 886 189 886 189 850 144 c 0,19,20
 815 105 815 105 793 88 c 0,21,22
 673 -9 673 -9 531 -9 c 2,23,-1
 527 -9 l 2,24,25
 381 -9 381 -9 258 94 c 0,26,27
 222 127 222 127 207 146 c 0,28,29
 161 203 161 203 142 245 c 0,30,31
 129 270 129 270 113 319 c 0,32,33
 90 397 90 397 90 466 c 2,34,-1
 90 481 l 2,35,36
 90 598 90 598 146 711 c 0,37,38
 163 746 163 746 190 781 c 0,39,40
 201 799 201 799 238 837 c 0,41,42
 284 879 284 879 310 893 c 0,43,44
 412 958 412 958 529 958 c 0,4,5
230 476 m 2,45,-1
 230 472 l 2,46,47
 230 350 230 350 303 249 c 0,48,49
 315 233 315 233 343 206 c 0,50,51
 427 131 427 131 529 131 c 0,52,53
 633 131 633 131 719 209 c 0,54,55
 750 241 750 241 763 260 c 0,56,57
 828 357 828 357 828 474 c 2,58,-1
 828 475 l 2,59,60
 828 602 828 602 752 703 c 0,61,62
 740 719 740 719 712 745 c 0,63,64
 629 818 629 818 529 818 c 0,65,66
 426 818 426 818 340 740 c 0,67,68
 303 703 303 703 294 686 c 0,69,70
 274 657 274 657 261 626 c 0,71,72
 230 553 230 553 230 476 c 2,45,-1
EndSplineSet
EndChar

StartChar: ocircumflex
Encoding: 244 244 180
Width: 1058
Flags: W
LayerCount: 3
Fore
SplineSet
485 1422 m 1,0,-1
 574 1422 l 2,1,2
 577 1420 577 1420 677 1301 c 2,3,-1
 780 1178 l 1,4,-1
 674 1088 l 2,5,6
 671 1090 671 1090 625 1146 c 0,7,8
 532 1255 532 1255 530 1258 c 2,9,-1
 386 1088 l 1,10,-1
 385 1088 l 1,11,-1
 279 1178 l 1,12,-1
 279 1179 l 1,13,-1
 485 1422 l 1,0,-1
529 958 m 0,14,15
 673 958 673 958 793 861 c 0,16,17
 833 827 833 827 857 796 c 0,18,19
 879 768 879 768 893 746 c 0,20,21
 908 721 908 721 921 693 c 0,22,23
 968 587 968 587 968 482 c 2,24,-1
 968 468 l 2,25,26
 968 344 968 344 907 226 c 0,27,28
 886 189 886 189 850 144 c 0,29,30
 815 105 815 105 793 88 c 0,31,32
 673 -9 673 -9 531 -9 c 2,33,-1
 527 -9 l 2,34,35
 381 -9 381 -9 258 94 c 0,36,37
 222 127 222 127 207 146 c 0,38,39
 161 203 161 203 142 245 c 0,40,41
 129 270 129 270 113 319 c 0,42,43
 90 397 90 397 90 466 c 2,44,-1
 90 481 l 2,45,46
 90 598 90 598 146 711 c 0,47,48
 163 746 163 746 190 781 c 0,49,50
 201 799 201 799 238 837 c 0,51,52
 284 879 284 879 310 893 c 0,53,54
 412 958 412 958 529 958 c 0,14,15
230 476 m 2,55,-1
 230 472 l 2,56,57
 230 350 230 350 303 249 c 0,58,59
 315 233 315 233 343 206 c 0,60,61
 427 131 427 131 529 131 c 0,62,63
 633 131 633 131 719 209 c 0,64,65
 750 241 750 241 763 260 c 0,66,67
 828 357 828 357 828 474 c 2,68,-1
 828 475 l 2,69,70
 828 602 828 602 752 703 c 0,71,72
 740 719 740 719 712 745 c 0,73,74
 629 818 629 818 529 818 c 0,75,76
 426 818 426 818 340 740 c 0,77,78
 303 703 303 703 294 686 c 0,79,80
 274 657 274 657 261 626 c 0,81,82
 230 553 230 553 230 476 c 2,55,-1
EndSplineSet
EndChar

StartChar: otilde
Encoding: 245 245 181
Width: 1058
Flags: W
LayerCount: 3
Fore
SplineSet
823 1206 m 1,0,1
 792 1172 792 1172 762 1155 c 0,2,3
 715 1130 715 1130 670 1130 c 0,4,5
 621 1130 621 1130 527.5 1178.5 c 128,-1,6
 434 1227 434 1227 386 1227 c 0,7,8
 346 1227 346 1227 301 1199 c 0,9,10
 271 1180 271 1180 235 1137 c 1,11,-1
 235 1291 l 1,12,13
 266 1326 266 1326 296 1342 c 0,14,15
 343 1368 343 1368 386 1368 c 0,16,17
 438 1368 438 1368 531.5 1318.5 c 128,-1,18
 625 1269 625 1269 670 1269 c 0,19,20
 711 1269 711 1269 756 1297 c 0,21,22
 786 1316 786 1316 823 1360 c 1,23,-1
 823 1206 l 1,0,1
529 958 m 0,24,25
 673 958 673 958 793 861 c 0,26,27
 833 827 833 827 857 796 c 0,28,29
 879 768 879 768 893 746 c 0,30,31
 908 721 908 721 921 693 c 0,32,33
 968 587 968 587 968 482 c 2,34,-1
 968 468 l 2,35,36
 968 344 968 344 907 226 c 0,37,38
 886 189 886 189 850 144 c 0,39,40
 815 105 815 105 793 88 c 0,41,42
 673 -9 673 -9 531 -9 c 2,43,-1
 527 -9 l 2,44,45
 381 -9 381 -9 258 94 c 0,46,47
 222 127 222 127 207 146 c 0,48,49
 161 203 161 203 142 245 c 0,50,51
 129 270 129 270 113 319 c 0,52,53
 90 397 90 397 90 466 c 2,54,-1
 90 481 l 2,55,56
 90 598 90 598 146 711 c 0,57,58
 163 746 163 746 190 781 c 0,59,60
 201 799 201 799 238 837 c 0,61,62
 284 879 284 879 310 893 c 0,63,64
 412 958 412 958 529 958 c 0,24,25
230 476 m 2,65,-1
 230 472 l 2,66,67
 230 350 230 350 303 249 c 0,68,69
 315 233 315 233 343 206 c 0,70,71
 427 131 427 131 529 131 c 0,72,73
 633 131 633 131 719 209 c 0,74,75
 750 241 750 241 763 260 c 0,76,77
 828 357 828 357 828 474 c 2,78,-1
 828 475 l 2,79,80
 828 602 828 602 752 703 c 0,81,82
 740 719 740 719 712 745 c 0,83,84
 629 818 629 818 529 818 c 0,85,86
 426 818 426 818 340 740 c 0,87,88
 303 703 303 703 294 686 c 0,89,90
 274 657 274 657 261 626 c 0,91,92
 230 553 230 553 230 476 c 2,65,-1
EndSplineSet
EndChar

StartChar: odieresis
Encoding: 246 246 182
Width: 1058
Flags: W
LayerCount: 3
Fore
SplineSet
529 958 m 0,0,1
 673 958 673 958 793 861 c 0,2,3
 833 827 833 827 857 796 c 0,4,5
 879 768 879 768 893 746 c 0,6,7
 908 721 908 721 921 693 c 0,8,9
 968 587 968 587 968 482 c 2,10,-1
 968 468 l 2,11,12
 968 344 968 344 907 226 c 0,13,14
 886 189 886 189 850 144 c 0,15,16
 815 105 815 105 793 88 c 0,17,18
 673 -9 673 -9 531 -9 c 2,19,-1
 527 -9 l 2,20,21
 381 -9 381 -9 258 94 c 0,22,23
 222 127 222 127 207 146 c 0,24,25
 161 203 161 203 142 245 c 0,26,27
 129 270 129 270 113 319 c 0,28,29
 90 397 90 397 90 466 c 2,30,-1
 90 481 l 2,31,32
 90 598 90 598 146 711 c 0,33,34
 163 746 163 746 190 781 c 0,35,36
 201 799 201 799 238 837 c 0,37,38
 284 879 284 879 310 893 c 0,39,40
 412 958 412 958 529 958 c 0,0,1
230 476 m 2,41,-1
 230 472 l 2,42,43
 230 350 230 350 303 249 c 0,44,45
 315 233 315 233 343 206 c 0,46,47
 427 131 427 131 529 131 c 0,48,49
 633 131 633 131 719 209 c 0,50,51
 750 241 750 241 763 260 c 0,52,53
 828 357 828 357 828 474 c 2,54,-1
 828 475 l 2,55,56
 828 602 828 602 752 703 c 0,57,58
 740 719 740 719 712 745 c 0,59,60
 629 818 629 818 529 818 c 0,61,62
 426 818 426 818 340 740 c 0,63,64
 303 703 303 703 294 686 c 0,65,66
 274 657 274 657 261 626 c 0,67,68
 230 553 230 553 230 476 c 2,41,-1
359 1349 m 0,69,70
 402 1349 402 1349 434 1315 c 0,71,72
 459 1285 459 1285 459 1253 c 2,73,-1
 459 1246 l 2,74,75
 459 1207 459 1207 426 1175 c 0,76,77
 396 1149 396 1149 359 1149 c 2,78,-1
 358 1149 l 2,79,80
 307 1149 307 1149 274 1195 c 0,81,82
 259 1222 259 1222 259 1245 c 2,83,-1
 259 1253 l 2,84,85
 259 1292 259 1292 292 1324 c 0,86,87
 322 1349 322 1349 359 1349 c 0,69,70
699 1349 m 0,88,89
 742 1349 742 1349 774 1315 c 0,90,91
 799 1285 799 1285 799 1253 c 2,92,-1
 799 1246 l 2,93,94
 799 1207 799 1207 766 1175 c 0,95,96
 736 1149 736 1149 699 1149 c 2,97,-1
 698 1149 l 2,98,99
 647 1149 647 1149 614 1195 c 0,100,101
 599 1222 599 1222 599 1245 c 2,102,-1
 599 1253 l 2,103,104
 599 1292 599 1292 632 1324 c 0,105,106
 662 1349 662 1349 699 1349 c 0,88,89
EndSplineSet
EndChar

StartChar: divide
Encoding: 247 247 183
Width: 753
Flags: W
LayerCount: 3
Fore
SplineSet
43 680 m 1,0,-1
 716 680 l 1,1,-1
 716 540 l 1,2,-1
 43 540 l 1,3,-1
 43 680 l 1,0,-1
379 415 m 2,4,-1
 381 415 l 2,5,6
 424 415 424 415 456 380 c 0,7,8
 480 350 480 350 480 319 c 2,9,-1
 480 313 l 2,10,11
 480 270 480 270 443 238 c 0,12,13
 415 215 415 215 379 215 c 0,14,15
 341 215 341 215 310 243 c 0,16,17
 280 275 280 275 280 311 c 2,18,-1
 280 319 l 2,19,20
 280 357 280 357 313 389 c 0,21,22
 342 415 342 415 379 415 c 2,4,-1
379 1005 m 2,23,-1
 381 1005 l 2,24,25
 424 1005 424 1005 456 970 c 0,26,27
 480 940 480 940 480 909 c 2,28,-1
 480 903 l 2,29,30
 480 860 480 860 443 828 c 0,31,32
 415 805 415 805 379 805 c 0,33,34
 341 805 341 805 310 833 c 0,35,36
 280 865 280 865 280 901 c 2,37,-1
 280 909 l 2,38,39
 280 947 280 947 313 979 c 0,40,41
 342 1005 342 1005 379 1005 c 2,23,-1
EndSplineSet
EndChar

StartChar: oslash
Encoding: 248 248 184
Width: 1058
Flags: W
LayerCount: 3
Fore
SplineSet
636 795 m 1,0,1
 585 818 585 818 529 818 c 0,2,3
 426 818 426 818 340 740 c 0,4,5
 303 703 303 703 294 686 c 0,6,7
 274 657 274 657 261 626 c 0,8,9
 230 553 230 553 230 476 c 2,10,-1
 230 472 l 2,11,12
 230 350 230 350 303 249 c 0,13,14
 306 245 306 245 310 240 c 1,15,-1
 404 399 l 1,16,-1
 593 721 l 1,17,-1
 636 795 l 1,0,1
748 708 m 2,18,-1
 578 419 l 1,19,-1
 422 154 l 1,20,21
 473 131 473 131 529 131 c 0,22,23
 633 131 633 131 719 209 c 0,24,25
 750 241 750 241 763 260 c 0,26,27
 828 357 828 357 828 474 c 2,28,-1
 828 475 l 2,29,30
 828 602 828 602 752 703 c 0,31,32
 750 705 750 705 748 708 c 2,18,-1
708 916 m 1,33,-1
 783 1045 l 1,34,-1
 784 1045 l 1,35,-1
 904 974 l 1,36,-1
 904 973 l 1,37,-1
 822 835 l 1,38,39
 843 815 843 815 857 796 c 0,40,41
 879 768 879 768 893 746 c 0,42,43
 908 721 908 721 921 693 c 0,44,45
 968 587 968 587 968 482 c 2,46,-1
 968 468 l 2,47,48
 968 344 968 344 907 226 c 0,49,50
 886 189 886 189 850 144 c 0,51,52
 815 105 815 105 793 88 c 0,53,54
 673 -9 673 -9 531 -9 c 2,55,-1
 527 -9 l 2,56,57
 434 -9 434 -9 351 33 c 1,58,-1
 274 -97 l 1,59,-1
 154 -27 l 1,60,-1
 154 -26 l 1,61,-1
 237 114 l 1,62,63
 217 133 217 133 207 146 c 0,64,65
 161 203 161 203 142 245 c 0,66,67
 129 270 129 270 113 319 c 0,68,69
 90 397 90 397 90 466 c 2,70,-1
 90 481 l 2,71,72
 90 598 90 598 146 711 c 0,73,74
 163 746 163 746 190 781 c 0,75,76
 201 799 201 799 238 837 c 0,77,78
 284 879 284 879 310 893 c 0,79,80
 412 958 412 958 529 958 c 0,81,82
 623 958 623 958 708 916 c 1,33,-1
EndSplineSet
EndChar

StartChar: ugrave
Encoding: 249 249 185
Width: 1068
Flags: W
LayerCount: 3
Fore
SplineSet
404 1410 m 1,0,-1
 734 1207 l 1,1,-1
 660 1088 l 1,2,-1
 331 1292 l 1,3,-1
 404 1410 l 1,0,-1
151 937 m 1,4,-1
 286 937 l 1,5,-1
 289 934 l 1,6,-1
 289 321 l 2,7,8
 289 201 289 201 408 155 c 0,9,10
 453 141 453 141 492 141 c 2,11,-1
 569 141 l 2,12,13
 722 141 722 141 767 269 c 1,14,15
 774 306 774 306 774 330 c 2,16,-1
 774 934 l 1,17,-1
 778 937 l 1,18,-1
 912 937 l 1,19,-1
 916 934 l 1,20,-1
 916 17 l 1,21,-1
 912 14 l 1,22,-1
 778 14 l 1,23,-1
 774 17 l 1,24,-1
 774 56 l 1,25,26
 681 0 681 0 565 0 c 2,27,-1
 502 0 l 2,28,29
 281 0 281 0 185 169 c 0,30,31
 148 242 148 242 148 326 c 2,32,-1
 148 934 l 1,33,-1
 151 937 l 1,4,-1
EndSplineSet
EndChar

StartChar: uacute
Encoding: 250 250 186
Width: 1068
Flags: W
LayerCount: 3
Fore
SplineSet
734 1292 m 1,0,-1
 405 1088 l 1,1,-1
 331 1207 l 1,2,-1
 661 1410 l 1,3,-1
 734 1292 l 1,0,-1
151 937 m 1,4,-1
 286 937 l 1,5,-1
 289 934 l 1,6,-1
 289 321 l 2,7,8
 289 201 289 201 408 155 c 0,9,10
 453 141 453 141 492 141 c 2,11,-1
 569 141 l 2,12,13
 722 141 722 141 767 269 c 1,14,15
 774 306 774 306 774 330 c 2,16,-1
 774 934 l 1,17,-1
 778 937 l 1,18,-1
 912 937 l 1,19,-1
 916 934 l 1,20,-1
 916 17 l 1,21,-1
 912 14 l 1,22,-1
 778 14 l 1,23,-1
 774 17 l 1,24,-1
 774 56 l 1,25,26
 681 0 681 0 565 0 c 2,27,-1
 502 0 l 2,28,29
 281 0 281 0 185 169 c 0,30,31
 148 242 148 242 148 326 c 2,32,-1
 148 934 l 1,33,-1
 151 937 l 1,4,-1
EndSplineSet
EndChar

StartChar: ucircumflex
Encoding: 251 251 187
Width: 1068
Flags: W
LayerCount: 3
Fore
SplineSet
488 1422 m 5,0,-1
 577 1422 l 6,1,2
 580 1420 580 1420 680 1301 c 6,3,-1
 783 1178 l 5,4,-1
 677 1088 l 6,5,6
 674 1090 674 1090 628 1146 c 4,7,8
 535 1255 535 1255 533 1258 c 6,9,-1
 389 1088 l 5,10,-1
 388 1088 l 5,11,-1
 282 1178 l 5,12,-1
 282 1179 l 5,13,-1
 488 1422 l 5,0,-1
151 937 m 1,14,-1
 286 937 l 1,15,-1
 289 934 l 1,16,-1
 289 321 l 2,17,18
 289 201 289 201 408 155 c 0,19,20
 453 141 453 141 492 141 c 2,21,-1
 569 141 l 2,22,23
 722 141 722 141 767 269 c 1,24,25
 774 306 774 306 774 330 c 2,26,-1
 774 934 l 1,27,-1
 778 937 l 1,28,-1
 912 937 l 1,29,-1
 916 934 l 1,30,-1
 916 17 l 1,31,-1
 912 14 l 1,32,-1
 778 14 l 1,33,-1
 774 17 l 1,34,-1
 774 56 l 1,35,36
 681 0 681 0 565 0 c 2,37,-1
 502 0 l 2,38,39
 281 0 281 0 185 169 c 0,40,41
 148 242 148 242 148 326 c 2,42,-1
 148 934 l 1,43,-1
 151 937 l 1,14,-1
EndSplineSet
EndChar

StartChar: udieresis
Encoding: 252 252 188
Width: 1068
Flags: W
LayerCount: 3
Fore
SplineSet
362 1349 m 0,0,1
 405 1349 405 1349 437 1315 c 0,2,3
 462 1285 462 1285 462 1253 c 2,4,-1
 462 1246 l 2,5,6
 462 1207 462 1207 429 1175 c 0,7,8
 399 1149 399 1149 362 1149 c 2,9,-1
 361 1149 l 2,10,11
 310 1149 310 1149 277 1195 c 0,12,13
 262 1222 262 1222 262 1245 c 2,14,-1
 262 1253 l 2,15,16
 262 1292 262 1292 295 1324 c 0,17,18
 325 1349 325 1349 362 1349 c 0,0,1
702 1349 m 0,19,20
 745 1349 745 1349 777 1315 c 0,21,22
 802 1285 802 1285 802 1253 c 2,23,-1
 802 1246 l 2,24,25
 802 1207 802 1207 769 1175 c 0,26,27
 739 1149 739 1149 702 1149 c 2,28,-1
 701 1149 l 2,29,30
 650 1149 650 1149 617 1195 c 0,31,32
 602 1222 602 1222 602 1245 c 2,33,-1
 602 1253 l 2,34,35
 602 1292 602 1292 635 1324 c 0,36,37
 665 1349 665 1349 702 1349 c 0,19,20
151 937 m 1,38,-1
 286 937 l 1,39,-1
 289 934 l 1,40,-1
 289 321 l 2,41,42
 289 201 289 201 408 155 c 0,43,44
 453 141 453 141 492 141 c 2,45,-1
 569 141 l 2,46,47
 722 141 722 141 767 269 c 1,48,49
 774 306 774 306 774 330 c 2,50,-1
 774 934 l 1,51,-1
 778 937 l 1,52,-1
 912 937 l 1,53,-1
 916 934 l 1,54,-1
 916 17 l 1,55,-1
 912 14 l 1,56,-1
 778 14 l 1,57,-1
 774 17 l 1,58,-1
 774 56 l 1,59,60
 681 0 681 0 565 0 c 2,61,-1
 502 0 l 2,62,63
 281 0 281 0 185 169 c 0,64,65
 148 242 148 242 148 326 c 2,66,-1
 148 934 l 1,67,-1
 151 937 l 1,38,-1
EndSplineSet
EndChar

StartChar: yacute
Encoding: 253 253 189
Width: 960
Flags: W
LayerCount: 3
Fore
SplineSet
681 1292 m 1,0,-1
 352 1088 l 1,1,-1
 278 1207 l 1,2,-1
 608 1410 l 1,3,-1
 681 1292 l 1,0,-1
184 950 m 2,4,5
 185 950 185 950 192 929 c 2,6,-1
 362 493 l 1,7,-1
 479 194 l 1,8,-1
 480 194 l 1,9,-1
 652 637 l 2,10,11
 658 649 658 649 756 901 c 2,12,-1
 775 950 l 1,13,-1
 924 950 l 1,14,-1
 925 949 l 1,15,-1
 757 520 l 1,16,-1
 571 42 l 1,17,-1
 398 -402 l 1,18,-1
 386 -431 l 1,19,-1
 237 -431 l 1,20,-1
 236 -430 l 1,21,22
 402 -7 402 -7 404 1 c 1,23,-1
 233 439 l 1,24,-1
 75 845 l 1,25,-1
 34 950 l 1,26,-1
 184 950 l 2,4,5
EndSplineSet
EndChar

StartChar: ydieresis
Encoding: 255 255 191
Width: 960
Flags: W
LayerCount: 3
Fore
SplineSet
310 1349 m 0,0,1
 353 1349 353 1349 385 1315 c 0,2,3
 410 1285 410 1285 410 1253 c 2,4,-1
 410 1246 l 2,5,6
 410 1207 410 1207 377 1175 c 0,7,8
 347 1149 347 1149 310 1149 c 2,9,-1
 309 1149 l 2,10,11
 258 1149 258 1149 225 1195 c 0,12,13
 210 1222 210 1222 210 1245 c 2,14,-1
 210 1253 l 2,15,16
 210 1292 210 1292 243 1324 c 0,17,18
 273 1349 273 1349 310 1349 c 0,0,1
650 1349 m 0,19,20
 693 1349 693 1349 725 1315 c 0,21,22
 750 1285 750 1285 750 1253 c 2,23,-1
 750 1246 l 2,24,25
 750 1207 750 1207 717 1175 c 0,26,27
 687 1149 687 1149 650 1149 c 2,28,-1
 649 1149 l 2,29,30
 598 1149 598 1149 565 1195 c 0,31,32
 550 1222 550 1222 550 1245 c 2,33,-1
 550 1253 l 2,34,35
 550 1292 550 1292 583 1324 c 0,36,37
 613 1349 613 1349 650 1349 c 0,19,20
184 950 m 2,38,39
 185 950 185 950 192 929 c 2,40,-1
 362 493 l 1,41,-1
 479 194 l 1,42,-1
 480 194 l 1,43,-1
 652 637 l 2,44,45
 658 649 658 649 756 901 c 2,46,-1
 775 950 l 1,47,-1
 924 950 l 1,48,-1
 925 949 l 1,49,-1
 757 520 l 1,50,-1
 571 42 l 1,51,-1
 398 -402 l 1,52,-1
 386 -431 l 1,53,-1
 237 -431 l 1,54,-1
 236 -430 l 1,55,56
 402 -7 402 -7 404 1 c 1,57,-1
 233 439 l 1,58,-1
 75 845 l 1,59,-1
 34 950 l 1,60,-1
 184 950 l 2,38,39
EndSplineSet
EndChar

StartChar: circumflex
Encoding: 710 710 193
Width: 753
Flags: W
LayerCount: 3
Fore
SplineSet
511 1276 m 1,0,-1
 657 1053 l 2,1,2
 685 1011 685 1011 685 1009 c 2,3,-1
 569 933 l 1,4,5
 560 945 560 945 377 1225 c 1,6,-1
 185 933 l 2,7,8
 183 933 183 933 68 1010 c 1,9,-1
 141 1121 l 1,10,-1
 323 1399 l 1,11,-1
 430 1399 l 1,12,-1
 511 1276 l 1,0,-1
EndSplineSet
EndChar

StartChar: caron
Encoding: 711 711 194
Width: 753
Flags: W
LayerCount: 3
Fore
SplineSet
430 933 m 5,0,-1
 323 933 l 5,1,-1
 141 1211 l 5,2,-1
 68 1322 l 5,3,4
 183 1399 183 1399 185 1399 c 6,5,-1
 377 1107 l 5,6,7
 560 1387 560 1387 569 1399 c 5,8,-1
 685 1323 l 6,9,10
 685 1321 685 1321 657 1279 c 6,11,-1
 511 1056 l 5,12,-1
 430 933 l 5,0,-1
EndSplineSet
EndChar

StartChar: uni02C9
Encoding: 713 713 195
Width: 652
Flags: W
LayerCount: 3
Fore
SplineSet
68 1275 m 1,0,-1
 68 1400 l 1,1,-1
 584 1400 l 1,2,-1
 584 1275 l 1,3,-1
 68 1275 l 1,0,-1
EndSplineSet
EndChar

StartChar: breve
Encoding: 728 728 196
Width: 650
Flags: W
LayerCount: 3
Fore
SplineSet
68 1399 m 1,0,-1
 113 1399 l 1,1,2
 128 1335 128 1335 179 1305 c 128,-1,3
 230 1275 230 1275 326 1275 c 256,4,5
 422 1275 422 1275 472.5 1304.5 c 128,-1,6
 523 1334 523 1334 538 1399 c 1,7,-1
 582 1399 l 1,8,9
 565 1282 565 1282 499.5 1221.5 c 128,-1,10
 434 1161 434 1161 326 1161 c 0,11,12
 219 1161 219 1161 152.5 1222 c 128,-1,13
 86 1283 86 1283 68 1399 c 1,0,-1
EndSplineSet
EndChar

StartChar: dotaccent
Encoding: 729 729 197
Width: 684
Flags: W
LayerCount: 3
Fore
SplineSet
341 1400 m 2,0,-1
 343 1400 l 2,1,2
 386 1400 386 1400 418 1365 c 0,3,4
 442 1335 442 1335 442 1304 c 2,5,-1
 442 1298 l 2,6,7
 442 1255 442 1255 405 1223 c 0,8,9
 377 1200 377 1200 341 1200 c 0,10,11
 303 1200 303 1200 272 1228 c 0,12,13
 242 1260 242 1260 242 1296 c 2,14,-1
 242 1304 l 2,15,16
 242 1342 242 1342 275 1374 c 0,17,18
 304 1400 304 1400 341 1400 c 2,0,-1
EndSplineSet
EndChar

StartChar: ring
Encoding: 730 730 198
Width: 364
Flags: W
LayerCount: 3
Fore
SplineSet
131 1322 m 256,0,1
 110 1322 110 1322 94 1306.5 c 128,-1,2
 78 1291 78 1291 78 1269 c 0,3,4
 78 1248 78 1248 93.5 1232.5 c 128,-1,5
 109 1217 109 1217 131 1217 c 0,6,7
 152 1217 152 1217 167.5 1232.5 c 128,-1,8
 183 1248 183 1248 183 1269 c 0,9,10
 183 1291 183 1291 167.5 1306.5 c 128,-1,11
 152 1322 152 1322 131 1322 c 256,0,1
131 1400 m 0,12,13
 185 1400 185 1400 223 1362 c 128,-1,14
 261 1324 261 1324 261 1270 c 256,15,16
 261 1216 261 1216 222.5 1177.5 c 128,-1,17
 184 1139 184 1139 130 1139 c 0,18,19
 75 1139 75 1139 37.5 1177 c 128,-1,20
 0 1215 0 1215 0 1270 c 0,21,22
 0 1324 0 1324 38 1362 c 128,-1,23
 76 1400 76 1400 131 1400 c 0,12,13
EndSplineSet
EndChar

StartChar: hungarumlaut
Encoding: 733 733 201
Width: 682
Flags: W
LayerCount: 3
Fore
SplineSet
243 1399 m 1,0,-1
 359 1321 l 1,1,-1
 359 1320 l 1,2,-1
 212 1104 l 1,3,-1
 211 1104 l 1,4,-1
 96 1182 l 1,5,-1
 96 1183 l 1,6,7
 239 1394 239 1394 243 1399 c 1,0,-1
523 1399 m 1,8,-1
 639 1321 l 1,9,-1
 639 1320 l 1,10,-1
 492 1104 l 1,11,-1
 491 1104 l 1,12,-1
 376 1182 l 1,13,-1
 376 1183 l 1,14,15
 519 1394 519 1394 523 1399 c 1,8,-1
EndSplineSet
EndChar

StartChar: endash
Encoding: 8211 8211 202
Width: 990
Flags: W
LayerCount: 3
Fore
SplineSet
70 419 m 1,0,-1
 70 539 l 1,1,-1
 920 539 l 1,2,-1
 920 419 l 1,3,-1
 70 419 l 1,0,-1
EndSplineSet
EndChar

StartChar: emdash
Encoding: 8212 8212 203
Width: 1350
Flags: W
LayerCount: 3
Fore
SplineSet
100 539 m 1,0,-1
 1250 539 l 1,1,-1
 1250 399 l 1,2,-1
 100 399 l 1,3,-1
 100 539 l 1,0,-1
EndSplineSet
EndChar

StartChar: quoteleft
Encoding: 8216 8216 204
Width: 323
Flags: W
LayerCount: 3
Fore
SplineSet
140 1200 m 1,0,-1
 140 1463 l 1,1,-1
 280 1463 l 1,2,-1
 280 1200 l 1,3,-1
 140 1200 l 1,0,-1
EndSplineSet
EndChar

StartChar: quoteright
Encoding: 8217 8217 205
Width: 323
Flags: W
LayerCount: 3
Fore
SplineSet
140 1200 m 1,0,-1
 140 1463 l 1,1,-1
 280 1463 l 1,2,-1
 280 1200 l 1,3,-1
 140 1200 l 1,0,-1
EndSplineSet
EndChar

StartChar: quotesinglbase
Encoding: 8218 8218 206
Width: 442
Flags: W
LayerCount: 3
Fore
SplineSet
283 209 m 1,0,-1
 399 131 l 1,1,-1
 399 130 l 1,2,-1
 252 -86 l 1,3,-1
 251 -86 l 1,4,-1
 136 -8 l 1,5,-1
 136 -7 l 1,6,7
 279 204 279 204 283 209 c 1,0,-1
EndSplineSet
EndChar

StartChar: quotedblleft
Encoding: 8220 8220 207
Width: 742
Flags: W
LayerCount: 3
Fore
SplineSet
283 1577 m 1,0,-1
 399 1499 l 1,1,-1
 399 1498 l 1,2,-1
 252 1282 l 1,3,-1
 251 1282 l 1,4,-1
 136 1360 l 1,5,-1
 136 1361 l 1,6,7
 279 1572 279 1572 283 1577 c 1,0,-1
583 1577 m 1,8,-1
 699 1499 l 1,9,-1
 699 1498 l 1,10,-1
 552 1282 l 1,11,-1
 551 1282 l 1,12,-1
 436 1360 l 1,13,-1
 436 1361 l 1,14,15
 579 1572 579 1572 583 1577 c 1,8,-1
EndSplineSet
EndChar

StartChar: quotedblright
Encoding: 8221 8221 208
Width: 742
Flags: W
LayerCount: 3
Fore
SplineSet
283 1577 m 1,0,-1
 399 1499 l 1,1,-1
 399 1498 l 1,2,-1
 252 1282 l 1,3,-1
 251 1282 l 1,4,-1
 136 1360 l 1,5,-1
 136 1361 l 1,6,7
 279 1572 279 1572 283 1577 c 1,0,-1
583 1577 m 1,8,-1
 699 1499 l 1,9,-1
 699 1498 l 1,10,-1
 552 1282 l 1,11,-1
 551 1282 l 1,12,-1
 436 1360 l 1,13,-1
 436 1361 l 1,14,15
 579 1572 579 1572 583 1577 c 1,8,-1
EndSplineSet
EndChar

StartChar: quotedblbase
Encoding: 8222 8222 209
Width: 742
Flags: W
LayerCount: 3
Fore
SplineSet
283 209 m 1,0,-1
 399 131 l 1,1,-1
 399 130 l 1,2,-1
 252 -86 l 1,3,-1
 251 -86 l 1,4,-1
 136 -8 l 1,5,-1
 136 -7 l 1,6,7
 279 204 279 204 283 209 c 1,0,-1
583 209 m 1,8,-1
 699 131 l 1,9,-1
 699 130 l 1,10,-1
 552 -86 l 1,11,-1
 551 -86 l 1,12,-1
 436 -8 l 1,13,-1
 436 -7 l 1,14,15
 579 204 579 204 583 209 c 1,8,-1
EndSplineSet
EndChar

StartChar: dagger
Encoding: 8224 8224 210
Width: 885
Flags: W
LayerCount: 3
Fore
SplineSet
374 670 m 1,0,-1
 119 670 l 1,1,-1
 119 810 l 1,2,-1
 374 810 l 1,3,-1
 374 1065 l 1,4,-1
 514 1065 l 1,5,-1
 514 810 l 1,6,-1
 769 810 l 1,7,-1
 769 670 l 1,8,-1
 514 670 l 1,9,-1
 514 0 l 1,10,-1
 374 0 l 1,11,-1
 374 670 l 1,0,-1
EndSplineSet
EndChar

StartChar: daggerdbl
Encoding: 8225 8225 211
Width: 885
Flags: W
LayerCount: 3
Fore
SplineSet
374 670 m 1,0,-1
 119 670 l 1,1,-1
 119 810 l 1,2,-1
 374 810 l 1,3,-1
 374 1065 l 1,4,-1
 514 1065 l 1,5,-1
 514 810 l 1,6,-1
 769 810 l 1,7,-1
 769 670 l 1,8,-1
 514 670 l 1,9,-1
 514 395 l 1,10,-1
 769 395 l 1,11,-1
 769 255 l 1,12,-1
 514 255 l 1,13,-1
 514 0 l 1,14,-1
 374 0 l 1,15,-1
 374 255 l 1,16,-1
 119 255 l 1,17,-1
 119 395 l 1,18,-1
 374 395 l 1,19,-1
 374 670 l 1,0,-1
EndSplineSet
EndChar

StartChar: ellipsis
Encoding: 8230 8230 213
Width: 1200
Flags: W
LayerCount: 3
Fore
SplineSet
199 200 m 2,0,-1
 201 200 l 2,1,2
 244 200 244 200 276 165 c 0,3,4
 300 135 300 135 300 104 c 2,5,-1
 300 98 l 2,6,7
 300 55 300 55 263 23 c 0,8,9
 235 0 235 0 199 0 c 0,10,11
 161 0 161 0 130 28 c 0,12,13
 100 60 100 60 100 96 c 2,14,-1
 100 104 l 2,15,16
 100 142 100 142 133 174 c 0,17,18
 162 200 162 200 199 200 c 2,0,-1
999 200 m 2,19,-1
 1001 200 l 2,20,21
 1044 200 1044 200 1076 165 c 0,22,23
 1100 135 1100 135 1100 104 c 2,24,-1
 1100 98 l 2,25,26
 1100 55 1100 55 1063 23 c 0,27,28
 1035 0 1035 0 999 0 c 0,29,30
 961 0 961 0 930 28 c 0,31,32
 900 60 900 60 900 96 c 2,33,-1
 900 104 l 2,34,35
 900 142 900 142 933 174 c 0,36,37
 962 200 962 200 999 200 c 2,19,-1
599 200 m 2,38,-1
 601 200 l 2,39,40
 644 200 644 200 676 165 c 0,41,42
 700 135 700 135 700 104 c 2,43,-1
 700 98 l 2,44,45
 700 55 700 55 663 23 c 0,46,47
 635 0 635 0 599 0 c 0,48,49
 561 0 561 0 530 28 c 0,50,51
 500 60 500 60 500 96 c 2,52,-1
 500 104 l 2,53,54
 500 142 500 142 533 174 c 0,55,56
 562 200 562 200 599 200 c 2,38,-1
EndSplineSet
EndChar

StartChar: guilsinglleft
Encoding: 8249 8249 214
Width: 636
Flags: W
LayerCount: 3
Fore
SplineSet
69 417 m 1,0,-1
 69 524 l 1,1,-1
 347 706 l 1,2,-1
 458 779 l 1,3,4
 535 664 535 664 535 662 c 2,5,-1
 243 470 l 1,6,7
 523 287 523 287 535 278 c 1,8,-1
 459 162 l 2,9,10
 457 162 457 162 415 190 c 2,11,-1
 192 336 l 1,12,-1
 69 417 l 1,0,-1
EndSplineSet
EndChar

StartChar: guilsinglright
Encoding: 8250 8250 215
Width: 636
Flags: W
LayerCount: 3
Fore
SplineSet
567 524 m 1,0,-1
 567 417 l 1,1,-1
 289 235 l 1,2,-1
 178 162 l 1,3,4
 101 277 101 277 101 279 c 2,5,-1
 393 471 l 1,6,7
 113 654 113 654 101 663 c 1,8,-1
 177 779 l 2,9,10
 179 779 179 779 221 751 c 2,11,-1
 444 605 l 1,12,-1
 567 524 l 1,0,-1
EndSplineSet
EndChar

StartChar: fraction
Encoding: 8260 8260 216
AltUni2: 002215.ffffffff.0
Width: 279
Flags: W
LayerCount: 3
Fore
SplineSet
-300 -51 m 1,0,-1
 519 1372 l 1,1,-1
 659 1372 l 1,2,-1
 -158 -51 l 1,3,-1
 -300 -51 l 1,0,-1
EndSplineSet
EndChar

StartChar: peseta
Encoding: 8359 8359 219
Width: 2453
Flags: W
LayerCount: 3
Fore
SplineSet
173 1464 m 1,0,-1
 549 1464 l 2,1,2
 650 1464 650 1464 750 1412 c 0,3,4
 780 1396 780 1396 815 1369 c 0,5,6
 856 1333 856 1333 876 1306 c 0,7,8
 900 1274 900 1274 915 1248 c 0,9,10
 965 1149 965 1149 965 1049 c 2,11,-1
 965 1005 l 2,12,13
 965 902 965 902 914 798 c 0,14,15
 898 766 898 766 873 732 c 0,16,17
 860 713 860 713 821 673 c 0,18,19
 697 562 697 562 538 562 c 2,20,-1
 312 562 l 1,21,-1
 312 1 l 1,22,-1
 311 0 l 1,23,-1
 173 0 l 1,24,-1
 172 1 l 1,25,-1
 172 1463 l 1,26,-1
 173 1464 l 1,0,-1
312 1324 m 1,27,-1
 312 702 l 1,28,-1
 528 702 l 2,29,30
 595 702 595 702 639 721 c 0,31,32
 681 737 681 737 724 776 c 0,33,34
 755 806 755 806 766 823 c 0,35,36
 825 909 825 909 825 1010 c 2,37,-1
 825 1042 l 2,38,39
 825 1146 825 1146 761 1225 c 0,40,41
 736 1253 736 1253 720 1264 c 0,42,43
 642 1324 642 1324 542 1324 c 2,44,-1
 312 1324 l 1,27,-1
1171 1464 m 1,45,-1
 1310 1464 l 1,46,-1
 1311 1463 l 1,47,-1
 1311 950 l 1,48,-1
 1569 950 l 1,49,-1
 1570 949 l 1,50,-1
 1570 810 l 1,51,-1
 1569 809 l 1,52,-1
 1311 809 l 1,53,-1
 1311 260 l 2,54,55
 1311 219 1311 219 1332 184 c 0,56,57
 1353 156 1353 156 1389 145 c 0,58,59
 1405 140 1405 140 1417 140 c 2,60,-1
 1423 140 l 2,61,62
 1460 140 1460 140 1527 166 c 1,63,-1
 1539 172 l 1,64,65
 1590 60 1590 60 1596 44 c 1,66,67
 1582 36 1582 36 1539 21 c 0,68,69
 1469 0 1469 0 1429 0 c 2,70,-1
 1412 0 l 2,71,72
 1359 0 1359 0 1300 31 c 0,73,74
 1221 74 1221 74 1190 156 c 0,75,76
 1171 208 1171 208 1171 269 c 2,77,-1
 1171 809 l 1,78,-1
 1014 809 l 1,79,-1
 1013 810 l 1,80,-1
 1013 949 l 1,81,-1
 1014 950 l 1,82,-1
 1171 950 l 1,83,-1
 1171 1464 l 1,45,-1
2003 965 m 2,84,-1
 2017 965 l 2,85,86
 2119 965 2119 965 2211 916 c 0,87,88
 2241 901 2241 901 2275 873 c 0,89,90
 2306 846 2306 846 2324 823 c 0,91,92
 2339 803 2339 803 2339 800 c 0,93,94
 2248 748 2248 748 2219 729 c 1,95,-1
 2218 729 l 1,96,97
 2200 756 2200 756 2164 781 c 0,98,99
 2099 825 2099 825 2009 825 c 0,100,101
 1904 825 1904 825 1838 773 c 0,102,103
 1793 733 1793 733 1793 685 c 0,104,105
 1793 649 1793 649 1822 630 c 0,106,107
 1833 620 1833 620 1853 611 c 0,108,109
 1897 588 1897 588 2003 563 c 0,110,111
 2053 553 2053 553 2130 538 c 0,112,113
 2179 526 2179 526 2212 510 c 0,114,115
 2242 496 2242 496 2273 473 c 0,116,117
 2282 467 2282 467 2310 438 c 0,118,119
 2370 367 2370 367 2370 284 c 2,120,-1
 2370 278 l 2,121,122
 2370 189 2370 189 2305 110 c 0,123,124
 2279 82 2279 82 2264 71 c 0,125,126
 2232 48 2232 48 2206 35 c 0,127,128
 2110 -10 2110 -10 2009 -10 c 2,129,-1
 1996 -10 l 2,130,131
 1885 -10 1885 -10 1783 44 c 0,132,133
 1685 100 1685 100 1631 197 c 0,134,135
 1632 199 1632 199 1689 230 c 2,136,-1
 1753 265 l 1,137,138
 1799 185 1799 185 1887 150 c 0,139,140
 1942 130 1942 130 2003 130 c 0,141,142
 2091 130 2091 130 2161 171 c 0,143,144
 2175 178 2175 178 2197 199 c 0,145,146
 2230 238 2230 238 2230 281 c 0,147,148
 2230 347 2230 347 2147 386 c 0,149,150
 2127 395 2127 395 2089 404 c 0,151,152
 1929 432 1929 432 1838 465 c 0,153,154
 1653 533 1653 533 1653 684 c 2,155,-1
 1653 687 l 2,156,157
 1653 778 1653 778 1722 855 c 0,158,159
 1755 888 1755 888 1768 895 c 0,160,161
 1812 927 1812 927 1872 945 c 0,162,163
 1938 965 1938 965 2003 965 c 2,84,-1
EndSplineSet
EndChar

StartChar: Euro
Encoding: 8364 8364 220
Width: 1353
Flags: W
LayerCount: 3
Fore
SplineSet
800 1379 m 2,0,-1
 809 1379 l 2,1,2
 987 1379 987 1379 1151 1283 c 0,3,4
 1189 1260 1189 1260 1236 1221 c 0,5,6
 1250 1209 1250 1209 1253 1206 c 1,7,-1
 1159 1102 l 1,8,9
 1082 1172 1082 1172 985 1207 c 0,10,11
 897 1239 897 1239 804 1239 c 0,12,13
 625 1239 625 1239 476 1125 c 0,14,15
 456 1109 456 1109 422 1075 c 0,16,17
 373 1021 373 1021 350 980 c 0,18,19
 331 948 331 948 312 902 c 2,20,-1
 305 881 l 1,21,-1
 1168 881 l 1,22,-1
 1169 880 l 1,23,-1
 1169 741 l 1,24,-1
 1168 740 l 1,25,-1
 278 740 l 1,26,-1
 278 739 l 1,27,-1
 277 713 l 1,28,-1
 277 710 l 2,29,30
 277 675 277 675 282 643 c 1,31,-1
 1168 643 l 1,32,-1
 1169 642 l 1,33,-1
 1169 504 l 1,34,-1
 1168 503 l 1,35,-1
 320 503 l 1,36,37
 401 321 401 321 581 234 c 0,38,39
 689 185 689 185 804 185 c 0,40,41
 962 185 962 185 1098 274 c 0,42,43
 1124 292 1124 292 1158 321 c 2,44,-1
 1159 322 l 1,45,-1
 1253 219 l 1,46,-1
 1253 218 l 1,47,48
 1208 178 1208 178 1170 153 c 0,49,50
 1000 45 1000 45 806 45 c 2,51,-1
 802 45 l 2,52,53
 623 45 623 45 462 139 c 0,54,55
 428 159 428 159 390 189 c 0,56,57
 369 204 369 204 324 249 c 0,58,59
 276 300 276 300 257 330 c 0,60,61
 224 377 224 377 198 433 c 0,62,63
 183 466 183 466 171 503 c 1,64,-1
 54 503 l 1,65,-1
 53 504 l 1,66,-1
 53 642 l 1,67,-1
 54 643 l 1,68,-1
 141 643 l 1,69,70
 137 675 137 675 137 703 c 2,71,-1
 137 730 l 1,72,-1
 138 740 l 1,73,-1
 54 740 l 1,74,-1
 53 741 l 1,75,-1
 53 880 l 1,76,-1
 54 881 l 1,77,-1
 159 881 l 1,78,79
 175 942 175 942 195 986 c 0,80,81
 217 1033 217 1033 252 1087 c 0,82,83
 273 1119 273 1119 310 1161 c 0,84,85
 353 1205 353 1205 368 1217 c 0,86,87
 421 1261 421 1261 455 1281 c 0,88,89
 504 1311 504 1311 570 1337 c 0,90,91
 685 1379 685 1379 800 1379 c 2,0,-1
EndSplineSet
EndChar

StartChar: afii61352
Encoding: 8470 8470 221
Width: 2244
Flags: W
LayerCount: 3
Fore
SplineSet
173 1464 m 1,0,-1
 336 1464 l 2,1,2
 338 1462 338 1462 437 1276 c 2,3,-1
 674 828 l 1,4,-1
 903 396 l 2,5,6
 908 388 908 388 979 253 c 1,7,-1
 979 1463 l 1,8,-1
 980 1464 l 1,9,-1
 1119 1464 l 1,10,-1
 1119 0 l 1,11,-1
 955 0 l 2,12,13
 954 1 954 1 935 37 c 2,14,-1
 692 494 l 1,15,-1
 482 891 l 1,16,-1
 312 1211 l 1,17,-1
 312 1 l 1,18,-1
 311 0 l 1,19,-1
 173 0 l 1,20,-1
 172 1 l 1,21,-1
 172 1463 l 1,22,-1
 173 1464 l 1,0,-1
1699 1268 m 0,23,24
 1843 1268 1843 1268 1963 1171 c 0,25,26
 2003 1137 2003 1137 2027 1106 c 0,27,28
 2049 1078 2049 1078 2063 1056 c 0,29,30
 2078 1031 2078 1031 2091 1003 c 0,31,32
 2138 897 2138 897 2138 792 c 2,33,-1
 2138 778 l 2,34,35
 2138 654 2138 654 2077 536 c 0,36,37
 2056 499 2056 499 2020 454 c 0,38,39
 1985 415 1985 415 1963 398 c 0,40,41
 1843 301 1843 301 1701 301 c 2,42,-1
 1697 301 l 2,43,44
 1551 301 1551 301 1428 404 c 0,45,46
 1392 437 1392 437 1377 456 c 0,47,48
 1331 513 1331 513 1312 555 c 0,49,50
 1299 580 1299 580 1283 629 c 0,51,52
 1260 707 1260 707 1260 776 c 2,53,-1
 1260 791 l 2,54,55
 1260 908 1260 908 1316 1021 c 0,56,57
 1333 1056 1333 1056 1360 1091 c 0,58,59
 1371 1109 1371 1109 1408 1147 c 0,60,61
 1454 1189 1454 1189 1480 1203 c 0,62,63
 1582 1268 1582 1268 1699 1268 c 0,23,24
1400 786 m 2,64,-1
 1400 782 l 2,65,66
 1400 660 1400 660 1473 559 c 0,67,68
 1485 543 1485 543 1513 516 c 0,69,70
 1597 441 1597 441 1699 441 c 0,71,72
 1803 441 1803 441 1889 519 c 0,73,74
 1920 551 1920 551 1933 570 c 0,75,76
 1998 667 1998 667 1998 784 c 2,77,-1
 1998 785 l 2,78,79
 1998 912 1998 912 1922 1013 c 0,80,81
 1910 1029 1910 1029 1882 1055 c 0,82,83
 1799 1128 1799 1128 1699 1128 c 0,84,85
 1596 1128 1596 1128 1510 1050 c 0,86,87
 1473 1013 1473 1013 1464 996 c 0,88,89
 1444 967 1444 967 1431 936 c 0,90,91
 1400 863 1400 863 1400 786 c 2,64,-1
1350 140 m 1,92,-1
 2050 140 l 1,93,-1
 2050 0 l 1,94,-1
 1350 0 l 1,95,-1
 1350 140 l 1,92,-1
EndSplineSet
EndChar

StartChar: trademark
Encoding: 8482 8482 222
Width: 2193
Flags: W
LayerCount: 3
Fore
SplineSet
403 400 m 1,0,-1
 403 1324 l 1,1,-1
 64 1324 l 1,2,-1
 63 1325 l 1,3,-1
 63 1463 l 1,4,-1
 64 1464 l 1,5,-1
 884 1464 l 1,6,-1
 884 1324 l 1,7,-1
 544 1324 l 1,8,-1
 544 400 l 1,9,-1
 403 400 l 1,0,-1
950 400 m 1,10,-1
 950 1463 l 1,11,-1
 951 1464 l 1,12,-1
 1112 1464 l 1,13,14
 1118 1453 1118 1453 1311 1091 c 2,15,-1
 1495 746 l 1,16,-1
 1690 1113 l 1,17,-1
 1877 1464 l 1,18,-1
 2039 1464 l 1,19,-1
 2039 400 l 1,20,-1
 1899 400 l 1,21,-1
 1899 1207 l 1,22,-1
 1687 809 l 1,23,-1
 1552 555 l 1,24,-1
 1438 555 l 1,25,26
 1435 559 1435 559 1300 813 c 2,27,-1
 1090 1207 l 1,28,-1
 1090 400 l 1,29,-1
 950 400 l 1,10,-1
EndSplineSet
EndChar

StartChar: minus
Encoding: 8722 8722 227
Width: 807
Flags: W
LayerCount: 3
Fore
SplineSet
76 680 m 1,0,-1
 726 680 l 1,1,-1
 726 540 l 1,2,-1
 76 540 l 1,3,-1
 76 680 l 1,0,-1
EndSplineSet
EndChar

